<svg width="1440" height="856" viewBox="0 0 1440 856" fill="none" xmlns="http://www.w3.org/2000/svg">
<ellipse cx="879" cy="451" rx="833" ry="373" fill="#EEEFF6" fill-opacity="0.65"/>
<path d="M0 0H1440V806.472C1440 806.472 1200 695.033 720 806.472C240 917.91 0 806.472 0 806.472V0Z" fill="url(#paint0_linear)"/>
<path d="M658 400C830 665 260 525 291 761C88.3115 761 -76 599.375 -76 400C-76 200.625 88.3115 39 291 39C482.417 41.9939 490 217 658 400Z" fill="url(#paint1_linear)"/>
<path d="M1228 157C1400 422 830 282 861 518C658.311 518 494 356.375 494 157C494 -42.3748 658.311 -204 861 -204C1052.42 -201.006 1060 -26 1228 157Z" fill="url(#paint2_linear)"/>
<defs>
<linearGradient id="paint0_linear" x1="1.96993e-05" y1="385" x2="1440" y2="385" gradientUnits="userSpaceOnUse">
<stop stop-color="#6974F6"/>
<stop offset="1" stop-color="#751FCB"/>
</linearGradient>
<linearGradient id="paint1_linear" x1="658" y1="400" x2="236" y2="427" gradientUnits="userSpaceOnUse">
<stop stop-color="#463B74" stop-opacity="0.26"/>
<stop offset="0.9999" stop-color="#8171BF" stop-opacity="0.01"/>
<stop offset="1" stop-color="#6E51E4" stop-opacity="0"/>
</linearGradient>
<linearGradient id="paint2_linear" x1="1228" y1="157" x2="806" y2="184" gradientUnits="userSpaceOnUse">
<stop stop-color="#463B74" stop-opacity="0.26"/>
<stop offset="0.9999" stop-color="#8171BF" stop-opacity="0.01"/>
<stop offset="1" stop-color="#6E51E4" stop-opacity="0"/>
</linearGradient>
</defs>
</svg>
