<?xml version="1.0" encoding="iso-8859-1"?>
<!-- Generator: Adobe Illustrator 21.0.0, SVG Export Plug-In . SVG Version: 6.00 Build 0)  -->
<svg version="1.1" id="Capa_1" xmlns="http://www.w3.org/2000/svg" xmlns:xlink="http://www.w3.org/1999/xlink" x="0px" y="0px"
	 viewBox="0 0 512 512" style="enable-background:new 0 0 512 512;" xml:space="preserve">
<path style="fill:#FFB90B;" d="M202.031,116.511H144.53v308.704h57.501c85.246,0,154.352-69.106,154.352-154.352
	S287.277,116.511,202.031,116.511z"/>
<circle style="fill:#FFEA6E;" cx="154.354" cy="270.866" r="154.354"/>
<g>
	<path style="fill:#FFDE3B;" d="M177.64,240.874l101.563,120.747c18.55-25.474,29.503-56.835,29.503-90.759
		c0-43.048-17.629-81.973-46.054-109.969h-47.072c-3.94,0-7.529,2.265-9.224,5.822L176.237,229.9
		C174.511,233.516,175.06,237.808,177.64,240.874z"/>
	<path style="fill:#FFDE3B;" d="M213.122,405.059c-85.246,0-154.352-69.106-154.352-154.352c0-56.61,30.482-106.092,75.92-132.956
		C58.729,127.409,0,192.278,0,270.863c0,85.246,69.106,154.352,154.352,154.352c28.636,0,55.446-7.808,78.431-21.398
		C226.345,404.637,219.783,405.059,213.122,405.059z"/>
</g>
<circle style="fill:#F7D74F;" cx="151.873" cy="270.866" r="114.651"/>
<g>
	<path style="fill:#F2C91D;" d="M205.12,169.303l-28.885,60.596c-1.724,3.617-1.176,7.909,1.404,10.975l73.505,87.39
		c9.782-16.882,15.386-36.486,15.386-57.402C266.53,226.762,241.627,188.483,205.12,169.303z"/>
	<path style="fill:#F2C91D;" d="M180.427,368.164c-63.323,0-114.655-51.334-114.655-114.655c0-35.532,16.164-67.286,41.538-88.317
		c-41.185,17.39-70.091,58.155-70.091,105.671c0,63.323,51.333,114.655,114.655,114.655c27.791,0,53.271-9.889,73.117-26.339
		C211.292,364.965,196.233,368.164,180.427,368.164z"/>
</g>
<path style="fill:#FFB90B;" d="M212.721,240.31L212,252.848l-6.794,46.373c-0.504,3.047-3.14,5.27-6.217,5.27h-90.111
	c-3.078,0-5.713-2.223-6.217-5.27l-6.609-46.661c-0.679-4.015,3.84-6.835,7.154-4.478l21.627,15.369
	c1.76,1.256,4.148,1.101,5.734-0.35l20.186-18.488c1.791-1.637,4.54-1.596,6.269,0.093l18.848,18.292
	c1.554,1.513,3.963,1.719,5.754,0.494l25.024-17.036L212.721,240.31z"/>
<polygon style="fill:#F7AA00;" points="208.397,277.442 212,252.848 212.721,240.31 206.647,246.455 191.187,256.981 "/>
<g>
	<path style="fill:#7CCAFD;" d="M405.192,107.583c1.987,0.968,1.668,3.84-0.443,4.478c-8.626,2.625-14.761,8.77-18.251,18.652
		c-0.731,2.069-3.675,2.141-4.488,0.103c-3.603-8.956-10.335-14.916-19.774-18.313c-2.007-0.721-2.182-3.49-0.268-4.426
		c8.863-4.354,15.626-10.891,19.939-19.949c0.896-1.853,3.592-1.781,4.385,0.124C389.865,96.826,396.257,103.198,405.192,107.583z"
		/>
	<path style="fill:#7CCAFD;" d="M146.82,204.344c1.987,0.968,1.668,3.84-0.443,4.478c-8.626,2.625-14.761,8.77-18.251,18.652
		c-0.731,2.069-3.675,2.141-4.488,0.103c-3.603-8.956-10.335-14.916-19.774-18.313c-2.007-0.721-2.182-3.49-0.268-4.426
		c8.863-4.354,15.626-10.891,19.939-19.949c0.896-1.853,3.593-1.781,4.385,0.124C131.493,193.587,137.885,199.959,146.82,204.344z"
		/>
	<polygon style="fill:#7CCAFD;" points="486.441,179.423 401.59,179.423 305.673,179.423 220.822,179.423 195.262,233.043 
		353.631,421.325 512,233.043 	"/>
</g>
<polygon style="fill:#67C4F9;" points="243.221,226.867 265.836,179.423 220.822,179.423 195.262,233.043 353.631,421.325 
	380.208,389.729 "/>
<g>
	<polygon style="fill:#43B0FC;" points="486.441,179.423 512,233.043 414.652,233.043 401.59,179.423 	"/>
	<polygon style="fill:#43B0FC;" points="414.344,233.043 353.631,421.325 292.919,233.043 	"/>
</g>
<polygon style="fill:#16A3F2;" points="320.586,318.845 353.631,421.325 368.362,375.644 "/>
<polygon style="fill:#43B0FC;" points="305.673,179.423 292.61,233.043 195.262,233.043 220.822,179.423 "/>
<polygon style="fill:#16A3F2;" points="195.262,233.043 248.416,233.043 243.221,226.867 265.836,179.423 220.822,179.423 "/>
<g>
</g>
<g>
</g>
<g>
</g>
<g>
</g>
<g>
</g>
<g>
</g>
<g>
</g>
<g>
</g>
<g>
</g>
<g>
</g>
<g>
</g>
<g>
</g>
<g>
</g>
<g>
</g>
<g>
</g>
</svg>
