<?xml version="1.0" encoding="UTF-8" standalone="no"?>
<svg
   xmlns:dc="http://purl.org/dc/elements/1.1/"
   xmlns:cc="http://creativecommons.org/ns#"
   xmlns:rdf="http://www.w3.org/1999/02/22-rdf-syntax-ns#"
   xmlns:svg="http://www.w3.org/2000/svg"
   xmlns="http://www.w3.org/2000/svg"
   xmlns:sodipodi="http://sodipodi.sourceforge.net/DTD/sodipodi-0.dtd"
   xmlns:inkscape="http://www.inkscape.org/namespaces/inkscape"
   version="1.1"
   id="svg2"
   xml:space="preserve"
   width="517.03729"
   height="434.74454"
   viewBox="0 0 517.0373 434.74454"
   sodipodi:docname="3661725.svg"
   inkscape:version="1.0.2 (e86c870879, 2021-01-15)"><metadata
     id="metadata8"><rdf:RDF><cc:Work
         rdf:about=""><dc:format>image/svg+xml</dc:format><dc:type
           rdf:resource="http://purl.org/dc/dcmitype/StillImage" /><dc:title></dc:title></cc:Work></rdf:RDF></metadata><defs
     id="defs6"><clipPath
       clipPathUnits="userSpaceOnUse"
       id="clipPath32"><path
         d="M 0,500 H 500 V 0 H 0 Z"
         id="path30" /></clipPath><clipPath
       clipPathUnits="userSpaceOnUse"
       id="clipPath64"><path
         d="M 189.578,429.221 H 436.582 V 374.756 H 189.578 Z"
         id="path62" /></clipPath><clipPath
       clipPathUnits="userSpaceOnUse"
       id="clipPath138"><path
         d="M 0,500 H 500 V 0 H 0 Z"
         id="path136" /></clipPath><clipPath
       clipPathUnits="userSpaceOnUse"
       id="clipPath150"><path
         d="M 65.1822,392.555 H 417.366 V 159.959 H 65.1822 Z"
         id="path148" /></clipPath><clipPath
       clipPathUnits="userSpaceOnUse"
       id="clipPath166"><path
         d="M 0,500 H 500 V 0 H 0 Z"
         id="path164" /></clipPath><clipPath
       clipPathUnits="userSpaceOnUse"
       id="clipPath178"><path
         d="M 0,500 H 500 V 0 H 0 Z"
         id="path176" /></clipPath><clipPath
       clipPathUnits="userSpaceOnUse"
       id="clipPath190"><path
         d="m 361.376,136.164 h 9.367 V 89.4658 h -9.367 z"
         id="path188" /></clipPath><clipPath
       clipPathUnits="userSpaceOnUse"
       id="clipPath210"><path
         d="m 375.095,136.164 h 9.367 V 89.4658 h -9.367 z"
         id="path208" /></clipPath><clipPath
       clipPathUnits="userSpaceOnUse"
       id="clipPath230"><path
         d="m 306.297,136.164 h 9.366 V 89.4658 h -9.366 z"
         id="path228" /></clipPath><clipPath
       clipPathUnits="userSpaceOnUse"
       id="clipPath250"><path
         d="m 292.578,136.164 h 9.366 V 89.4658 h -9.366 z"
         id="path248" /></clipPath><clipPath
       clipPathUnits="userSpaceOnUse"
       id="clipPath270"><path
         d="M 270.613,227.611 H 403.866 V 136.163 H 270.613 Z"
         id="path268" /></clipPath><clipPath
       clipPathUnits="userSpaceOnUse"
       id="clipPath294"><path
         d="m 266.577,203.572 h 85.661 V 97.4951 h -85.661 z"
         id="path292" /></clipPath><clipPath
       clipPathUnits="userSpaceOnUse"
       id="clipPath354"><path
         d="m 345.305,284.109 h 6.565 v -8.062 h -6.565 z"
         id="path352" /></clipPath><clipPath
       clipPathUnits="userSpaceOnUse"
       id="clipPath426"><path
         d="m 329.866,190.488 h 56.965 v -54.324 h -56.965 z"
         id="path424" /></clipPath><clipPath
       clipPathUnits="userSpaceOnUse"
       id="clipPath442"><path
         d="M 0,500 H 500 V 0 H 0 Z"
         id="path440" /></clipPath><clipPath
       clipPathUnits="userSpaceOnUse"
       id="clipPath454"><path
         d="m 146.31,210.971 h 11.693 V 86.0973 H 146.31 Z"
         id="path452" /></clipPath><clipPath
       clipPathUnits="userSpaceOnUse"
       id="clipPath474"><path
         d="m 129.306,210.971 h 11.693 V 86.0973 h -11.693 z"
         id="path472" /></clipPath><clipPath
       clipPathUnits="userSpaceOnUse"
       id="clipPath494"><path
         d="M 329.207,210.971 H 340.9 V 86.0973 h -11.693 z"
         id="path492" /></clipPath><clipPath
       clipPathUnits="userSpaceOnUse"
       id="clipPath514"><path
         d="m 346.21,210.971 h 11.694 V 86.0973 H 346.21 Z"
         id="path512" /></clipPath><clipPath
       clipPathUnits="userSpaceOnUse"
       id="clipPath532"><path
         d="M 0,500 H 500 V 0 H 0 Z"
         id="path530" /></clipPath><clipPath
       clipPathUnits="userSpaceOnUse"
       id="clipPath556"><path
         d="m 123.104,271.871 h 25.139 v -8.461 h -25.139 z"
         id="path554" /></clipPath><clipPath
       clipPathUnits="userSpaceOnUse"
       id="clipPath716"><path
         d="m 116.677,130.952 h 9.901 V 81.5935 h -9.901 z"
         id="path714" /></clipPath><clipPath
       clipPathUnits="userSpaceOnUse"
       id="clipPath736"><path
         d="m 102.177,130.952 h 9.9 V 81.5935 h -9.9 z"
         id="path734" /></clipPath><clipPath
       clipPathUnits="userSpaceOnUse"
       id="clipPath756"><path
         d="m 174.896,130.952 h 9.9 V 81.5935 h -9.9 z"
         id="path754" /></clipPath><clipPath
       clipPathUnits="userSpaceOnUse"
       id="clipPath776"><path
         d="m 189.396,130.952 h 9.901 V 81.5935 h -9.901 z"
         id="path774" /></clipPath><clipPath
       clipPathUnits="userSpaceOnUse"
       id="clipPath796"><path
         d="M 81.6667,227.611 H 222.513 V 130.952 H 81.6667 Z"
         id="path794" /></clipPath><clipPath
       clipPathUnits="userSpaceOnUse"
       id="clipPath814"><path
         d="M 0,500 H 500 V 0 H 0 Z"
         id="path812" /></clipPath></defs><sodipodi:namedview
     pagecolor="#ffffff"
     bordercolor="#666666"
     borderopacity="1"
     objecttolerance="10"
     gridtolerance="10"
     guidetolerance="10"
     inkscape:pageopacity="0"
     inkscape:pageshadow="2"
     inkscape:window-width="1366"
     inkscape:window-height="712"
     id="namedview4"
     showgrid="false"
     inkscape:zoom="0.56851383"
     inkscape:cx="419.20823"
     inkscape:cy="369.25817"
     inkscape:window-x="0"
     inkscape:window-y="31"
     inkscape:window-maximized="1"
     inkscape:current-layer="g10" /><g
     id="g10"
     inkscape:groupmode="layer"
     inkscape:label="3661725"
     transform="matrix(1.3333333,0,0,-1.3333333,-74.814931,531.32945)"><g
       id="g132"
       style="opacity:0.15;fill:#ea8c33;fill-opacity:1"><g
         id="g134"
         clip-path="url(#clipPath138)"
         style="fill:#ea8c33;fill-opacity:1"><g
           id="g140"
           transform="translate(414.9946,215.7568)"
           style="fill:#ea8c33;fill-opacity:1"><path
             d="m 0,0 c -4.13,16.77 -24.486,40.172 -42.107,46.563 -22.502,8.163 -33.492,-5.119 -53.199,-2.847 -53.216,6.133 -74.565,48.414 -101.981,86.675 -60.761,84.795 -180.926,47.403 -146.411,-63.623 20.748,-66.738 100.042,-167.58 180.181,-100.434 34.638,29.021 19.633,45.557 66.285,20.12 C -78.823,-23.584 18.707,-75.955 0,0"
             style="fill:#ea8c33;fill-opacity:1;fill-rule:nonzero;stroke:none"
             id="path142" /></g><g
           id="g144"
           style="fill:#ea8c33;fill-opacity:1"><g
             id="g146"
             style="fill:#ea8c33;fill-opacity:1" /><g
             id="g158"
             style="fill:#ea8c33;fill-opacity:1"><g
               clip-path="url(#clipPath150)"
               opacity="0.899994"
               id="g156"
               style="fill:#ea8c33;fill-opacity:1"><g
                 transform="translate(414.9946,215.7568)"
                 id="g154"
                 style="fill:#ea8c33;fill-opacity:1"><path
                   d="m 0,0 c -4.13,16.77 -24.486,40.172 -42.107,46.563 -22.502,8.163 -33.492,-5.119 -53.199,-2.847 -53.216,6.133 -74.565,48.414 -101.981,86.675 -60.761,84.795 -180.926,47.403 -146.411,-63.623 20.748,-66.738 100.042,-167.58 180.181,-100.434 34.638,29.021 19.633,45.557 66.285,20.12 C -78.823,-23.584 18.707,-75.955 0,0"
                   style="fill:#ea8c33;fill-opacity:1;fill-rule:nonzero;stroke:none"
                   id="path152" /></g></g></g></g></g></g><g
       id="g160"
       style="opacity:0.1;fill:#ea8c33;fill-opacity:1"><g
         id="g162"
         clip-path="url(#clipPath166)"
         style="fill:#ea8c33;fill-opacity:1"><g
           id="g168"
           transform="translate(443.8892,83.7617)"
           style="fill:#ea8c33;fill-opacity:1"><path
             d="m 0,0 c 0,-6.254 -86.807,-11.323 -193.889,-11.323 -107.082,0 -193.889,5.069 -193.889,11.323 0,6.254 86.807,11.323 193.889,11.323 C -86.807,11.323 0,6.254 0,0"
             style="fill:#ea8c33;fill-opacity:1;fill-rule:nonzero;stroke:none"
             id="path170" /></g></g></g><g
       id="g172"
       transform="translate(-0.00950004,-0.22630004)"><g
         id="g174"
         clip-path="url(#clipPath178)"><g
           id="g180"
           transform="translate(369.8813,89.4658)"
           style="fill:#ea8c33;fill-opacity:1"><path
             d="M 0,0 H -1.072 C -1.49,0 -1.848,0.367 -1.92,0.87 l -6.585,45.828 h 5 L 0.855,1.174 C 0.916,0.549 0.515,0 0,0"
             style="fill:#ea8c33;fill-opacity:1;fill-rule:nonzero;stroke:none"
             id="path182" /></g><g
           id="g184"><g
             id="g186" /><g
             id="g198"><g
               clip-path="url(#clipPath190)"
               opacity="0.300003"
               id="g196"><g
                 transform="translate(369.8813,89.4658)"
                 id="g194"><path
                   d="M 0,0 H -1.072 C -1.49,0 -1.848,0.367 -1.92,0.87 l -6.585,45.828 h 5 L 0.855,1.174 C 0.916,0.549 0.515,0 0,0"
                   style="fill:#000000;fill-opacity:1;fill-rule:nonzero;stroke:none"
                   id="path192" /></g></g></g></g><g
           id="g200"
           transform="translate(383.6001,89.4658)"
           style="fill:#ea8c33;fill-opacity:1"><path
             d="M 0,0 H -1.072 C -1.49,0 -1.848,0.367 -1.92,0.87 l -6.585,45.828 h 5 L 0.855,1.174 C 0.916,0.549 0.516,0 0,0"
             style="fill:#ea8c33;fill-opacity:1;fill-rule:nonzero;stroke:none"
             id="path202" /></g><g
           id="g204"><g
             id="g206" /><g
             id="g218"><g
               clip-path="url(#clipPath210)"
               opacity="0.300003"
               id="g216"><g
                 transform="translate(383.6001,89.4658)"
                 id="g214"><path
                   d="M 0,0 H -1.072 C -1.49,0 -1.848,0.367 -1.92,0.87 l -6.585,45.828 h 5 L 0.855,1.174 C 0.916,0.549 0.516,0 0,0"
                   style="fill:#000000;fill-opacity:1;fill-rule:nonzero;stroke:none"
                   id="path212" /></g></g></g></g><g
           id="g220"
           transform="translate(307.1582,89.4658)"
           style="fill:#ea8c33;fill-opacity:1"><path
             d="M 0,0 H 1.072 C 1.49,0 1.848,0.367 1.92,0.87 l 6.585,45.828 h -5 L -0.855,1.174 C -0.916,0.549 -0.515,0 0,0"
             style="fill:#ea8c33;fill-opacity:1;fill-rule:nonzero;stroke:none"
             id="path222" /></g><g
           id="g224"
           transform="translate(2e-4,-2e-4)"><g
             id="g226" /><g
             id="g238"><g
               clip-path="url(#clipPath230)"
               opacity="0.300003"
               id="g236"><g
                 transform="translate(307.1582,89.4658)"
                 id="g234"><path
                   d="M 0,0 H 1.072 C 1.49,0 1.848,0.367 1.92,0.87 l 6.585,45.828 h -5 L -0.855,1.174 C -0.916,0.549 -0.515,0 0,0"
                   style="fill:#000000;fill-opacity:1;fill-rule:nonzero;stroke:none"
                   id="path232" /></g></g></g></g><g
           id="g240"
           transform="translate(293.4395,89.4658)"
           style="fill:#ea8c33;fill-opacity:1"><path
             d="M 0,0 H 1.071 C 1.49,0 1.848,0.367 1.92,0.87 l 6.585,45.828 h -5 L -0.856,1.174 C -0.916,0.549 -0.516,0 0,0"
             style="fill:#ea8c33;fill-opacity:1;fill-rule:nonzero;stroke:none"
             id="path242" /></g><g
           id="g244"><g
             id="g246" /><g
             id="g258"><g
               clip-path="url(#clipPath250)"
               opacity="0.300003"
               id="g256"><g
                 transform="translate(293.4395,89.4658)"
                 id="g254"><path
                   d="M 0,0 H 1.071 C 1.49,0 1.848,0.367 1.92,0.87 l 6.585,45.828 h -5 L -0.856,1.174 C -0.916,0.549 -0.516,0 0,0"
                   style="fill:#000000;fill-opacity:1;fill-rule:nonzero;stroke:none"
                   id="path252" /></g></g></g></g><g
           id="g260"
           transform="translate(275.6602,190.4873)"
           style="fill:#ea8c33;fill-opacity:1"><path
             d="m 0,0 h 33.68 c 5.976,20.752 27.477,37.123 49.496,37.123 h 0.003 10.937 c 23.048,0 37.923,-17.934 33.223,-40.057 -0.863,-4.06 -2.331,-7.978 -4.286,-11.672 l -5.312,-32.195 c -0.685,-4.154 -4,-7.522 -7.404,-7.522 L 8.962,-54.324 c -3.404,0 -6.719,3.369 -7.404,7.523 l -6.48,39.279 C -5.608,-3.368 -3.404,0 0,0"
             style="fill:#ea8c33;fill-opacity:1;fill-rule:nonzero;stroke:none"
             id="path262" /></g><g
           id="g264"><g
             id="g266" /><g
             id="g278"><g
               clip-path="url(#clipPath270)"
               opacity="0.5"
               id="g276"><g
                 transform="translate(275.6602,190.4873)"
                 id="g274"><path
                   d="m 0,0 h 33.68 c 5.976,20.752 27.477,37.123 49.496,37.123 h 0.003 10.937 c 23.048,0 37.923,-17.934 33.223,-40.057 -0.863,-4.06 -2.331,-7.978 -4.286,-11.672 l -5.312,-32.195 c -0.685,-4.154 -4,-7.522 -7.404,-7.522 L 8.962,-54.324 c -3.404,0 -6.719,3.369 -7.404,7.523 l -6.48,39.279 C -5.608,-3.368 -3.404,0 0,0"
                   style="fill:#ffffff;fill-opacity:1;fill-rule:nonzero;stroke:none"
                   id="path272" /></g></g></g></g><g
           id="g280"
           transform="translate(267.228,101.3232)"><path
             d="m 0,0 8.342,-3.828 c 0.304,-0.14 0.436,-0.455 0.318,-0.76 l -2.625,-6.786 c -0.272,-0.703 -1.212,-1.057 -1.905,-0.724 -2.881,1.383 -4.191,2.191 -7.859,3.874 -2.257,1.037 -8.436,4.498 -11.22,6.501 -2.722,1.958 -0.724,4.698 0.636,4.099 C -8.22,-0.312 -4.34,-0.554 -1.488,0.131 -0.974,0.254 -0.444,0.204 0,0"
             style="fill:#1a2e35;fill-opacity:1;fill-rule:nonzero;stroke:none"
             id="path282" /></g><g
           id="g284"
           transform="translate(326.376,203.5713)"
           style="fill:#ea8c33;fill-opacity:1"><path
             d="m 0,0 c 0,0 -53.329,-0.662 -54.153,-21.685 -1.184,-30.215 -5.646,-80.384 -5.646,-80.384 l 8.993,-4.007 c 0,0 15.756,50.345 16.319,73.942 14.962,3.728 53.567,-0.03 58.103,12.268 C 27.327,-9.806 25.32,0 25.32,0 Z"
             style="fill:#ea8c33;fill-opacity:1;fill-rule:nonzero;stroke:none"
             id="path286" /></g><g
           id="g288"><g
             id="g290" /><g
             id="g302"><g
               clip-path="url(#clipPath294)"
               opacity="0.199997"
               id="g300"><g
                 transform="translate(326.376,203.5713)"
                 id="g298"><path
                   d="m 0,0 c 0,0 -53.329,-0.662 -54.153,-21.685 -1.184,-30.215 -5.646,-80.384 -5.646,-80.384 l 8.993,-4.007 c 0,0 15.756,50.345 16.319,73.942 14.962,3.728 53.567,-0.03 58.103,12.268 C 27.327,-9.806 25.32,0 25.32,0 Z"
                   style="fill:#000000;fill-opacity:1;fill-rule:nonzero;stroke:none"
                   id="path296" /></g></g></g></g><g
           id="g304"
           transform="translate(337.7256,258.8779)"><path
             d="m 0,0 c -0.463,-1.94 -0.932,-3.691 -1.469,-5.507 -0.525,-1.798 -1.075,-3.587 -1.653,-5.371 -1.171,-3.561 -2.46,-7.1 -3.948,-10.601 -1.477,-3.506 -3.128,-6.984 -5.14,-10.413 -1.017,-1.712 -2.101,-3.428 -3.388,-5.103 -1.286,-1.675 -2.742,-3.344 -4.645,-4.907 l -0.148,-0.122 c -0.104,-0.085 -0.215,-0.166 -0.325,-0.24 -1.272,-0.837 -2.455,-1.093 -3.356,-1.204 -0.916,-0.101 -1.659,-0.059 -2.276,0.017 -1.265,0.154 -2.194,0.44 -3.064,0.742 -1.713,0.609 -3.118,1.311 -4.475,2.035 -2.693,1.449 -5.081,3.071 -7.427,4.719 -2.325,1.671 -4.563,3.401 -6.737,5.199 -2.161,1.83 -4.279,3.635 -6.341,5.623 -1.213,1.17 -1.249,3.104 -0.078,4.319 0.98,1.016 2.496,1.206 3.677,0.552 l 0.048,-0.027 c 2.361,-1.309 4.742,-2.695 7.13,-3.985 2.377,-1.317 4.749,-2.618 7.123,-3.834 2.356,-1.234 4.748,-2.377 7.027,-3.318 1.131,-0.463 2.264,-0.86 3.186,-1.067 0.448,-0.101 0.864,-0.153 0.973,-0.129 0.068,0 0.02,0.04 -0.214,0.023 -0.219,-0.022 -0.721,-0.086 -1.418,-0.532 l -0.473,-0.361 c 0.851,0.804 1.754,1.926 2.589,3.189 0.835,1.269 1.652,2.648 2.41,4.098 1.509,2.916 2.858,6.059 4.104,9.275 1.232,3.224 2.384,6.523 3.452,9.861 1.085,3.305 2.073,6.774 2.975,10.011 l 0.034,0.122 C -10.94,6.32 -7.565,8.225 -4.31,7.317 -1.131,6.432 0.756,3.183 0,0"
             style="fill:#1a2e35;fill-opacity:1;fill-rule:nonzero;stroke:none"
             id="path306" /></g><g
           id="g308"
           transform="translate(316.1089,96.9824)"><path
             d="m 0,0 h 10.005 c 0.364,0 0.639,-0.252 0.661,-0.607 l 0.484,-7.916 c 0.051,-0.822 -0.72,-1.599 -1.558,-1.584 -3.484,0.059 -5.148,0.264 -9.548,0.264 -2.707,0 -8.166,-0.281 -11.904,-0.281 -3.656,0 -3.632,3.696 -2.047,4.031 7.103,1.501 9.858,3.572 12.373,5.546 C -1.081,-0.191 -0.533,0 0,0"
             style="fill:#1a2e35;fill-opacity:1;fill-rule:nonzero;stroke:none"
             id="path310" /></g><g
           id="g312"
           transform="translate(340.7495,203.5713)"
           style="fill:#ea8c33;fill-opacity:1"><path
             d="m 0,0 c 0,0 -48.372,-4.085 -47.182,-25.089 1.303,-23.002 22.541,-81.5 22.541,-81.5 h 9.782 c 0,0 -8.372,53.571 -11.316,76.991 13.633,0 45.255,-2.566 49.791,9.732 C 27.327,-9.806 25.32,0 25.32,0 Z"
             style="fill:#ea8c33;fill-opacity:1;fill-rule:nonzero;stroke:none"
             id="path314" /></g><g
           id="g316"
           transform="translate(287.6777,237.5996)"
           style="fill:#ea8c33;fill-opacity:1"><path
             d="M 0,0 C 0,0 -1.391,2.257 -2.72,3.338 -4.698,1.483 -5.811,-3.926 -5.811,-3.926 l 2.736,-0.247 c 0,0 3.137,1.021 3.075,4.173"
             style="fill:#ea8c33;fill-opacity:1;fill-rule:nonzero;stroke:none"
             id="path318" /></g><g
           id="g320"
           transform="translate(277.6392,242.46)"><path
             d="M 0,0 -3.11,1.352 C -3.946,1.714 -4.92,1.403 -5.391,0.623 l -1.473,-2.44 c -0.425,-0.704 -0.325,-1.605 0.243,-2.199 l 4.271,-4.455 7.122,0.288 c 0.819,0.034 1.556,0.505 1.929,1.235 l 0.823,1.606 c 0.515,1.006 0.233,2.267 -0.71,2.89 C 4.504,-0.925 0,0 0,0"
             style="fill:#ffc4be;fill-opacity:1;fill-rule:nonzero;stroke:none"
             id="path322" /></g><g
           id="g324"
           transform="translate(325.9238,260.9336)"><path
             d="m 0,0 c -1.428,-8.975 -3.272,-28.434 0.497,-57.737 l 39.649,0.375 c -0.238,20.304 2.945,39.372 6.051,57.996 0.516,3.095 -1.605,5.965 -4.71,6.412 C 31.963,8.418 16.586,8.366 7.257,7.073 3.545,6.559 0.589,3.701 0,0"
             style="fill:#1a2e35;fill-opacity:1;fill-rule:nonzero;stroke:none"
             id="path326" /></g><g
           id="g328"
           transform="translate(372.4834,264.0986)"><path
             d="m 0,0 c 1.163,-2.887 2.1,-5.66 3.058,-8.521 0.949,-2.842 1.783,-5.727 2.571,-8.641 0.757,-2.923 1.482,-5.872 2.035,-8.902 0.556,-3.032 1.045,-6.109 1.215,-9.375 0.053,-0.81 0.068,-1.649 0.079,-2.489 l -0.016,-1.281 c -0.025,-0.904 -0.156,-2.277 -0.994,-3.745 -0.396,-0.711 -1.018,-1.441 -1.664,-1.942 -0.338,-0.279 -0.663,-0.486 -0.992,-0.666 -0.347,-0.198 -0.654,-0.33 -0.955,-0.441 -1.224,-0.446 -2.17,-0.506 -2.937,-0.511 -1.506,0.03 -2.539,0.289 -3.502,0.547 -1.876,0.545 -3.38,1.212 -4.845,1.911 -1.449,0.714 -2.81,1.469 -4.141,2.243 -5.288,3.136 -10.047,6.629 -14.664,10.499 -1.292,1.081 -1.462,3.005 -0.38,4.296 0.913,1.089 2.424,1.381 3.649,0.797 l 0.07,-0.034 c 5.172,-2.464 10.426,-4.987 15.55,-7.11 1.278,-0.528 2.554,-1.021 3.795,-1.433 1.223,-0.423 2.457,-0.788 3.417,-0.934 0.453,-0.074 0.868,-0.065 0.822,-0.021 -0.04,0.012 -0.252,0.052 -0.795,-0.135 -0.129,-0.049 -0.268,-0.11 -0.462,-0.209 -0.168,-0.092 -0.337,-0.205 -0.542,-0.358 -0.358,-0.28 -0.739,-0.721 -0.967,-1.112 -0.478,-0.829 -0.5,-1.458 -0.516,-1.638 l -0.057,0.905 c -0.056,0.616 -0.108,1.235 -0.199,1.875 -0.684,5.129 -2.13,10.589 -3.733,15.958 -1.607,5.364 -3.445,10.849 -5.318,16.058 l -0.019,0.052 c -1.143,3.181 0.508,6.686 3.689,7.831 C -4.644,4.589 -1.226,3.032 0,0"
             style="fill:#1a2e35;fill-opacity:1;fill-rule:nonzero;stroke:none"
             id="path330" /></g><g
           id="g332"
           transform="translate(356.6318,288.0869)"><path
             d="m 0,0 -4.797,-3.979 -6.53,-5.423 c 0.191,-0.883 0.34,-1.777 0.415,-2.638 0.312,-3.152 -0.379,-6.053 -4.211,-7.522 -1.447,-0.555 -2.708,-1.613 -3.164,-3.094 -0.516,-1.676 0.094,-3.537 5.356,-3.536 7.726,0.002 11.762,3.436 13.281,5.129 0.428,0.475 0.434,1.177 0.065,1.701 C -2.646,-15.021 -1.248,-5.421 0,0"
             style="fill:#ffc4be;fill-opacity:1;fill-rule:nonzero;stroke:none"
             id="path334" /></g><g
           id="g336"
           transform="translate(343.5112,263.5947)"
           style="fill:#ea8c33;fill-opacity:1"><path
             d="M 0,0 C 0,0 0.514,-0.557 0.668,-1.36 1.07,-0.681 2.118,0 2.118,0 2.118,0 4.412,-1.021 4.89,-3.246 3.419,-3.153 0.73,-1.7 0.73,-1.7 c 0,0 -1.391,-0.804 -2.781,-0.866 C -1.99,-0.835 0,0 0,0"
             style="fill:#ea8c33;fill-opacity:1;fill-rule:nonzero;stroke:none"
             id="path338" /></g><g
           id="g340"
           transform="translate(345.6294,263.5947)"
           style="fill:#ea8c33;fill-opacity:1"><path
             d="m 0,0 c 2.224,-2.505 2.647,-5.831 2.647,-5.831 0,0 12.802,3.199 12.201,11.543 -1.077,0.681 -3.549,1.09 -3.549,1.09 C 11.299,6.802 8.546,1.803 0,0"
             style="fill:#ea8c33;fill-opacity:1;fill-rule:nonzero;stroke:none"
             id="path342" /></g><g
           id="g344"
           transform="translate(343.5112,263.5947)"
           style="fill:#ea8c33;fill-opacity:1"><path
             d="m 0,0 c -2.225,-2.505 -2.818,-5.831 -2.818,-5.831 0,0 -6.566,5.977 -0.17,11.475 1.125,0.462 3.384,0.71 3.384,0.71 C 0.396,6.354 -3.853,2.905 0,0"
             style="fill:#ea8c33;fill-opacity:1;fill-rule:nonzero;stroke:none"
             id="path346" /></g><g
           id="g348"><g
             id="g350" /><g
             id="g362"><g
               clip-path="url(#clipPath354)"
               opacity="0.199997"
               id="g360"><g
                 transform="translate(345.3047,278.6855)"
                 id="g358"><path
                   d="m 0,0 c 0.191,-0.883 0.34,-1.777 0.415,-2.639 2.436,0.491 5.69,3.085 6.03,5.574 0.128,0.936 0.149,1.839 0.085,2.489 z"
                   style="fill:#000000;fill-opacity:1;fill-rule:nonzero;stroke:none"
                   id="path356" /></g></g></g></g><g
           id="g364"
           transform="translate(338.2954,305.3135)"><path
             d="M 0,0 C -6.022,-4.271 -2.652,-14.288 2.484,-10.455 7.622,-6.622 4.908,3.479 0,0"
             style="fill:#1a2e35;fill-opacity:1;fill-rule:nonzero;stroke:none"
             id="path366" /></g><g
           id="g368"
           transform="translate(358.6094,296.3936)"><path
             d="m 0,0 c -1.667,-7.668 -2.253,-12.227 -6.782,-15.726 -6.812,-5.262 -15.84,-0.586 -16.502,7.343 -0.595,7.138 2.232,18.478 10.298,20.65 C -5.039,14.405 1.668,7.667 0,0"
             style="fill:#ffc4be;fill-opacity:1;fill-rule:nonzero;stroke:none"
             id="path370" /></g><g
           id="g372"
           transform="translate(355.0596,302.0762)"><path
             d="m 0,0 c -4.251,1.175 -15.211,-1.615 -19.102,2.534 -4.172,4.451 1.917,6.615 3.709,5.07 -2.272,2.596 -1.423,5.377 1.793,5.13 2.346,-0.179 3.093,-2.781 3.093,-2.781 0,0 -0.391,4.547 3.643,4.235 3.664,-0.285 3.675,-5.224 3.675,-5.224 0,0 8.744,2.473 11.658,-5.873 C 13.971,3.215 13.848,-8.366 2.782,-12.487 -1.709,-10.262 -1.916,-2.362 0,0"
             style="fill:#1a2e35;fill-opacity:1;fill-rule:nonzero;stroke:none"
             id="path374" /></g><g
           id="g376"
           transform="translate(362.3535,303.4971)"><path
             d="M 0,0 C -0.528,0 -0.997,0.378 -1.094,0.916 -1.203,1.52 -0.803,2.097 -0.2,2.208 -0.101,2.238 0.196,2.482 0.443,3.02 0.704,3.585 0.872,4.429 0.564,5.103 0.31,5.662 0.557,6.321 1.115,6.577 1.673,6.835 2.334,6.585 2.59,6.026 3.257,4.562 2.903,2.91 2.349,1.852 1.817,0.837 1.033,0.168 0.198,0.019 0.132,0.006 0.065,0 0,0"
             style="fill:#1a2e35;fill-opacity:1;fill-rule:nonzero;stroke:none"
             id="path378" /></g><g
           id="g380"
           transform="translate(359.8574,289.2842)"><path
             d="m 0,0 c -1.125,-1.477 -2.77,-2.354 -4.21,-2.608 -2.168,-0.382 -2.827,1.612 -1.869,3.548 0.863,1.744 3.03,4.042 5.035,3.545 C 0.93,3.995 1.287,1.688 0,0"
             style="fill:#ffc4be;fill-opacity:1;fill-rule:nonzero;stroke:none"
             id="path382" /></g><g
           id="g384"
           transform="translate(345.478,295.6914)"><path
             d="m 0,0 c -0.097,-0.629 -0.51,-1.099 -0.923,-1.05 -0.413,0.05 -0.669,0.599 -0.572,1.228 0.097,0.629 0.51,1.099 0.923,1.051 C -0.159,1.179 0.097,0.629 0,0"
             style="fill:#1a2e35;fill-opacity:1;fill-rule:nonzero;stroke:none"
             id="path386" /></g><g
           id="g388"
           transform="translate(338.3398,296.54)"><path
             d="m 0,0 c -0.097,-0.629 -0.51,-1.099 -0.923,-1.05 -0.413,0.05 -0.669,0.599 -0.572,1.229 0.097,0.629 0.51,1.098 0.923,1.05 C -0.159,1.179 0.097,0.63 0,0"
             style="fill:#1a2e35;fill-opacity:1;fill-rule:nonzero;stroke:none"
             id="path390" /></g><g
           id="g392"
           transform="translate(340.5151,296.2881)"><path
             d="m 0,0 c 0,0 -1.498,-3.052 -2.981,-4.484 0.879,-0.941 2.541,-0.618 2.541,-0.618 z"
             style="fill:#ff857f;fill-opacity:1;fill-rule:nonzero;stroke:none"
             id="path394" /></g><g
           id="g396"
           transform="translate(342.9971,287.9551)"><path
             d="M 0,0 C 2.506,0 3.906,1.562 3.97,1.635 4.038,1.712 4.03,1.83 3.953,1.898 3.875,1.967 3.757,1.958 3.689,1.881 3.673,1.863 2.081,0.083 -0.696,0.415 -0.799,0.429 -0.891,0.354 -0.903,0.252 -0.916,0.149 -0.842,0.057 -0.74,0.045 -0.484,0.014 -0.237,0 0,0"
             style="fill:#1a2e35;fill-opacity:1;fill-rule:nonzero;stroke:none"
             id="path398" /></g><g
           id="g400"
           transform="translate(348.3477,299.3184)"><path
             d="M 0,0 C 0.06,0.014 0.117,0.041 0.166,0.085 0.32,0.222 0.334,0.458 0.197,0.612 -1.16,2.138 -2.871,1.86 -2.942,1.848 -3.137,1.833 -3.282,1.62 -3.246,1.416 -3.211,1.213 -3.018,1.077 -2.815,1.112 -2.744,1.123 -1.427,1.314 -0.361,0.116 -0.268,0.011 -0.128,-0.029 0,0"
             style="fill:#1a2e35;fill-opacity:1;fill-rule:nonzero;stroke:none"
             id="path402" /></g><g
           id="g404"
           transform="translate(335.791,299.7285)"><path
             d="M 0,0 C 0.115,-0.033 0.243,-0.011 0.342,0.071 1.648,1.157 2.991,0.799 3.004,0.795 3.203,0.739 3.409,0.854 3.464,1.054 3.52,1.251 3.405,1.457 3.208,1.514 H 3.206 C 3.135,1.533 1.468,1.979 -0.135,0.646 -0.294,0.514 -0.316,0.278 -0.184,0.12 -0.134,0.06 -0.069,0.02 0,0"
             style="fill:#1a2e35;fill-opacity:1;fill-rule:nonzero;stroke:none"
             id="path406" /></g><g
           id="g408"
           transform="translate(348.8081,243.0586)"><path
             d="M 0,0 -4.376,2.72 C -5.689,3.536 -7.417,3.122 -8.216,1.798 L -8.731,0.944 c -0.623,-1.032 -0.509,-2.347 0.283,-3.257 l 3.02,-3.466 c 0,0 2.628,-6.128 5.675,-4.51 l 2.324,4.026 z"
             style="fill:#ffc4be;fill-opacity:1;fill-rule:nonzero;stroke:none"
             id="path410" /></g><g
           id="g412"
           transform="translate(353.3159,235.2246)"
           style="fill:#ea8c33;fill-opacity:1"><path
             d="M 0,0 C 0,0 -1.101,2.707 -2.288,4.077 -4.485,2.193 -6.266,-3.809 -6.266,-3.809 l 2.689,-0.58 c 0,0 3.245,0.812 3.577,4.389"
             style="fill:#ea8c33;fill-opacity:1;fill-rule:nonzero;stroke:none"
             id="path414" /></g><g
           id="g416"
           transform="translate(386.8306,190.4883)"
           style="fill:#ea8c33;fill-opacity:1"><path
             d="m 0,0 h -51.917 c -3.404,0 -5.607,-3.369 -4.922,-7.523 l 6.48,-39.279 c 0.686,-4.154 4.001,-7.522 7.404,-7.522 h 36.527 z"
             style="fill:#ea8c33;fill-opacity:1;fill-rule:nonzero;stroke:none"
             id="path418" /></g><g
           id="g420"
           transform="translate(-104.35405,-1.3523226)"><g
             id="g422" /><g
             id="g434"
             transform="translate(104.35405,1.3523226)"><g
               clip-path="url(#clipPath426)"
               opacity="0.5"
               id="g432"><g
                 transform="translate(386.8306,190.4883)"
                 id="g430"><path
                   d="m 0,0 h -51.917 c -3.404,0 -5.607,-3.369 -4.922,-7.523 l 6.48,-39.279 c 0.686,-4.154 4.001,-7.522 7.404,-7.522 h 36.527 z"
                   style="fill:#ffffff;fill-opacity:1;fill-rule:nonzero;stroke:none"
                   id="path428" /></g></g></g></g></g></g><g
       id="g436"><g
         id="g438"
         clip-path="url(#clipPath442)"><g
           id="g444"
           transform="translate(147.2832,86.0977)"
           style="fill:#ea8c33;fill-opacity:1"><path
             d="m 0,0 h 1.499 c 0.509,0 0.933,0.43 0.97,0.986 L 10.72,124.874 H 4.523 L -0.972,1.114 C -0.999,0.508 -0.556,0 0,0"
             style="fill:#ea8c33;fill-opacity:1;fill-rule:nonzero;stroke:none"
             id="path446" /></g><g
           id="g448"><g
             id="g450" /><g
             id="g462"><g
               clip-path="url(#clipPath454)"
               opacity="0.300003"
               id="g460"><g
                 transform="translate(147.2832,86.0977)"
                 id="g458"><path
                   d="m 0,0 h 1.499 c 0.509,0 0.933,0.43 0.97,0.986 L 10.72,124.874 H 4.523 L -0.972,1.114 C -0.999,0.508 -0.556,0 0,0"
                   style="fill:#ffffff;fill-opacity:1;fill-rule:nonzero;stroke:none"
                   id="path456" /></g></g></g></g><g
           id="g464"
           transform="translate(130.2793,86.0977)"
           style="fill:#ea8c33;fill-opacity:1"><path
             d="m 0,0 h 1.499 c 0.509,0 0.933,0.43 0.97,0.986 L 10.72,124.874 H 4.523 L -0.972,1.114 C -0.999,0.508 -0.556,0 0,0"
             style="fill:#ea8c33;fill-opacity:1;fill-rule:nonzero;stroke:none"
             id="path466" /></g><g
           id="g468"><g
             id="g470" /><g
             id="g482"><g
               clip-path="url(#clipPath474)"
               opacity="0.300003"
               id="g480"><g
                 transform="translate(130.2793,86.0977)"
                 id="g478"><path
                   d="m 0,0 h 1.499 c 0.509,0 0.933,0.43 0.97,0.986 L 10.72,124.874 H 4.523 L -0.972,1.114 C -0.999,0.508 -0.556,0 0,0"
                   style="fill:#ffffff;fill-opacity:1;fill-rule:nonzero;stroke:none"
                   id="path476" /></g></g></g></g><g
           id="g484"
           transform="translate(339.9263,86.0977)"
           style="fill:#ea8c33;fill-opacity:1"><path
             d="m 0,0 h -1.498 c -0.51,0 -0.934,0.43 -0.971,0.986 l -8.251,123.888 h 6.198 L 0.972,1.114 C 0.999,0.508 0.556,0 0,0"
             style="fill:#ea8c33;fill-opacity:1;fill-rule:nonzero;stroke:none"
             id="path486" /></g><g
           id="g488"
           transform="translate(6.8086967,174.51097)"><g
             id="g490" /><g
             id="g502"
             transform="translate(-6.8086967,-174.51097)"><g
               clip-path="url(#clipPath494)"
               opacity="0.300003"
               id="g500"><g
                 transform="translate(339.9263,86.0977)"
                 id="g498"><path
                   d="m 0,0 h -1.498 c -0.51,0 -0.934,0.43 -0.971,0.986 l -8.251,123.888 h 6.198 L 0.972,1.114 C 0.999,0.508 0.556,0 0,0"
                   style="fill:#ffffff;fill-opacity:1;fill-rule:nonzero;stroke:none"
                   id="path496" /></g></g></g></g><g
           id="g504"
           transform="translate(356.9302,86.0977)"
           style="fill:#ea8c33;fill-opacity:1"><path
             d="m 0,0 h -1.498 c -0.51,0 -0.934,0.43 -0.971,0.986 l -8.251,123.888 h 6.198 L 0.972,1.114 C 0.999,0.508 0.556,0 0,0"
             style="fill:#ea8c33;fill-opacity:1;fill-rule:nonzero;stroke:none"
             id="path506" /></g><g
           id="g508"><g
             id="g510" /><g
             id="g522"><g
               clip-path="url(#clipPath514)"
               opacity="0.300003"
               id="g520"><g
                 transform="translate(356.9302,86.0977)"
                 id="g518"><path
                   d="m 0,0 h -1.498 c -0.51,0 -0.934,0.43 -0.971,0.986 l -8.251,123.888 h 6.198 L 0.972,1.114 C 0.999,0.508 0.556,0 0,0"
                   style="fill:#ffffff;fill-opacity:1;fill-rule:nonzero;stroke:none"
                   id="path516" /></g></g></g></g><path
           d="M 364.081,213.519 H 122.779 v -2.547 h 241.302 z"
           style="fill:#ea8c33;fill-opacity:1;fill-rule:nonzero;stroke:none"
           id="path524" /></g></g><g
       id="g526"
       transform="translate(215.65394,18.973174)"><g
         id="g528"
         clip-path="url(#clipPath532)"
         transform="translate(-215.16694,-18.074874)"><g
           id="g534"
           transform="translate(118.7583,252.9814)"><path
             d="m 0,0 -2.278,-16.77 c -0.719,-5.584 -1.471,-11.181 -2.009,-16.679 -0.075,-0.692 -0.125,-1.366 -0.181,-2.045 l -0.084,-1.019 c 0.008,0.075 0.002,0.345 -0.035,0.5 -0.016,0.162 -0.066,0.338 -0.116,0.476 -0.033,0.122 -0.103,0.261 -0.15,0.35 -0.035,0.081 -0.099,0.171 -0.139,0.226 -0.176,0.228 -0.195,0.196 -0.149,0.148 0.04,-0.056 0.181,-0.166 0.341,-0.285 0.336,-0.243 0.808,-0.516 1.324,-0.774 2.122,-1.038 4.746,-1.923 7.343,-2.726 5.247,-1.591 10.752,-2.969 16.19,-4.31 l -0.615,-4.777 c -5.819,0.206 -11.532,0.747 -17.341,1.795 -2.915,0.555 -5.801,1.161 -8.912,2.353 -0.786,0.309 -1.593,0.661 -2.47,1.158 -0.443,0.257 -0.894,0.544 -1.396,0.947 -0.494,0.408 -1.032,0.876 -1.595,1.703 -0.28,0.416 -0.549,0.918 -0.756,1.529 -0.102,0.307 -0.18,0.66 -0.238,0.995 -0.046,0.331 -0.063,0.779 -0.058,1.031 l 0.025,1.111 c 0.017,0.739 0.029,1.484 0.065,2.209 0.237,5.842 0.761,11.543 1.385,17.245 0.609,5.701 1.336,11.349 2.231,17.027 z"
             style="fill:#913c38;fill-opacity:1;fill-rule:nonzero;stroke:none"
             id="path536" /></g><g
           id="g538"
           transform="translate(151.4072,205.0312)"><path
             d="m 0,0 -3.667,-3.352 c -0.855,-0.781 -2.101,-0.964 -3.145,-0.461 l -4.054,1.951 c 0,0 -6.01,0.249 -6.867,3.92 l 1.554,2.853 9.31,1.034 c 0.957,0.107 1.922,-0.108 2.744,-0.609 L -0.288,2.992 C 0.78,2.34 0.925,0.845 0,0"
             style="fill:#913c38;fill-opacity:1;fill-rule:nonzero;stroke:none"
             id="path540" /></g><g
           id="g542"
           transform="translate(129.4497,287.4355)"><path
             d="m 0,0 c 0.951,-5.751 1.758,-16.263 -2.356,-19.959 0,0 10.042,-5.258 16.627,-14.436 7.043,5.581 1.146,13.907 1.146,13.907 -6.332,1.713 -6.027,6.438 -4.784,10.848 z"
             style="fill:#913c38;fill-opacity:1;fill-rule:nonzero;stroke:none"
             id="path544" /></g><g
           id="g546"
           transform="translate(148.2432,263.4102)"><path
             d="m 0,0 c 0,0 -0.53,4.877 -3.192,7.288 -2.236,2.025 -13.971,0.9 -17.667,0.488 -0.696,-0.077 -1.297,-0.508 -1.599,-1.139 l -2.681,-5.601 z"
             style="fill:#007cff;fill-opacity:1;fill-rule:nonzero;stroke:none"
             id="path548" /></g><g
           id="g550"><g
             id="g552" /><g
             id="g564"><g
               clip-path="url(#clipPath556)"
               opacity="0.800003"
               id="g562"><g
                 transform="translate(148.2432,263.4102)"
                 id="g560"><path
                   d="m 0,0 c 0,0 -0.53,4.877 -3.192,7.288 -2.236,2.025 -13.971,0.9 -17.667,0.488 -0.696,-0.077 -1.297,-0.508 -1.599,-1.139 l -2.681,-5.601 z"
                   style="fill:#ffffff;fill-opacity:1;fill-rule:nonzero;stroke:none"
                   id="path558" /></g></g></g></g><g
           id="g566"
           transform="translate(115.7305,265.9785)"
           style="fill:#ea8c33;fill-opacity:1"><path
             d="M 0,0 C -7.241,-2.356 -8.797,-12.064 -8.146,-19.621 L 6.469,-28.61 c 0,0 3.549,11.033 3.519,16.924 C 9.957,-5.415 4.917,1.6 0,0"
             style="fill:#ea8c33;fill-opacity:1;fill-rule:nonzero;stroke:none"
             id="path568" /></g><g
           id="g570"
           transform="translate(118.5596,239.5703)"><path
             d="M 0,0 C -0.35,0 -0.7,0.14 -0.96,0.39 -1.02,0.46 -1.08,0.53 -1.12,0.6 -1.17,0.67 -1.22,0.75 -1.25,0.84 -1.279,0.92 -1.31,1 -1.33,1.09 c -0.02,0.09 -0.029,0.17 -0.029,0.26 0,0.36 0.149,0.71 0.399,0.96 0.51,0.51 1.42,0.51 1.92,0 C 1.21,2.06 1.36,1.71 1.36,1.35 1.36,1.26 1.351,1.18 1.33,1.09 1.311,1 1.29,0.92 1.25,0.84 1.221,0.75 1.181,0.67 1.13,0.6 1.08,0.53 1.021,0.46 0.96,0.39 0.71,0.14 0.36,0 0,0"
             style="fill:#ffffff;fill-opacity:1;fill-rule:nonzero;stroke:none"
             id="path572" /></g><g
           id="g574"
           transform="translate(115.75,240.4902)"><path
             d="M 0,0 H 0.01 C -0.51,0.2 -0.84,0.69 -0.86,1.22 -1.25,0.87 -1.82,0.76 -2.33,1 -2.83,1.23 -3.13,1.74 -3.12,2.26 -3.53,1.93 -4.11,1.86 -4.601,2.13 -5.09,2.39 -5.351,2.91 -5.311,3.43 -5.74,3.13 -6.32,3.09 -6.8,3.38 -7.44,3.76 -7.641,4.6 -7.26,5.24 -6.87,5.88 -6.03,6.09 -5.391,5.7 -4.94,5.42 -4.71,4.92 -4.74,4.43 -4.34,4.72 -3.79,4.77 -3.32,4.52 -2.86,4.27 -2.59,3.79 -2.601,3.29 -2.22,3.6 -1.67,3.68 -1.19,3.46 -0.71,3.24 -0.42,2.77 -0.4,2.28 -0.03,2.6 0.5,2.72 1,2.53 1.689,2.25 2.04,1.46 1.76,0.77 1.55,0.23 1.04,-0.09 0.5,-0.09 0.33,-0.09 0.17,-0.06 0,0"
             style="fill:#ffffff;fill-opacity:1;fill-rule:nonzero;stroke:none"
             id="path576" /></g><g
           id="g578"
           transform="translate(107.5898,245)"><path
             d="M 0,0 C -0.09,0 -0.18,0.01 -0.271,0.03 -0.36,0.05 -0.44,0.07 -0.521,0.11 -0.61,0.141 -0.69,0.181 -0.76,0.23 -0.83,0.28 -0.9,0.34 -0.96,0.4 -1.03,0.46 -1.08,0.53 -1.13,0.601 -1.18,0.681 -1.22,0.76 -1.26,0.84 c -0.03,0.08 -0.06,0.17 -0.08,0.25 -0.01,0.091 -0.02,0.181 -0.02,0.27 0,0.09 0.01,0.18 0.02,0.26 0.02,0.09 0.05,0.17 0.08,0.26 0.03,0.08 0.08,0.16 0.13,0.23 0.05,0.071 0.1,0.14 0.17,0.21 0.06,0.06 0.13,0.12 0.2,0.17 0.07,0.04 0.15,0.09 0.239,0.12 0.081,0.031 0.161,0.06 0.25,0.08 C 0.17,2.771 0.64,2.63 0.95,2.32 1.02,2.25 1.07,2.181 1.12,2.11 1.17,2.04 1.21,1.96 1.25,1.88 1.28,1.79 1.31,1.71 1.32,1.62 1.34,1.54 1.35,1.45 1.35,1.36 1.35,1.271 1.34,1.181 1.32,1.09 1.31,1.01 1.28,0.92 1.25,0.84 1.21,0.76 1.17,0.681 1.12,0.601 1.07,0.53 1.02,0.46 0.95,0.4 0.7,0.15 0.35,0 0,0"
             style="fill:#ffffff;fill-opacity:1;fill-rule:nonzero;stroke:none"
             id="path580" /></g><g
           id="g582"
           transform="translate(161.7681,251.8691)"
           style="fill:#ea8c33;fill-opacity:1"><path
             d="m 0,0 c -0.612,-8.316 -2.462,-22.324 -7.021,-45.902 l -39.139,1.164 c 1.026,14.447 -0.524,25.22 -4.065,50.507 -0.646,4.615 2.673,8.835 7.308,9.312 2.514,0.26 5.368,0.474 8.242,0.526 6.596,0.122 11.999,0.171 17.773,-0.529 1.907,-0.231 3.877,-0.532 5.758,-0.853 C -4.317,13.061 0.508,6.907 0,0"
             style="fill:#ea8c33;fill-opacity:1;fill-rule:nonzero;stroke:none"
             id="path584" /></g><g
           id="g586"
           transform="translate(149.7002,298.0244)"><path
             d="M 0,0 C 0.093,-0.772 0.577,-1.35 1.082,-1.289 1.586,-1.229 1.92,-0.554 1.828,0.219 1.735,0.991 1.251,1.567 0.747,1.507 0.242,1.446 -0.092,0.771 0,0"
             style="fill:#1a2e35;fill-opacity:1;fill-rule:nonzero;stroke:none"
             id="path588" /></g><g
           id="g590"
           transform="translate(150.229,299.4619)"><path
             d="M 0,0 1.791,0.757 C 1.791,0.757 1.013,-0.806 0,0"
             style="fill:#1a2e35;fill-opacity:1;fill-rule:nonzero;stroke:none"
             id="path592" /></g><g
           id="g594"
           transform="translate(149.9668,296.8262)"><path
             d="M 0,0 C 0,0 1.708,-3.167 3.343,-4.598 2.438,-5.671 0.652,-5.444 0.652,-5.444 Z"
             style="fill:#740606;fill-opacity:1;fill-rule:nonzero;stroke:none"
             id="path596" /></g><g
           id="g598"
           transform="translate(149.7944,304.7939)"><path
             d="m 0,0 c 0.087,0.13 0.105,0.3 0.034,0.451 -0.109,0.229 -0.381,0.325 -0.609,0.217 -2.281,-1.083 -2.589,-3.17 -2.601,-3.258 -0.033,-0.25 0.142,-0.479 0.391,-0.514 0.249,-0.034 0.479,0.14 0.514,0.39 0.01,0.068 0.266,1.692 2.088,2.557 C -0.106,-0.121 -0.044,-0.065 0,0"
             style="fill:#1a2e35;fill-opacity:1;fill-rule:nonzero;stroke:none"
             id="path600" /></g><g
           id="g602"
           transform="translate(123.0649,298.1992)"><path
             d="m 0,0 c 1.719,-9.413 2.245,-13.434 7.618,-17.727 8.082,-6.458 19.267,-2.288 20.396,7.449 1.015,8.764 -1.966,22.685 -11.701,25.346 C 6.723,17.69 -1.719,9.413 0,0"
             style="fill:#913c38;fill-opacity:1;fill-rule:nonzero;stroke:none"
             id="path604" /></g><g
           id="g606"
           transform="translate(143.7954,295.5645)"><path
             d="m 0,0 c 1.587,-5.172 5.368,-17.678 -2.985,-20.462 -6.534,-2.178 -26.992,-3.92 -29.348,8.067 -2.435,12.395 8.616,21.216 8.616,21.216 0,0 -8.755,7.182 -3.146,15.004 7.231,10.084 24.543,4.382 29.682,-2.742 C 7.814,14.157 0,0 0,0"
             style="fill:#1a2e35;fill-opacity:1;fill-rule:nonzero;stroke:none"
             id="path608" /></g><g
           id="g610"
           transform="translate(127.9609,273.3828)"><path
             d="m 0,0 c -3.35,0 -7.505,0.684 -10.927,2.156 -4.646,2.001 -7.358,5.093 -7.842,8.942 -1.641,13.071 10.522,20.254 10.645,20.324 l 0.484,-0.838 c -0.117,-0.068 -11.729,-6.94 -10.168,-19.365 0.554,-4.408 4.256,-6.878 7.264,-8.173 C -4.605,0.489 3.065,0.503 4.927,1.868 L 5.499,1.087 C 4.53,0.377 2.487,0 0,0"
             style="fill:#1a2e35;fill-opacity:1;fill-rule:nonzero;stroke:none"
             id="path612" /></g><g
           id="g614"
           transform="translate(116.3135,306.2617)"
           style="fill:#ea8c33;fill-opacity:1"><path
             d="m 0,0 c -0.11,-1.672 -1.497,-3.969 4.3,-4.832 5.797,-0.864 13.851,-0.782 15.503,0.612 1.653,1.395 3.282,4.729 -0.175,4.431 C 16.172,-0.088 0.188,2.858 0,0"
             style="fill:#ea8c33;fill-opacity:1;fill-rule:nonzero;stroke:none"
             id="path616" /></g><g
           id="g618"
           transform="translate(140.6323,294.0889)"><path
             d="m 0,0 c 0.991,-1.884 2.759,-3.134 4.437,-3.625 2.525,-0.739 3.82,1.511 3.146,3.91 C 6.976,2.445 4.931,5.433 2.384,5.12 -0.125,4.811 -1.133,2.153 0,0"
             style="fill:#913c38;fill-opacity:1;fill-rule:nonzero;stroke:none"
             id="path620" /></g><g
           id="g622"
           transform="translate(201.6411,96.4414)"><path
             d="M 0,0 9.28,0.176 4.787,23.341 -4.493,23.164 Z"
             style="fill:#913c38;fill-opacity:1;fill-rule:nonzero;stroke:none"
             id="path624" /></g><g
           id="g626"
           transform="translate(208.5996,106.5273)"><path
             d="m 0,0 c 2.455,-9.245 11.477,-19.032 11.477,-19.032 l -12.878,3.271 -5.628,7.997 0.986,2.118 z"
             style="fill:#913c38;fill-opacity:1;fill-rule:nonzero;stroke:none"
             id="path628" /></g><g
           id="g630"
           transform="translate(199.4551,102.2305)"><path
             d="m 0,0 c -0.04,-1.027 0.039,-2.197 0.187,-3.235 0.543,-3.825 2.23,-13.961 2.23,-13.961 l 0.875,-0.006 c 0,0 -0.828,6.824 -0.708,9.339 0.12,2.515 1.743,-1.932 3.703,-4.448 1.961,-2.515 5.488,-4.805 11.198,-4.984 6.685,-0.209 9.348,0.071 7.206,1.741 -2.142,1.669 -6.696,2.758 -6.696,2.758 0,0 -5.259,1.889 -9.018,7.541 C 6.539,-1.59 2.454,1.061 0.681,1.922 0.144,1.827 0.031,0.816 0,0"
             style="fill:#1a2e35;fill-opacity:1;fill-rule:nonzero;stroke:none"
             id="path632" /></g><g
           id="g634"
           transform="translate(234.5068,127.9092)"><path
             d="M 0,0 11.846,-0.366 -1.403,19.332 -9.606,12.321 Z"
             style="fill:#913c38;fill-opacity:1;fill-rule:nonzero;stroke:none"
             id="path636" /></g><g
           id="g638"
           transform="translate(237.3198,136.2734)"><path
             d="m 0,0 c 8.606,-4.009 22.392,-3.22 22.392,-3.22 l -11.205,-8.99 -9.609,0.712 -1.015,2.135 z"
             style="fill:#913c38;fill-opacity:1;fill-rule:nonzero;stroke:none"
             id="path640" /></g><g
           id="g642"
           transform="translate(235.4985,126.0586)"><path
             d="m 0,0 c 0.729,-0.733 1.637,-1.473 2.491,-2.066 3.143,-2.189 11.628,-7.798 11.628,-7.798 l 0.544,0.684 c 0,0 -5.522,4.018 -7.295,5.833 -1.772,1.815 2.495,0.049 5.553,-0.131 3.057,-0.178 6.917,1.03 10.574,5.399 4.281,5.114 5.72,7.401 3.172,6.859 -2.548,-0.544 -6.16,-3.381 -6.16,-3.381 0,0 -4.635,-2.843 -11.106,-1.934 C 5.205,4.055 0.736,2.656 -0.992,1.851 -1.253,1.363 -0.58,0.583 0,0"
             style="fill:#1a2e35;fill-opacity:1;fill-rule:nonzero;stroke:none"
             id="path644" /></g><g
           id="g646"
           transform="translate(141.0977,206.6494)"><path
             d="M 0,0 C 0,0 63.365,9.373 69.925,-6.869 81.338,-35.13 97.457,-67.511 97.457,-67.511 l -7.783,-6.437 c 0,0 -27.628,25.574 -37.456,53.967 -11.739,-3.799 -49.089,-16.021 -62.769,-16.021 -14.61,0 -20.577,12.457 -15.301,33.143 0.471,1.843 2.151,3.121 4.054,3.112 C -12.599,0.207 0,0 0,0"
             style="fill:#1a2e35;fill-opacity:1;fill-rule:nonzero;stroke:none"
             id="path648" /></g><g
           id="g650"
           transform="translate(147.1724,198.3975)"><path
             d="m 0,0 c 0,0 52.005,1.566 52.444,-16.858 0.726,-30.469 9.313,-74.129 9.313,-74.129 l -9.486,-0.883 c 0,0 -15.51,34.729 -19.613,64.493 -18.525,-1.202 -35.604,-0.373 -49.283,-0.373 -15.332,0 -16.598,16.837 -1.676,36.482 C -9.179,8.732 0,0 0,0"
             style="fill:#1a2e35;fill-opacity:1;fill-rule:nonzero;stroke:none"
             id="path652" /></g><g
           id="g654"
           transform="translate(115.0903,209.4453)"><path
             d="m 0,0 -1.105,-3.474 c -0.145,-0.267 0.168,-0.554 0.621,-0.568 l 40.282,-1.197 c 0.353,-0.011 0.651,0.153 0.68,0.374 l 0.457,3.493 c 0.031,0.242 -0.268,0.457 -0.654,0.468 L 0.646,0.274 C 0.354,0.283 0.093,0.172 0,0"
             style="fill:#ffffff;fill-opacity:1;fill-rule:nonzero;stroke:none"
             id="path656" /></g><g
           id="g658"
           transform="translate(120.2813,204.8555)"><path
             d="m 0,0 -1.062,0.031 c -0.211,0.006 -0.369,0.12 -0.35,0.253 l 0.633,4.537 c 0.019,0.133 0.207,0.237 0.418,0.23 L 0.701,5.02 C 0.912,5.013 1.07,4.899 1.051,4.767 L 0.418,0.229 C 0.399,0.097 0.211,-0.007 0,0"
             style="fill:#1a2e35;fill-opacity:1;fill-rule:nonzero;stroke:none"
             id="path660" /></g><g
           id="g662"
           transform="translate(151.894,203.915)"><path
             d="m 0,0 -1.062,0.031 c -0.211,0.007 -0.369,0.12 -0.35,0.253 l 0.633,4.537 c 0.019,0.133 0.207,0.237 0.418,0.23 L 0.701,5.02 C 0.912,5.014 1.07,4.899 1.051,4.767 L 0.418,0.229 C 0.4,0.097 0.211,-0.007 0,0"
             style="fill:#1a2e35;fill-opacity:1;fill-rule:nonzero;stroke:none"
             id="path664" /></g><g
           id="g666"
           transform="translate(136.0879,204.3848)"><path
             d="m 0,0 -1.062,0.032 c -0.211,0.006 -0.369,0.119 -0.35,0.252 l 0.633,4.537 c 0.018,0.133 0.207,0.237 0.418,0.231 L 0.701,5.021 C 0.912,5.014 1.07,4.9 1.051,4.768 L 0.418,0.23 C 0.399,0.098 0.211,-0.006 0,0"
             style="fill:#1a2e35;fill-opacity:1;fill-rule:nonzero;stroke:none"
             id="path668" /></g><g
           id="g670"
           transform="translate(184.3252,248.3916)"
           style="fill:#ea8c33;fill-opacity:1"><path
             d="m 0,0 h 25.299 c 0.808,0 1.39,-0.776 1.164,-1.552 l -9.454,-32.447 c -0.151,-0.518 -0.625,-0.874 -1.163,-0.874 h -25.3 c -0.807,0 -1.389,0.776 -1.163,1.552 l 9.453,32.448 C -1.013,-0.356 -0.539,0 0,0"
             style="fill:#ea8c33;fill-opacity:1;fill-rule:nonzero;stroke:none"
             id="path672" /></g><g
           id="g674"
           transform="translate(184.792,247.2002)"><path
             d="m 0,0 24.588,-0.584 -9.709,-30.603 -24.588,0.583 z"
             style="fill:#e1e1e1;fill-opacity:1;fill-rule:nonzero;stroke:none"
             id="path676" /></g><g
           id="g678"
           transform="translate(184.019,247.501)"><path
             d="M 0,0 24.595,-0.102 15.486,-30.89 -9.109,-30.788 Z"
             style="fill:#ffffff;fill-opacity:1;fill-rule:nonzero;stroke:none"
             id="path680" /></g><g
           id="g682"
           transform="translate(161.8433,246.8643)"><path
             d="m 0,0 c 0.049,-0.976 0.142,-2.188 0.231,-3.296 0.099,-1.133 0.223,-2.267 0.373,-3.395 0.28,-2.259 0.655,-4.495 1.119,-6.679 0.481,-2.177 1.047,-4.312 1.785,-6.306 0.368,-0.999 0.774,-1.965 1.22,-2.875 0.216,-0.466 0.461,-0.896 0.703,-1.328 l 0.366,-0.615 c -0.031,0.041 -0.074,0.044 -0.04,0.008 0.069,-0.157 0.775,-0.61 1.593,-0.933 0.838,-0.339 1.839,-0.625 2.881,-0.861 2.097,-0.483 4.379,-0.796 6.687,-1.033 4.619,-0.45 9.444,-0.674 14.171,-0.771 l 0.478,-4.793 c -4.937,-0.952 -9.828,-1.553 -14.908,-1.685 -2.539,-0.057 -5.108,-0.011 -7.796,0.32 -1.347,0.179 -2.722,0.418 -4.187,0.846 -1.463,0.462 -3.042,0.991 -4.783,2.469 -0.426,0.362 -0.861,0.832 -1.256,1.357 l -0.643,0.899 c -0.403,0.595 -0.803,1.194 -1.15,1.803 -0.729,1.212 -1.345,2.452 -1.887,3.701 -1.102,2.497 -1.93,5.025 -2.582,7.563 -0.662,2.538 -1.139,5.084 -1.489,7.636 -0.166,1.278 -0.303,2.556 -0.412,3.84 -0.114,1.31 -0.181,2.519 -0.196,3.969 z"
             style="fill:#913c38;fill-opacity:1;fill-rule:nonzero;stroke:none"
             id="path684" /></g><g
           id="g686"
           transform="translate(158.5527,261.6113)"
           style="fill:#ea8c33;fill-opacity:1"><path
             d="m 0,0 c 6.297,-5.929 4.78,-21.381 4.78,-21.381 l -12.066,-2.108 c 0,0 -7.449,11.078 -4.831,15.722 C -9.39,-2.93 -3.407,3.207 0,0"
             style="fill:#ea8c33;fill-opacity:1;fill-rule:nonzero;stroke:none"
             id="path688" /></g><g
           id="g690"
           transform="translate(163.3301,238.8701)"><path
             d="m 0,0 c -0.351,0 -0.71,0.15 -0.96,0.4 -0.061,0.06 -0.12,0.13 -0.17,0.21 -0.04,0.07 -0.091,0.15 -0.12,0.23 -0.03,0.08 -0.061,0.17 -0.08,0.261 -0.01,0.079 -0.021,0.17 -0.021,0.259 0,0.36 0.141,0.71 0.391,0.96 0.069,0.06 0.13,0.12 0.21,0.17 0.069,0.05 0.149,0.09 0.229,0.12 0.09,0.04 0.17,0.06 0.26,0.08 C 0.17,2.78 0.64,2.63 0.96,2.32 1.21,2.07 1.359,1.72 1.359,1.36 1.359,1.271 1.35,1.18 1.33,1.101 1.31,1.01 1.29,0.92 1.25,0.84 1.22,0.76 1.18,0.68 1.13,0.61 1.08,0.53 1.02,0.46 0.96,0.4 0.71,0.15 0.359,0 0,0"
             style="fill:#ffffff;fill-opacity:1;fill-rule:nonzero;stroke:none"
             id="path692" /></g><g
           id="g694"
           transform="translate(152.3701,238.1504)"><path
             d="M 0,0 C -0.061,0.75 0.489,1.41 1.239,1.47 1.76,1.52 2.25,1.26 2.51,0.83 2.67,1.3 3.08,1.67 3.6,1.75 4.12,1.82 4.62,1.59 4.91,1.18 5.04,1.66 5.43,2.05 5.939,2.149 6.46,2.26 6.97,2.05 7.279,1.66 7.38,2.149 7.75,2.56 8.26,2.7 V 2.689 C 8.989,2.89 9.729,2.45 9.92,1.729 10.109,1.01 9.68,0.26 8.949,0.07 8.42,-0.07 7.87,0.13 7.54,0.54 7.43,0.03 7.029,-0.391 6.479,-0.51 5.939,-0.61 5.399,-0.38 5.1,0.05 4.96,-0.46 4.54,-0.86 3.989,-0.94 3.439,-1.021 2.91,-0.75 2.64,-0.311 2.47,-0.8 2.029,-1.18 1.47,-1.23 H 1.359 C 0.66,-1.23 0.069,-0.7 0,0"
             style="fill:#ffffff;fill-opacity:1;fill-rule:nonzero;stroke:none"
             id="path696" /></g><g
           id="g698"
           transform="translate(151.2695,236.7598)"><path
             d="m 0,0 c -0.09,0 -0.18,0.011 -0.27,0.03 -0.089,0.021 -0.169,0.05 -0.25,0.08 -0.089,0.031 -0.16,0.08 -0.24,0.12 -0.07,0.05 -0.139,0.111 -0.2,0.17 -0.069,0.061 -0.12,0.13 -0.17,0.21 -0.05,0.071 -0.09,0.151 -0.13,0.231 -0.03,0.09 -0.059,0.17 -0.07,0.26 -0.02,0.08 -0.029,0.17 -0.029,0.259 0,0.09 0.009,0.18 0.029,0.271 0.011,0.08 0.04,0.17 0.07,0.25 0.04,0.08 0.08,0.159 0.13,0.239 0.05,0.07 0.101,0.141 0.17,0.2 0.061,0.061 0.13,0.12 0.2,0.17 0.08,0.05 0.151,0.09 0.24,0.12 0.081,0.04 0.161,0.061 0.25,0.08 C 0.17,2.78 0.641,2.641 0.95,2.32 1.021,2.261 1.07,2.19 1.12,2.12 1.17,2.04 1.21,1.961 1.25,1.881 1.28,1.801 1.311,1.711 1.33,1.631 1.34,1.54 1.351,1.45 1.351,1.36 1.351,1.271 1.34,1.181 1.33,1.101 1.311,1.011 1.28,0.931 1.25,0.841 1.21,0.761 1.17,0.681 1.12,0.61 1.07,0.54 1.021,0.461 0.95,0.4 0.7,0.15 0.351,0 0,0"
             style="fill:#ffffff;fill-opacity:1;fill-rule:nonzero;stroke:none"
             id="path700" /></g><g
           id="g702"
           transform="translate(204.2002,223.7812)"><path
             d="m 0,0 -4.175,0.282 c -1.042,0.071 -2.077,-0.208 -2.944,-0.79 l -7.672,-5.153 -0.058,-3.248 c 2.458,-2.859 7.902,-0.299 7.902,-0.299 l 5.049,0.162 c 0.824,0.026 1.55,0.552 1.833,1.327 l 1.827,5.012 C 2.223,-1.442 1.342,-0.09 0,0"
             style="fill:#913c38;fill-opacity:1;fill-rule:nonzero;stroke:none"
             id="path704" /></g><g
           id="g706"
           transform="translate(117.5879,81.5938)"
           style="fill:#ea8c33;fill-opacity:1"><path
             d="M 0,0 H 1.133 C 1.575,0 1.954,0.388 2.03,0.919 L 8.99,49.358 H 3.705 L -0.904,1.24 C -0.967,0.58 -0.544,0 0,0"
             style="fill:#ea8c33;fill-opacity:1;fill-rule:nonzero;stroke:none"
             id="path708" /></g><g
           id="g710"><g
             id="g712" /><g
             id="g724"><g
               clip-path="url(#clipPath716)"
               opacity="0.300003"
               id="g722"><g
                 transform="translate(117.5879,81.5938)"
                 id="g720"><path
                   d="M 0,0 H 1.133 C 1.575,0 1.954,0.388 2.03,0.919 L 8.99,49.358 H 3.705 L -0.904,1.24 C -0.967,0.58 -0.544,0 0,0"
                   style="fill:#000000;fill-opacity:1;fill-rule:nonzero;stroke:none"
                   id="path718" /></g></g></g></g><g
           id="g726"
           transform="translate(103.0874,81.5938)"
           style="fill:#ea8c33;fill-opacity:1"><path
             d="m 0,0 h 1.133 c 0.442,0 0.82,0.388 0.896,0.919 L 8.99,49.358 H 3.705 L -0.904,1.24 C -0.968,0.58 -0.545,0 0,0"
             style="fill:#ea8c33;fill-opacity:1;fill-rule:nonzero;stroke:none"
             id="path728" /></g><g
           id="g730"><g
             id="g732" /><g
             id="g744"><g
               clip-path="url(#clipPath736)"
               opacity="0.300003"
               id="g742"><g
                 transform="translate(103.0874,81.5938)"
                 id="g740"><path
                   d="m 0,0 h 1.133 c 0.442,0 0.82,0.388 0.896,0.919 L 8.99,49.358 H 3.705 L -0.904,1.24 C -0.968,0.58 -0.545,0 0,0"
                   style="fill:#000000;fill-opacity:1;fill-rule:nonzero;stroke:none"
                   id="path738" /></g></g></g></g><g
           id="g746"
           transform="translate(183.8853,81.5938)"
           style="fill:#ea8c33;fill-opacity:1"><path
             d="M 0,0 H -1.132 C -1.575,0 -1.953,0.388 -2.03,0.919 l -6.96,48.439 h 5.285 L 0.904,1.24 C 0.968,0.58 0.545,0 0,0"
             style="fill:#ea8c33;fill-opacity:1;fill-rule:nonzero;stroke:none"
             id="path748" /></g><g
           id="g750"><g
             id="g752" /><g
             id="g764"><g
               clip-path="url(#clipPath756)"
               opacity="0.300003"
               id="g762"><g
                 transform="translate(183.8853,81.5938)"
                 id="g760"><path
                   d="M 0,0 H -1.132 C -1.575,0 -1.953,0.388 -2.03,0.919 l -6.96,48.439 h 5.285 L 0.904,1.24 C 0.968,0.58 0.545,0 0,0"
                   style="fill:#000000;fill-opacity:1;fill-rule:nonzero;stroke:none"
                   id="path758" /></g></g></g></g><g
           id="g766"
           transform="translate(198.3862,81.5938)"
           style="fill:#ea8c33;fill-opacity:1"><path
             d="m 0,0 h -1.133 c -0.442,0 -0.82,0.388 -0.897,0.919 l -6.96,48.439 h 5.285 L 0.904,1.24 C 0.967,0.58 0.544,0 0,0"
             style="fill:#ea8c33;fill-opacity:1;fill-rule:nonzero;stroke:none"
             id="path768" /></g><g
           id="g770"
           transform="translate(78.333019,60.612113)"><g
             id="g772" /><g
             id="g784"
             transform="translate(-78.333019,-60.612113)"><g
               clip-path="url(#clipPath776)"
               opacity="0.300003"
               id="g782"><g
                 transform="translate(198.3862,81.5938)"
                 id="g780"><path
                   d="m 0,0 h -1.133 c -0.442,0 -0.82,0.388 -0.897,0.919 l -6.96,48.439 h 5.285 L 0.904,1.24 C 0.967,0.58 0.544,0 0,0"
                   style="fill:#000000;fill-opacity:1;fill-rule:nonzero;stroke:none"
                   id="path778" /></g></g></g></g><g
           id="g786"
           transform="translate(217.1787,188.3721)"
           style="fill:#ea8c33;fill-opacity:1"><path
             d="m 0,0 h -35.6 c -6.316,21.934 -29.043,39.238 -52.317,39.238 h -0.002 -11.56 c -24.362,0 -40.084,-18.956 -35.117,-42.339 0.912,-4.293 2.464,-8.434 4.531,-12.338 l 5.614,-34.029 c 0.724,-4.391 4.228,-7.952 7.826,-7.952 H -9.473 c 3.598,0 7.101,3.561 7.826,7.952 l 6.85,41.516 C 5.927,-3.561 3.598,0 0,0"
             style="fill:#ea8c33;fill-opacity:1;fill-rule:nonzero;stroke:none"
             id="path788" /></g><g
           id="g790"
           transform="translate(166.15296,113.26514)"><g
             id="g792" /><g
             id="g804"
             transform="translate(-166.15296,-113.26514)"><g
               clip-path="url(#clipPath796)"
               opacity="0.5"
               id="g802"><g
                 transform="translate(217.1787,188.3721)"
                 id="g800"><path
                   d="m 0,0 h -35.6 c -6.316,21.934 -29.043,39.238 -52.317,39.238 h -0.002 -11.56 c -24.362,0 -40.084,-18.956 -35.117,-42.339 0.912,-4.293 2.464,-8.434 4.531,-12.338 l 5.614,-34.029 c 0.724,-4.391 4.228,-7.952 7.826,-7.952 H -9.473 c 3.598,0 7.101,3.561 7.826,7.952 l 6.85,41.516 C 5.927,-3.561 3.598,0 0,0"
                   style="fill:#ffffff;fill-opacity:1;fill-rule:nonzero;stroke:none"
                   id="path798" /></g></g></g></g></g></g><path
       d="m 204.365,346.854 h 8.168 v 1 h -8.168 z"
       style="fill:#ea8c33;fill-opacity:1;fill-rule:nonzero;stroke:none"
       id="path806" /><g
       id="g808"><g
         id="g810"
         clip-path="url(#clipPath814)"><g
           id="g816"
           transform="translate(174.3223,336.0693)"
           style="fill:#ea8c33;fill-opacity:1"><path
             d="m 0,0 h -1 v 4.92 c 0,3.785 3.08,6.864 6.865,6.864 h 18.231 v -1 H 5.865 C 2.631,10.784 0,8.153 0,4.92 Z"
             style="fill:#ea8c33;fill-opacity:1;fill-rule:nonzero;stroke:none"
             id="path818" /></g><g
           id="g820"
           transform="translate(271.3604,301.8701)"
           style="fill:#ea8c33;fill-opacity:1"><path
             d="m 0,0 h -91.173 c -1.858,0 -3.365,1.507 -3.365,3.365 v 35.754 c 0,1.859 1.507,3.364 3.365,3.364 H 0 c 1.859,0 3.365,-1.505 3.365,-3.364 V 3.365 C 3.365,1.507 1.859,0 0,0"
             style="fill:#ea8c33;fill-opacity:1;fill-rule:nonzero;stroke:none"
             id="path822" /></g><g
           id="g824"
           transform="translate(267.0493,320.8516)"><path
             d="m 0,0 h -82.55 c -1.249,0 -2.262,1.012 -2.262,2.261 0,1.248 1.013,2.26 2.262,2.26 H 0 c 1.249,0 2.261,-1.012 2.261,-2.26 C 2.261,1.012 1.249,0 0,0"
             style="fill:#ffffff;fill-opacity:1;fill-rule:nonzero;stroke:none"
             id="path826" /></g><g
           id="g828"
           transform="translate(249.3828,311.4619)"><path
             d="m 0,0 h -64.884 c -1.249,0 -2.261,1.012 -2.261,2.261 0,1.248 1.012,2.26 2.261,2.26 H 0 c 1.249,0 2.261,-1.012 2.261,-2.26 C 2.261,1.012 1.249,0 0,0"
             style="fill:#ffffff;fill-opacity:1;fill-rule:nonzero;stroke:none"
             id="path830" /></g><g
           id="g832"
           transform="translate(212.3374,330.2412)"><path
             d="m 0,0 h -27.838 c -1.249,0 -2.262,1.012 -2.262,2.261 0,1.249 1.013,2.26 2.262,2.26 H 0 C 1.249,4.521 2.261,3.51 2.261,2.261 2.261,1.012 1.249,0 0,0"
             style="fill:#ffffff;fill-opacity:1;fill-rule:nonzero;stroke:none"
             id="path834" /></g><g
           id="g836"
           transform="translate(249.2393,330.2412)"><path
             d="m 0,0 h -27.838 c -1.249,0 -2.262,1.012 -2.262,2.261 0,1.249 1.013,2.26 2.262,2.26 H 0 C 1.249,4.521 2.261,3.51 2.261,2.261 2.261,1.012 1.249,0 0,0"
             style="fill:#ffffff;fill-opacity:1;fill-rule:nonzero;stroke:none"
             id="path838" /></g><g
           id="g840"
           transform="translate(182.2378,304.582)"
           style="fill:#ea8c33;fill-opacity:1"><path
             d="m 0,0 v -10.831 c 0,-2.085 2.396,-3.26 4.044,-1.984 l 16.6,12.848 z"
             style="fill:#ea8c33;fill-opacity:1;fill-rule:nonzero;stroke:none"
             id="path842" /></g><g
           id="g844"
           transform="translate(322.813,397.9971)"><path
             d="m 0,0 h -91.173 c -1.859,0 -3.365,-1.507 -3.365,-3.365 v -35.754 c 0,-1.859 1.506,-3.365 3.365,-3.365 h 72.025 l 13.054,-10.103 c 1.648,-1.276 4.043,-0.101 4.043,1.983 v 8.12 H 0 c 1.858,0 3.365,1.506 3.365,3.365 V -3.365 C 3.365,-1.507 1.858,0 0,0"
             style="fill:#ffffff;fill-opacity:1;fill-rule:nonzero;stroke:none"
             id="path846" /></g><g
           id="g848"
           transform="translate(231.6396,397.4971)"
           style="fill:#ea8c33;fill-opacity:1"><path
             d="m 0,0 c -1.58,0 -2.865,-1.285 -2.865,-2.865 v -35.754 c 0,-1.58 1.285,-2.865 2.865,-2.865 h 72.195 l 13.19,-10.207 c 0.619,-0.481 1.409,-0.563 2.114,-0.216 0.704,0.345 1.124,1.019 1.124,1.803 v 8.62 h 2.55 c 1.58,0 2.865,1.285 2.865,2.865 V -2.865 C 94.038,-1.285 92.753,0 91.173,0 Z m 86.61,-53.115 c -0.651,0 -1.297,0.214 -1.837,0.633 l -12.919,9.998 H 0 c -2.131,0 -3.865,1.734 -3.865,3.865 V -2.865 C -3.865,-0.734 -2.131,1 0,1 h 91.173 c 2.131,0 3.865,-1.734 3.865,-3.865 v -35.754 c 0,-2.131 -1.734,-3.865 -3.865,-3.865 h -1.55 v -7.62 c 0,-1.157 -0.645,-2.191 -1.684,-2.701 -0.424,-0.208 -0.877,-0.31 -1.329,-0.31"
             style="fill:#ea8c33;fill-opacity:1;fill-rule:nonzero;stroke:none"
             id="path850" /></g><g
           id="g852"
           transform="translate(275.2778,374.4941)"
           style="fill:#ea8c33;fill-opacity:1"><path
             d="m 0,0 h 43.224 c 1.248,0 2.26,1.012 2.26,2.261 0,1.249 -1.012,2.26 -2.26,2.26 H 0 C -1.249,4.521 -2.261,3.51 -2.261,2.261 -2.261,1.012 -1.249,0 0,0"
             style="fill:#ea8c33;fill-opacity:1;fill-rule:nonzero;stroke:none"
             id="path854" /></g><g
           id="g856"
           transform="translate(245.1011,374.4941)"
           style="fill:#ea8c33;fill-opacity:1"><path
             d="m 0,0 h 21.4 c 1.249,0 2.261,1.012 2.261,2.261 0,1.249 -1.012,2.26 -2.261,2.26 H 0 C -1.249,4.521 -2.261,3.51 -2.261,2.261 -2.261,1.012 -1.249,0 0,0"
             style="fill:#ea8c33;fill-opacity:1;fill-rule:nonzero;stroke:none"
             id="path858" /></g><g
           id="g860"
           transform="translate(253.6177,365.1045)"
           style="fill:#ea8c33;fill-opacity:1"><path
             d="m 0,0 h 64.884 c 1.248,0 2.261,1.012 2.261,2.261 0,1.249 -1.013,2.26 -2.261,2.26 H 0 C -1.249,4.521 -2.261,3.51 -2.261,2.261 -2.261,1.012 -1.249,0 0,0"
             style="fill:#ea8c33;fill-opacity:1;fill-rule:nonzero;stroke:none"
             id="path862" /></g><g
           id="g864"
           transform="translate(235.9512,383.8838)"
           style="fill:#ea8c33;fill-opacity:1"><path
             d="m 0,0 h 82.55 c 1.249,0 2.261,1.012 2.261,2.261 0,1.249 -1.012,2.26 -2.261,2.26 H 0 C -1.249,4.521 -2.261,3.51 -2.261,2.261 -2.261,1.012 -1.249,0 0,0"
             style="fill:#ea8c33;fill-opacity:1;fill-rule:nonzero;stroke:none"
             id="path866" /></g></g></g></g></svg>
