<svg width="456" height="257" viewBox="0 0 456 257" fill="none" xmlns="http://www.w3.org/2000/svg">
<rect width="456" height="257" fill="#EAEAEA"/>
<path d="M196.677 195V193.368H200.181V182.088H197.397V180.816C198.101 180.688 198.709 180.536 199.221 180.36C199.749 180.168 200.221 179.944 200.637 179.688H202.149V193.368H205.317V195H196.677ZM213.628 195.288C212.876 195.288 212.18 195.136 211.54 194.832C210.9 194.528 210.34 194.072 209.86 193.464C209.396 192.84 209.028 192.072 208.756 191.16C208.484 190.232 208.348 189.152 208.348 187.92C208.348 186.384 208.508 185.08 208.828 184.008C209.148 182.92 209.58 182.04 210.124 181.368C210.668 180.68 211.284 180.184 211.972 179.88C212.676 179.56 213.412 179.4 214.18 179.4C215.012 179.4 215.724 179.56 216.316 179.88C216.924 180.184 217.444 180.568 217.876 181.032L216.772 182.256C216.452 181.888 216.068 181.6 215.62 181.392C215.188 181.168 214.732 181.056 214.252 181.056C213.724 181.056 213.22 181.168 212.74 181.392C212.26 181.616 211.836 181.984 211.468 182.496C211.1 183.008 210.804 183.68 210.58 184.512C210.356 185.328 210.236 186.344 210.22 187.56C210.7 186.968 211.26 186.504 211.9 186.168C212.54 185.816 213.172 185.64 213.796 185.64C215.124 185.64 216.18 186.032 216.964 186.816C217.764 187.6 218.164 188.784 218.164 190.368C218.164 191.104 218.044 191.776 217.804 192.384C217.564 192.976 217.236 193.488 216.82 193.92C216.404 194.352 215.924 194.688 215.38 194.928C214.836 195.168 214.252 195.288 213.628 195.288ZM213.628 193.728C214.012 193.728 214.364 193.648 214.684 193.488C215.004 193.328 215.284 193.104 215.524 192.816C215.764 192.512 215.948 192.16 216.076 191.76C216.22 191.344 216.292 190.88 216.292 190.368C216.292 189.36 216.06 188.568 215.596 187.992C215.132 187.416 214.42 187.128 213.46 187.128C212.964 187.128 212.428 187.288 211.852 187.608C211.276 187.912 210.748 188.424 210.268 189.144C210.396 190.648 210.74 191.792 211.3 192.576C211.876 193.344 212.652 193.728 213.628 193.728ZM222.611 186.624C222.211 186.624 221.867 186.488 221.579 186.216C221.307 185.928 221.171 185.568 221.171 185.136C221.171 184.672 221.307 184.304 221.579 184.032C221.867 183.744 222.211 183.6 222.611 183.6C222.995 183.6 223.323 183.744 223.595 184.032C223.883 184.304 224.027 184.672 224.027 185.136C224.027 185.568 223.883 185.928 223.595 186.216C223.323 186.488 222.995 186.624 222.611 186.624ZM222.611 195.288C222.211 195.288 221.867 195.152 221.579 194.88C221.307 194.592 221.171 194.232 221.171 193.8C221.171 193.336 221.307 192.968 221.579 192.696C221.867 192.408 222.211 192.264 222.611 192.264C222.995 192.264 223.323 192.408 223.595 192.696C223.883 192.968 224.027 193.336 224.027 193.8C224.027 194.232 223.883 194.592 223.595 194.88C223.323 195.152 222.995 195.288 222.611 195.288ZM231.712 187.56C232.224 187.56 232.76 187.4 233.32 187.08C233.896 186.76 234.432 186.24 234.928 185.52C234.8 184.016 234.448 182.88 233.872 182.112C233.296 181.344 232.52 180.96 231.544 180.96C231.176 180.96 230.824 181.04 230.488 181.2C230.168 181.36 229.888 181.592 229.648 181.896C229.408 182.184 229.216 182.536 229.072 182.952C228.944 183.368 228.88 183.824 228.88 184.32C228.88 185.328 229.112 186.12 229.576 186.696C230.04 187.272 230.752 187.56 231.712 187.56ZM230.992 195.288C230.176 195.288 229.456 195.136 228.832 194.832C228.224 194.528 227.712 194.144 227.296 193.68L228.4 192.432C228.72 192.8 229.096 193.096 229.528 193.32C229.976 193.544 230.44 193.656 230.92 193.656C231.464 193.656 231.976 193.544 232.456 193.32C232.936 193.096 233.36 192.728 233.728 192.216C234.096 191.688 234.392 191.008 234.616 190.176C234.84 189.344 234.96 188.312 234.976 187.08C234.496 187.688 233.936 188.168 233.296 188.52C232.656 188.872 232.016 189.048 231.376 189.048C230.048 189.048 228.992 188.656 228.208 187.872C227.424 187.088 227.032 185.904 227.032 184.32C227.032 183.584 227.152 182.92 227.392 182.328C227.632 181.72 227.952 181.2 228.352 180.768C228.768 180.336 229.248 180 229.792 179.76C230.352 179.52 230.936 179.4 231.544 179.4C232.296 179.4 232.992 179.552 233.632 179.856C234.288 180.16 234.848 180.624 235.312 181.248C235.792 181.856 236.16 182.624 236.416 183.552C236.688 184.464 236.824 185.536 236.824 186.768C236.824 188.304 236.664 189.616 236.344 190.704C236.024 191.776 235.592 192.656 235.048 193.344C234.504 194.016 233.88 194.512 233.176 194.832C232.488 195.136 231.76 195.288 230.992 195.288Z" fill="#AEAEAE"/>
<path fill-rule="evenodd" clip-rule="evenodd" d="M264.102 149.146L245.494 126.735C244.881 126.025 243.961 125.518 242.836 125.518C241.814 125.518 240.791 126.025 240.178 126.735L237.724 129.676C237.622 129.777 237.52 129.98 237.417 130.082C236.804 130.69 235.986 131.096 235.066 131.096C234.146 131.096 233.43 130.792 232.816 130.183C232.612 129.98 232.407 129.777 232.305 129.575L223.206 118.623C222.388 117.608 221.161 117 219.73 117C218.298 117 217.071 117.608 216.253 118.623L191.92 147.93L191.511 148.437C191.204 148.944 191 149.451 191 150.059C191 151.682 192.329 153 193.965 153H200.815H203.064H203.576H223.308H228.522H230.26H230.669H245.494H255.309H255.718H258.888H262.671C263.898 153 264.92 151.986 264.92 150.769C264.92 150.262 264.818 149.856 264.511 149.451L264.102 149.146Z" fill="#AEAEAE"/>
<path fill-rule="evenodd" clip-rule="evenodd" d="M259.273 104C255.054 104 251.573 107.39 251.573 111.5C251.573 115.61 255.054 119 259.273 119C263.493 119 266.973 115.61 266.973 111.5C266.973 107.39 263.493 104 259.273 104Z" fill="#AEAEAE"/>
</svg>
