<svg width="295" height="272" viewBox="0 0 295 272" fill="none" xmlns="http://www.w3.org/2000/svg">
<g clip-path="url(#clip0)">
<rect width="294.627" height="272" fill="#EAEAEA"/>
<path fill-rule="evenodd" clip-rule="evenodd" d="M174.732 152.619L160.037 134.441C159.552 133.865 158.826 133.454 157.938 133.454C157.13 133.454 156.323 133.865 155.838 134.441L153.9 136.826C153.82 136.908 153.739 137.073 153.658 137.155C153.174 137.649 152.528 137.978 151.801 137.978C151.074 137.978 150.509 137.731 150.025 137.237C149.863 137.073 149.702 136.908 149.621 136.744L142.435 127.86C141.789 127.038 140.82 126.544 139.689 126.544C138.559 126.544 137.59 127.038 136.944 127.86L117.727 151.632L117.404 152.043C117.161 152.454 117 152.866 117 153.359C117 154.675 118.05 155.744 119.342 155.744H124.751H126.528H126.932H142.515H146.633H148.006H148.329H160.037H167.788H168.111H170.614H173.602C174.571 155.744 175.378 154.922 175.378 153.935C175.378 153.524 175.298 153.195 175.055 152.866L174.732 152.619Z" fill="#AEAEAE"/>
<path fill-rule="evenodd" clip-rule="evenodd" d="M170.919 116C167.587 116 164.838 118.75 164.838 122.083C164.838 125.417 167.587 128.167 170.919 128.167C174.251 128.167 177 125.417 177 122.083C177 118.75 174.251 116 170.919 116Z" fill="#AEAEAE"/>
</g>
<defs>
<clipPath id="clip0">
<rect width="294.627" height="272" fill="white"/>
</clipPath>
</defs>
</svg>
