<?xml version="1.0" encoding="UTF-8" standalone="no"?>
<svg
   xmlns:dc="http://purl.org/dc/elements/1.1/"
   xmlns:cc="http://creativecommons.org/ns#"
   xmlns:rdf="http://www.w3.org/1999/02/22-rdf-syntax-ns#"
   xmlns:svg="http://www.w3.org/2000/svg"
   xmlns="http://www.w3.org/2000/svg"
   xmlns:sodipodi="http://sodipodi.sourceforge.net/DTD/sodipodi-0.dtd"
   xmlns:inkscape="http://www.inkscape.org/namespaces/inkscape"
   width="403.061mm"
   height="105.17908mm"
   viewBox="0 0 403.061 105.17908"
   version="1.1"
   id="svg8"
   inkscape:version="1.0.2 (e86c870879, 2021-01-15)"
   sodipodi:docname="logo-light.svg">
  <defs
     id="defs2" />
  <sodipodi:namedview
     id="base"
     pagecolor="#ffffff"
     bordercolor="#666666"
     borderopacity="1.0"
     inkscape:pageopacity="0.0"
     inkscape:pageshadow="2"
     inkscape:zoom="0.35"
     inkscape:cx="775.89953"
     inkscape:cy="244.17142"
     inkscape:document-units="mm"
     inkscape:current-layer="layer1"
     inkscape:document-rotation="0"
     showgrid="false"
     fit-margin-top="0"
     fit-margin-left="0"
     fit-margin-right="0"
     fit-margin-bottom="0"
     inkscape:window-width="1366"
     inkscape:window-height="712"
     inkscape:window-x="0"
     inkscape:window-y="31"
     inkscape:window-maximized="1" />
  <metadata
     id="metadata5">
    <rdf:RDF>
      <cc:Work
         rdf:about="">
        <dc:format>image/svg+xml</dc:format>
        <dc:type
           rdf:resource="http://purl.org/dc/dcmitype/StillImage" />
        <dc:title></dc:title>
      </cc:Work>
    </rdf:RDF>
  </metadata>
  <g
     inkscape:label="Layer 1"
     inkscape:groupmode="layer"
     id="layer1"
     transform="translate(99.45675,-83.562979)">
    <g
       id="g24"
       style="fill:#000000"
       transform="translate(113.06296,78.161065)">
      <path
         style="fill:#000000;fill-opacity:1;stroke-width:0.264583"
         d="m -72.214805,110.47736 c 0.622311,-0.0559 1.57481,-0.0551 2.116667,0.002 0.541856,0.0569 0.03269,0.10258 -1.131473,0.10162 -1.164166,-10e-4 -1.607505,-0.0475 -0.985194,-0.10337 z m 225.293695,-8e-4 c 0.69562,-0.0547 1.76718,-0.054 2.38125,0.002 0.61407,0.0555 0.0449,0.10023 -1.26476,0.0994 -1.30969,-7.9e-4 -1.81211,-0.0462 -1.11649,-0.10089 z M 18.546817,110.22604 c 0.191003,-0.0764 0.419206,-0.067 0.507127,0.0209 0.08792,0.0879 -0.06837,0.15045 -0.347265,0.13896 -0.30824,-0.0127 -0.37092,-0.0754 -0.159862,-0.15985 z m -72.975387,-6.0369 c 0.341776,-0.36381 0.68094,-0.66146 0.7537,-0.66146 0.07276,0 -0.147341,0.29765 -0.489116,0.66146 -0.341776,0.3638 -0.68094,0.66145 -0.7537,0.66145 -0.07276,0 0.147341,-0.29765 0.489116,-0.66145 z m 43.093331,-3.77032 c -0.329107,-0.419641 -0.319749,-0.428999 0.0999,-0.0999 0.254662,0.19972 0.463021,0.40808 0.463021,0.46302 0,0.21776 -0.217273,0.0776 -0.562917,-0.36313 z m -9.409263,-24.5401 c 0.0016,-0.873125 0.05088,-1.198414 0.109765,-0.722865 0.05889,0.475549 0.05767,1.189924 -0.0027,1.5875 -0.06037,0.397576 -0.108551,0.0085 -0.107067,-0.864635 z M 18.546817,61.542773 c 0.191003,-0.07643 0.419206,-0.06703 0.507127,0.02088 0.08792,0.08792 -0.06837,0.150452 -0.347265,0.138964 -0.30824,-0.0127 -0.37092,-0.07539 -0.159862,-0.159851 z M -189.83385,49.552679 c 0,-0.509323 0.0545,-0.717682 0.12101,-0.46302 0.0665,0.254661 0.0665,0.67138 0,0.926041 -0.0666,0.254662 -0.12101,0.0463 -0.12101,-0.463021 z m 98.892782,0.181793 c 0,-0.04553 0.386953,-0.432488 0.859896,-0.859896 l 0.859896,-0.777105 -0.777105,0.859896 c -0.724371,0.801544 -0.942687,0.981511 -0.942687,0.777105 z M -171.43746,40.6343 c 0.32912,-0.06329 0.80537,-0.06088 1.05834,0.0053 0.25296,0.06622 -0.0163,0.118004 -0.5984,0.115067 -0.58209,-0.0029 -0.78906,-0.05712 -0.45994,-0.120406 z m 39.6875,0 c 0.32912,-0.06329 0.80537,-0.06088 1.05833,0.0053 0.25297,0.06622 -0.0163,0.118004 -0.59839,0.115067 -0.58209,-0.0029 -0.78906,-0.05712 -0.45994,-0.120406 z m 60.586495,5.3e-4 c 0.327422,-0.06307 0.863203,-0.06307 1.190625,0 0.327422,0.06306 0.05953,0.114662 -0.595312,0.114662 -0.654844,0 -0.922735,-0.0516 -0.595313,-0.114662 z m 224.767155,-0.0031 c 0.40219,-0.06082 0.99751,-0.05919 1.32292,0.0036 0.32543,0.0628 -0.004,0.112559 -0.73123,0.110574 -0.72761,-0.0021 -0.99386,-0.05337 -0.59169,-0.114186 z M -56.697827,29.312055 c 2.17e-4,-3.055938 0.03873,-4.269856 0.08559,-2.697599 0.04686,1.572257 0.04668,4.07257 -2.65e-4,5.55625 -0.04707,1.48368 -0.08541,0.197286 -0.0852,-2.858651 z m -147.908923,1.455208 c 0,-2.110052 0.0411,-2.973255 0.0913,-1.918229 0.0502,1.055026 0.0502,2.781432 0,3.836458 -0.0502,1.055026 -0.0913,0.191823 -0.0913,-1.918229 z m 16.26527,3.241146 c -0.32911,-0.419645 -0.31975,-0.429003 0.0999,-0.0999 0.25466,0.199721 0.46302,0.40808 0.46302,0.463021 0,0.217762 -0.21728,0.07761 -0.56292,-0.363125 z m 144.18205,-1.569802 c 0.190995,-0.07643 0.419201,-0.06703 0.507119,0.02088 0.08792,0.08792 -0.06835,0.150452 -0.347265,0.138964 -0.308227,-0.0127 -0.37092,-0.07539 -0.159854,-0.159851 z m -165.21833,-2.861969 c 7.9e-4,-1.455208 0.0451,-2.016765 0.0987,-1.247902 0.0536,0.768863 0.0531,1.959488 -0.001,2.645833 -0.0543,0.686346 -0.0982,0.05728 -0.0975,-1.397931 z m 11.06744,1.322917 c 0.005,-0.436563 0.0647,-0.583126 0.13178,-0.325694 0.0671,0.257431 0.0627,0.614619 -0.01,0.79375 -0.0725,0.179131 -0.12736,-0.03149 -0.12197,-0.468056 z m 3.175,0 c 0.005,-0.436563 0.0647,-0.583126 0.13178,-0.325694 0.0671,0.257431 0.0627,0.614619 -0.01,0.79375 -0.0725,0.179131 -0.12736,-0.03149 -0.12197,-0.468056 z m 82.02083,0 c 0.005,-0.436563 0.0647,-0.583126 0.13178,-0.325694 0.0671,0.257431 0.0627,0.614619 -0.01,0.79375 -0.0725,0.179131 -0.12736,-0.03149 -0.12197,-0.468056 z m 14.785978,-3.461631 c 0.0127,-0.308227 0.07539,-0.37092 0.159851,-0.159853 0.07643,0.190994 0.06703,0.4192 -0.02088,0.507118 -0.08792,0.08792 -0.150453,-0.06835 -0.138964,-0.347265 z"
         id="path40" />
      <path
         style="fill:#000000;fill-opacity:1;stroke-width:0.264583"
         d="m 13.370906,110.22446 c 0.254662,-0.0665 0.67138,-0.0665 0.926042,0 0.254661,0.0666 0.0463,0.121 -0.463021,0.121 -0.509323,0 -0.717682,-0.0545 -0.463021,-0.121 z m 3.704167,0 c 0.254661,-0.0665 0.67138,-0.0665 0.926041,0 0.254662,0.0666 0.0463,0.121 -0.463021,0.121 -0.509322,0 -0.717682,-0.0545 -0.46302,-0.121 z M -189.50573,90.827678 c 0,-9.677135 0.033,-13.635963 0.0734,-8.797395 0.0404,4.838567 0.0404,12.756223 0,17.594791 -0.0404,4.838566 -0.0734,0.879736 -0.0734,-8.797396 z m 58.20867,-0.926041 c 2e-5,-10.186458 0.0329,-14.315152 0.0731,-9.174874 0.0402,5.140277 0.0402,13.474652 -4e-5,18.520833 -0.0402,5.046184 -0.0731,0.840494 -0.073,-9.345959 z m 80.104873,16.007293 c 0,-0.50932 0.05445,-0.71768 0.121002,-0.46302 0.06655,0.25466 0.06655,0.67138 0,0.92604 -0.06655,0.25466 -0.121002,0.0463 -0.121002,-0.46302 z M 190.35278,75.746429 c 0,-0.363802 0.0601,-0.51263 0.13346,-0.330729 0.0734,0.181901 0.0734,0.479557 0,0.661458 -0.0734,0.181901 -0.13346,0.03307 -0.13346,-0.330729 z m -362.50004,-4.652256 c 0.0127,-0.308227 0.0754,-0.37092 0.15985,-0.159854 0.0764,0.190995 0.067,0.419201 -0.0209,0.507119 -0.0879,0.08792 -0.15046,-0.06835 -0.13897,-0.347265 z m 63.78547,-5.137327 c 0,-0.363802 0.0601,-0.512631 0.13345,-0.33073 0.0734,0.181902 0.0734,0.479558 0,0.661459 -0.0734,0.181901 -0.13345,0.03307 -0.13345,-0.330729 z M 128.3985,50.511117 c 0,-0.05494 0.20836,-0.2633 0.46303,-0.463021 0.41965,-0.329107 0.42899,-0.319749 0.0999,0.0999 -0.34565,0.44073 -0.56293,0.580887 -0.56293,0.363125 z M -51.192187,45.319346 c 0,-0.509323 0.05445,-0.717682 0.121002,-0.463021 0.06655,0.254662 0.06655,0.671381 0,0.926042 -0.06655,0.254661 -0.121002,0.0463 -0.121002,-0.463021 z m 66.018301,-4.424733 c 0.472943,-0.05869 1.246849,-0.05869 1.719792,0 0.472943,0.05869 0.08599,0.106715 -0.859896,0.106715 -0.945885,0 -1.332838,-0.04802 -0.859896,-0.106715 z m -77.88079,-9.862767 c 0,-2.110052 0.04109,-2.973255 0.09131,-1.918229 0.05022,1.055026 0.05022,2.781433 0,3.836459 -0.05022,1.055026 -0.09131,0.191823 -0.09131,-1.91823 z m 15.036328,-1.637672 -0.06022,-5.474134 -0.992187,-0.103786 -0.992188,-0.103785 1.00049,-0.04448 c 0.60375,-0.02684 1.051954,0.08963 1.130268,0.293716 0.07138,0.186008 0.09474,2.716086 0.05192,5.622396 l -0.07786,5.284203 z m -98.783552,4.614235 c -0.32911,-0.419645 -0.31975,-0.429003 0.0999,-0.0999 0.44073,0.345644 0.58088,0.562917 0.36312,0.562917 -0.0549,0 -0.2633,-0.20836 -0.46302,-0.463021 z m 40.72997,-0.776052 c 0.191,-0.07643 0.4192,-0.06703 0.50712,0.02088 0.0879,0.08792 -0.0684,0.150452 -0.34726,0.138964 -0.30823,-0.0127 -0.37092,-0.07539 -0.15986,-0.159851 z m -63.93778,-0.613011 c 0,-0.363802 0.0601,-0.51263 0.13346,-0.330729 0.0734,0.181901 0.0734,0.479558 0,0.661459 -0.0734,0.181901 -0.13346,0.03307 -0.13346,-0.33073 z m 60.64787,-2.645833 c 0,-1.673489 0.043,-2.358099 0.0955,-1.521354 0.0525,0.836745 0.0525,2.205964 0,3.042708 -0.0525,0.836745 -0.0955,0.152136 -0.0955,-1.521354 z m -32.57766,2.463448 c 0.25466,-0.06655 0.67138,-0.06655 0.92604,0 0.25466,0.06655 0.0463,0.121002 -0.46302,0.121002 -0.50932,0 -0.71768,-0.05445 -0.46302,-0.121002 z m 58.472911,0 c 0.254661,-0.06655 0.67138,-0.06655 0.926042,0 0.254661,0.06655 0.0463,0.121002 -0.463021,0.121002 -0.509323,0 -0.717683,-0.05445 -0.463021,-0.121002 z m 40.100909,0.0016 c 0.190995,-0.07643 0.419201,-0.06703 0.507119,0.02087 0.08792,0.08792 -0.06835,0.150453 -0.347265,0.138965 -0.308227,-0.0127 -0.37092,-0.07539 -0.159854,-0.159851 z m -61.23834,-2.994202 c 0,-1.382448 0.0446,-1.947995 0.0991,-1.256771 0.0545,0.691224 0.0545,1.822317 0,2.513541 -0.0545,0.691224 -0.0991,0.125677 -0.0991,-1.25677 z m -40.17975,1.948304 c 1.84977,-0.194998 4.572,-0.213363 4.45791,-0.03008 -0.0679,0.10914 -1.27735,0.179382 -2.68759,0.156093 -1.41024,-0.02328 -2.20689,-0.08 -1.77032,-0.126018 z m 3.27354,-3.734242 c -0.32911,-0.419645 -0.31975,-0.429003 0.0999,-0.0999 0.25467,0.199721 0.46302,0.40808 0.46302,0.463021 0,0.217762 -0.21727,0.07761 -0.56291,-0.363125 z m 45.542079,0.363125 c 0,-0.05494 0.208359,-0.2633 0.463021,-0.463021 0.419645,-0.329107 0.429003,-0.319749 0.0999,0.0999 -0.345644,0.44073 -0.562917,0.580887 -0.562917,0.363125 z m 32.916964,-3.339687 c 0.0226,-0.884717 0.06804,-0.92728 1.018135,-0.953781 0.982766,-0.02741 0.983724,-0.02646 0.08122,0.08122 -0.799775,0.09542 -0.926291,0.213939 -1.018138,0.953783 -0.10088,0.812612 -0.103976,0.809514 -0.08122,-0.08122 z m -89.865443,-0.98088 c 0.32912,-0.06328 0.80537,-0.06088 1.05834,0.0053 0.25296,0.06622 -0.0163,0.118004 -0.5984,0.115067 -0.58208,-0.0029 -0.78905,-0.05712 -0.45994,-0.120406 z m 79.904167,0 c 0.329118,-0.06328 0.805368,-0.06088 1.058333,0.0053 0.252966,0.06622 -0.01632,0.118004 -0.598397,0.115067 -0.582083,-0.0029 -0.789054,-0.05712 -0.459936,-0.120406 z m 16.930248,5.3e-4 c 0.327421,-0.06307 0.863203,-0.06307 1.190625,0 0.327421,0.06306 0.05953,0.114662 -0.595313,0.114662 -0.654844,0 -0.922734,-0.0516 -0.595312,-0.114662 z"
         id="path38" />
      <path
         style="fill:#000000;fill-opacity:1;stroke-width:0.264583"
         d="m -212.51867,75.547997 0.002,-32.742192 11.24479,-0.0044 11.24479,-0.0044 -11.17761,0.07343 -11.17761,0.07343 -0.0687,32.673175 -0.0687,32.67318 0.002,-32.742196 z m 183.290606,0.13522 -0.06509,-32.73925 -10.914062,-0.0721 -10.914062,-0.0721 10.922364,-0.06313 c 8.541271,-0.04937 10.949816,0.009 11.04828,0.2676 0.06925,0.181901 0.09481,14.975416 0.05679,32.874478 l -0.06912,32.543755 z m -71.217116,2.290122 c 0.0127,-0.308226 0.0754,-0.370919 0.15985,-0.159853 0.0764,0.190995 0.067,0.419201 -0.0209,0.507119 -0.0879,0.08792 -0.15046,-0.06835 -0.13897,-0.347266 z m 0.0307,-3.946702 c 0.005,-0.436562 0.0647,-0.583126 0.13178,-0.325694 0.0671,0.257432 0.0627,0.614619 -0.01,0.79375 -0.0725,0.179131 -0.12736,-0.03149 -0.12197,-0.468056 z M 17.344683,61.540159 c 0.25744,-0.06708 0.614627,-0.06267 0.79375,0.0098 0.179149,0.07248 -0.03148,0.127362 -0.468048,0.12197 -0.436562,-0.0054 -0.583115,-0.06469 -0.325702,-0.131773 z m 2.116667,0 c 0.257439,-0.06708 0.614627,-0.06267 0.79375,0.0098 0.179149,0.07248 -0.03149,0.127362 -0.468048,0.12197 -0.436563,-0.0054 -0.583116,-0.06469 -0.325702,-0.131773 z m -200.2946,-0.263615 c 0.25466,-0.06655 0.67138,-0.06655 0.92604,0 0.25466,0.06655 0.0463,0.121002 -0.46302,0.121002 -0.50932,0 -0.71768,-0.05445 -0.46302,-0.121002 z m 40.61662,-0.0047 c 0.32912,-0.06329 0.80537,-0.06088 1.05834,0.0053 0.25296,0.06622 -0.0163,0.118005 -0.5984,0.115068 -0.58208,-0.0029 -0.78905,-0.05712 -0.45994,-0.120407 z m 128.121392,-9.173191 c 0,-0.05494 0.208359,-0.263301 0.46302,-0.463021 0.419645,-0.329108 0.429004,-0.319749 0.0999,0.0999 -0.345643,0.44073 -0.562916,0.580887 -0.562916,0.363125 z M 97.37611,42.739868 c 3.6744,-0.04149 9.68706,-0.04149 13.36146,0 3.6744,0.04149 0.66807,0.07544 -6.68073,0.07544 -7.348803,0 -10.355131,-0.03395 -6.68073,-0.07544 z m -283.08762,-4.745011 c 0.191,-0.07643 0.4192,-0.06703 0.50712,0.02087 0.0879,0.08792 -0.0684,0.150453 -0.34726,0.138965 -0.30823,-0.0127 -0.37092,-0.07539 -0.15986,-0.159851 z m 55.82708,0 c 0.191,-0.07643 0.41921,-0.06703 0.50712,0.02087 0.0879,0.08792 -0.0684,0.150453 -0.34726,0.138965 -0.30823,-0.0127 -0.37092,-0.07539 -0.15986,-0.159851 z m -58.75403,-2.387235 c 0.32742,-0.06307 0.8632,-0.06307 1.19063,0 0.32742,0.06306 0.0595,0.114662 -0.59532,0.114662 -0.65484,0 -0.92273,-0.0516 -0.59531,-0.114662 z m -17.45941,-0.794155 c 0.32911,-0.06329 0.80536,-0.06088 1.05833,0.0053 0.25297,0.06622 -0.0163,0.118004 -0.5984,0.115067 -0.58208,-0.0029 -0.78905,-0.05712 -0.45993,-0.120407 z m 29.10416,0 c 0.32912,-0.06329 0.80537,-0.06088 1.05834,0.0053 0.25296,0.06622 -0.0163,0.118004 -0.5984,0.115067 -0.58209,-0.0029 -0.78906,-0.05712 -0.45994,-0.120407 z m 12.7,0 c 0.32912,-0.06329 0.80537,-0.06088 1.05833,0.0053 0.25297,0.06622 -0.0163,0.118004 -0.59839,0.115067 -0.58209,-0.0029 -0.78906,-0.05712 -0.45994,-0.120407 z m 11.37708,0 c 0.32912,-0.06329 0.80537,-0.06088 1.05834,0.0053 0.25296,0.06622 -0.0163,0.118004 -0.5984,0.115067 -0.58208,-0.0029 -0.78905,-0.05712 -0.45994,-0.120407 z m 48.94483,5.29e-4 c 0.32743,-0.06307 0.86321,-0.06307 1.19063,0 0.32742,0.06306 0.0595,0.114663 -0.59531,0.114663 -0.65485,0 -0.92274,-0.0516 -0.59532,-0.114663 z m 6.350003,0 c 0.327422,-0.06307 0.863203,-0.06307 1.190625,0 0.327422,0.06306 0.05953,0.114663 -0.595312,0.114663 -0.654844,0 -0.922735,-0.0516 -0.595313,-0.114663 z m 24.341666,0 c 0.327422,-0.06307 0.863203,-0.06307 1.190625,0 0.327422,0.06306 0.05953,0.114663 -0.595313,0.114663 -0.654844,0 -0.922734,-0.0516 -0.595312,-0.114663 z m 5.291666,0 c 0.327422,-0.06307 0.863203,-0.06307 1.190625,0 0.327422,0.06306 0.05953,0.114663 -0.595312,0.114663 -0.654844,0 -0.922735,-0.0516 -0.595313,-0.114663 z m 5.559335,-5.29e-4 c 0.329118,-0.06329 0.805368,-0.06088 1.058333,0.0053 0.252966,0.06622 -0.01632,0.118004 -0.598397,0.115067 -0.582084,-0.0029 -0.789054,-0.05712 -0.459936,-0.120407 z m 6.346915,5.29e-4 c 0.327421,-0.06307 0.863203,-0.06307 1.190625,0 0.327421,0.06306 0.05953,0.114663 -0.595313,0.114663 -0.654844,0 -0.922734,-0.0516 -0.595312,-0.114663 z m 6.617668,-5.29e-4 c 0.329117,-0.06329 0.805367,-0.06088 1.058333,0.0053 0.252965,0.06622 -0.01633,0.118004 -0.598398,0.115067 -0.582083,-0.0029 -0.789053,-0.05712 -0.459935,-0.120407 z M -119.8144,34.008409 c -0.32911,-0.419645 -0.31975,-0.429003 0.0999,-0.0999 0.44073,0.345644 0.58088,0.562917 0.36312,0.562917 -0.0549,0 -0.2633,-0.20836 -0.46302,-0.463021 z m 38.877889,-0.511469 c 0.190995,-0.07643 0.4192,-0.06703 0.507119,0.02088 0.08792,0.08792 -0.06835,0.150453 -0.347266,0.138964 -0.308226,-0.0127 -0.370919,-0.07539 -0.159853,-0.15985 z m 39.952081,0 c 0.190995,-0.07643 0.419201,-0.06703 0.507119,0.02088 0.08792,0.08792 -0.06835,0.150453 -0.347265,0.138964 -0.308227,-0.0127 -0.37092,-0.07539 -0.159854,-0.15985 z m -126.9295,-1.031933 c 0.0127,-0.308226 0.0754,-0.370919 0.15986,-0.159853 0.0764,0.190995 0.067,0.4192 -0.0209,0.507119 -0.0879,0.08792 -0.15045,-0.06835 -0.13896,-0.347266 z m 96.287444,-0.21014 c 0,-0.05494 0.20836,-0.2633 0.463021,-0.463021 0.419645,-0.329107 0.429004,-0.319749 0.0999,0.0999 -0.345643,0.44073 -0.562917,0.580888 -0.562917,0.363125 z M -107.24985,29.70893 c 0,-1.382448 0.0446,-1.947995 0.0991,-1.256771 0.0545,0.691224 0.0545,1.822318 0,2.513542 -0.0545,0.691224 -0.0991,0.125677 -0.0991,-1.256771 z m -79.94797,1.190625 c 0.005,-0.436563 0.0647,-0.583126 0.13178,-0.325694 0.0671,0.257431 0.0627,0.614619 -0.01,0.79375 -0.0725,0.179131 -0.12736,-0.03149 -0.12197,-0.468056 z m 39.41311,0.132291 c 0,-0.363802 0.0601,-0.51263 0.13346,-0.330729 0.0734,0.181901 0.0734,0.479558 0,0.661459 -0.0734,0.181901 -0.13346,0.03307 -0.13346,-0.33073 z m 3.07182,-0.985501 c 0.47555,-0.05889 1.18992,-0.05767 1.5875,0.0027 0.39758,0.06037 0.008,0.10855 -0.86463,0.107066 -0.87313,-0.0016 -1.19842,-0.05088 -0.72287,-0.109765 z m -24.3464,-0.777227 c 0.1819,-0.0734 0.47955,-0.0734 0.66146,0 0.1819,0.0734 0.0331,0.133453 -0.33073,0.133453 -0.36381,0 -0.51263,-0.06005 -0.33073,-0.133453 z m -3.83055,-1.412271 c 0,-0.654844 0.0516,-0.922735 0.11467,-0.595313 0.0631,0.327422 0.0631,0.863203 0,1.190625 -0.0631,0.327422 -0.11467,0.05953 -0.11467,-0.595312 z m 104.702938,0.958437 c 0,-0.05494 0.208359,-0.2633 0.46302,-0.463021 0.419645,-0.329107 0.429004,-0.319749 0.0999,0.0999 -0.345644,0.44073 -0.562917,0.580887 -0.562917,0.363125 z m -48.997528,-0.345427 c 0.191,-0.07643 0.4192,-0.06703 0.50712,0.02088 0.0879,0.08792 -0.0683,0.150452 -0.34726,0.138964 -0.30823,-0.0127 -0.37092,-0.07539 -0.15986,-0.159851 z"
         id="path36" />
      <path
         style="fill:#000000;fill-opacity:1;stroke-width:0.264583"
         d="m 15.358377,110.21972 c 0.329115,-0.0633 0.805365,-0.0609 1.058333,0.005 0.252942,0.0662 -0.0164,0.118 -0.598408,0.11507 -0.582083,-0.003 -0.789067,-0.0571 -0.459925,-0.12041 z M -108.27756,87.520387 c 2e-5,-11.496146 0.0326,-16.160493 0.0724,-10.365216 0.0398,5.795277 0.0398,15.201214 -4e-5,20.902083 -0.0398,5.700866 -0.0723,0.959278 -0.0723,-10.536867 z m 57.085373,16.801043 c 0,-0.50932 0.05445,-0.71768 0.121002,-0.46302 0.06655,0.25466 0.06655,0.67138 0,0.92604 -0.06655,0.25466 -0.121002,0.0463 -0.121002,-0.46302 z M 127.04183,99.360491 c -0.32909,-0.419645 -0.31975,-0.429004 0.0999,-0.0999 0.25467,0.19972 0.46302,0.40808 0.46302,0.46302 0,0.217763 -0.21727,0.07761 -0.56292,-0.363124 z M -189.57907,72.70372 c 0.005,-0.436562 0.0647,-0.583125 0.13178,-0.325694 0.0671,0.257432 0.0627,0.614619 -0.01,0.79375 -0.0725,0.179131 -0.12736,-0.03149 -0.12197,-0.468056 z m 58.17764,-1.609547 c 0.0127,-0.308227 0.0754,-0.37092 0.15985,-0.159854 0.0764,0.190995 0.067,0.419201 -0.0209,0.507119 -0.0879,0.08792 -0.15045,-0.06835 -0.13897,-0.347265 z m -43.4463,-7.717015 c -0.32911,-0.419645 -0.31975,-0.429003 0.0999,-0.0999 0.25466,0.199721 0.46302,0.40808 0.46302,0.463021 0,0.217763 -0.21728,0.07761 -0.56292,-0.363125 z M -51.192187,46.906846 c 0,-0.509323 0.05445,-0.717682 0.121002,-0.463021 0.06655,0.254662 0.06655,0.67138 0,0.926042 -0.06655,0.254661 -0.121002,0.0463 -0.121002,-0.463021 z M -186.85252,46.642263 c 0.26339,-0.291042 0.53842,-0.529167 0.61118,-0.529167 0.0728,0 -0.0832,0.238125 -0.3466,0.529167 -0.26339,0.291041 -0.53842,0.529166 -0.61118,0.529166 -0.0728,0 0.0832,-0.238125 0.3466,-0.529166 z m -3.26552,-3.175 c 0,-0.363802 0.0601,-0.51263 0.13346,-0.330729 0.0734,0.181901 0.0734,0.479557 0,0.661458 -0.0734,0.181901 -0.13346,0.03307 -0.13346,-0.330729 z m 59.55086,-6.35 c 0,-0.509323 0.0545,-0.717682 0.121,-0.463021 0.0666,0.254662 0.0666,0.67138 0,0.926042 -0.0666,0.254661 -0.121,0.0463 -0.121,-0.463021 z m -67.71273,-0.926042 c 0.002,-0.873125 0.0509,-1.198414 0.10977,-0.722865 0.0589,0.475549 0.0577,1.189924 -0.003,1.5875 -0.0604,0.397576 -0.10855,0.0085 -0.10707,-0.864635 z m -2.12553,-4.034895 -0.0313,-5.093229 h 1.03741 c 0.57057,0 1.0374,0.09045 1.0374,0.200996 0,0.110545 -0.38695,0.199842 -0.85989,0.198437 l -0.8599,-0.0026 -0.14624,4.894792 -0.14624,4.894791 -0.0313,-5.093229 z m -9.86271,2.579687 c -0.23846,-0.154109 -0.2711,-0.258098 -0.0818,-0.260532 0.17332,-0.0021 0.3887,0.115011 0.47864,0.260532 0.20301,0.328488 0.11142,0.328488 -0.39688,0 z m 12.43542,-0.132292 c -0.3638,-0.207967 -0.53539,-0.382344 -0.3813,-0.387498 0.15409,-0.0052 0.51128,0.165431 0.79375,0.379085 0.65325,0.494093 0.4446,0.49835 -0.41245,0.0084 z m -8.99583,-0.147907 c 0,-0.154109 0.11906,-0.206613 0.26458,-0.116676 0.14552,0.08994 0.26458,0.216027 0.26458,0.280199 0,0.06417 -0.11906,0.116676 -0.26458,0.116676 -0.14552,0 -0.26458,-0.12609 -0.26458,-0.280199 z m 20.58789,0.09946 c 0.19099,-0.07643 0.4192,-0.06703 0.50712,0.02088 0.0879,0.08792 -0.0684,0.150453 -0.34727,0.138965 -0.30823,-0.0127 -0.37092,-0.07539 -0.15985,-0.159851 z m 2.35974,-0.327219 c -0.11509,-0.440094 -0.0806,-0.543396 0.11569,-0.347056 0.15375,0.153749 0.22748,0.435721 0.16385,0.626602 -0.066,0.19816 -0.18598,0.07822 -0.27954,-0.279546 z m 1.98098,-3.159011 -0.0578,-3.799258 -0.90748,0.105942 c -0.49912,0.05827 -0.84928,0.01177 -0.77814,-0.103343 0.21313,-0.34484 1.69191,-0.236173 1.83426,0.134789 0.0726,0.189243 0.0949,1.945415 0.0495,3.902604 l -0.0826,3.558527 z m 4.54595,-0.169489 c 2.7e-4,-2.182813 0.0414,-3.040573 0.0911,-1.906135 0.0497,1.134435 0.0494,2.920373 -7.9e-4,3.96875 -0.0501,1.048374 -0.0908,0.120197 -0.0904,-2.062615 z m 19.60752,3.574904 c -0.0927,-0.149981 0.0135,-0.194336 0.24896,-0.103984 0.45837,0.175893 0.54224,0.365538 0.16165,0.365538 -0.13693,0 -0.32171,-0.1177 -0.41061,-0.261554 z m 4.09917,-0.01865 c 0,-0.154109 0.11906,-0.206613 0.26458,-0.116676 0.14552,0.08994 0.26458,0.216027 0.26458,0.280199 0,0.06417 -0.11906,0.116676 -0.26458,0.116676 -0.14552,0 -0.26458,-0.12609 -0.26458,-0.280199 z m 1.96407,-5.143759 c 2.2e-4,-3.055938 0.0387,-4.269856 0.0856,-2.697599 0.0469,1.572257 0.0467,4.07257 -2.7e-4,5.55625 -0.0471,1.48368 -0.0854,0.197286 -0.0852,-2.858651 z m 90.744481,1.852083 c 5.29e-4,-2.037291 0.04194,-2.835754 0.0923,-1.774362 0.05035,1.061392 0.05001,2.728267 -7.94e-4,3.704167 -0.05072,0.9759 -0.09191,0.107487 -0.0915,-1.929805 z m -133.454391,3.207396 c 0,-0.05494 0.20836,-0.2633 0.46302,-0.463021 0.41965,-0.329107 0.42901,-0.319749 0.0999,0.0999 -0.34564,0.44073 -0.56292,0.580887 -0.56292,0.363125 z m 18.8701,-1.487604 c 0,-0.945886 0.048,-1.332839 0.10672,-0.859896 0.0587,0.472943 0.0587,1.246849 0,1.719792 -0.0587,0.472942 -0.10672,0.08599 -0.10672,-0.859896 z m -35.78254,0.63941 c 0.0127,-0.308226 0.0754,-0.370919 0.15985,-0.159853 0.0764,0.190995 0.067,0.419201 -0.0209,0.507119 -0.0879,0.08792 -0.15046,-0.06835 -0.13897,-0.347266 z m 41.53958,-0.264583 c 0.0127,-0.308226 0.0754,-0.370919 0.15985,-0.159853 0.0764,0.190994 0.067,0.4192 -0.0209,0.507119 -0.0879,0.08792 -0.15046,-0.06835 -0.13897,-0.347266 z m 25.59409,0.238183 c 0.19099,-0.07643 0.4192,-0.06703 0.50711,0.02088 0.0879,0.08792 -0.0684,0.150453 -0.34726,0.138964 -0.30823,-0.0127 -0.37092,-0.07539 -0.15985,-0.15985 z m 100.010025,-0.282281 c -0.148495,-0.542446 -0.07257,-0.595313 0.854979,-0.595313 0.559872,0 1.076156,0.09418 1.147297,0.209288 0.07114,0.11511 -0.268028,0.162897 -0.75371,0.106196 -0.694884,-0.08112 -0.904637,0.0011 -0.984327,0.386025 -0.08776,0.423873 -0.12301,0.409707 -0.264239,-0.106196 z m -65.014535,-0.220485 c 0.0127,-0.308227 0.0754,-0.37092 0.15985,-0.159854 0.0764,0.190995 0.067,0.419201 -0.0209,0.507119 -0.0879,0.08792 -0.15046,-0.06835 -0.13897,-0.347265 z m 27.083552,0.129503 c -0.09838,-0.159184 -0.631171,-0.246288 -1.183984,-0.19357 -0.552809,0.05272 -0.948568,0.0044 -0.879461,-0.107455 0.222723,-0.360373 1.871122,-0.216064 2.211088,0.193569 0.181158,0.218282 0.262295,0.396875 0.180303,0.396875 -0.08199,0 -0.229566,-0.130238 -0.327946,-0.289419 z m 4.442359,-0.504331 c 0,-0.509322 0.05445,-0.717682 0.121002,-0.46302 0.06655,0.254661 0.06655,0.67138 0,0.926041 -0.06655,0.254662 -0.121002,0.0463 -0.121002,-0.463021 z M -189.08059,32.465007 c 0.0127,-0.308226 0.0754,-0.370919 0.15985,-0.159853 0.0764,0.190995 0.067,0.4192 -0.0209,0.507119 -0.0879,0.08792 -0.15045,-0.06835 -0.13896,-0.347266 z m 47.01188,0.231794 c 0.32912,-0.06329 0.80537,-0.06088 1.05833,0.0053 0.25297,0.06622 -0.0163,0.118004 -0.59839,0.115067 -0.58209,-0.0029 -0.78906,-0.05712 -0.45994,-0.120406 z m 26.40611,-0.155012 c 0.0994,-0.260937 0.24731,-0.407781 0.32877,-0.326318 0.0815,0.08146 1.7e-4,0.294954 -0.18065,0.474432 -0.26131,0.25936 -0.2917,0.22897 -0.14812,-0.148114 z m 1.97547,0.209849 c 0,-0.145521 0.11541,-0.443177 0.25648,-0.661458 0.14107,-0.218281 0.25648,-0.277813 0.25648,-0.132292 0,0.145521 -0.11541,0.443177 -0.25648,0.661458 -0.14107,0.218282 -0.25648,0.277813 -0.25648,0.132292 z m -39.91841,-1.190625 c 0,-0.363802 0.0601,-0.51263 0.13345,-0.330729 0.0734,0.181901 0.0734,0.479557 0,0.661458 -0.0734,0.181901 -0.13345,0.03307 -0.13345,-0.330729 z m -53.1081,-1.984375 0.0174,-2.38125 0.99219,-0.08212 c 0.5457,-0.04517 0.99219,0.02021 0.99219,0.145309 0,0.125084 -0.4119,0.17934 -0.91534,0.120568 l -0.91534,-0.106863 -0.0942,2.342803 -0.0942,2.342801 0.0174,-2.38125 z m 168.689236,1.719792 c -0.15576,-0.291042 -0.223671,-0.529167 -0.15091,-0.529167 0.07276,0 0.259733,0.238125 0.415493,0.529167 0.155761,0.291041 0.223671,0.529166 0.150911,0.529166 -0.07276,0 -0.259734,-0.238125 -0.415494,-0.529166 z M -159.16179,31.031846 c 0,-0.363802 0.0601,-0.51263 0.13345,-0.330729 0.0734,0.181901 0.0734,0.479558 0,0.661459 -0.0734,0.181901 -0.13345,0.03307 -0.13345,-0.33073 z m 13.66248,0.216501 c 0.24802,-0.24004 5.08255,-0.399796 5.08177,-0.167926 -2.6e-4,0.09948 -1.1858,0.218538 -2.63438,0.264584 -1.44857,0.04604 -2.5499,0.0026 -2.44739,-0.09666 z m -20.78186,-0.134302 c 0.25466,-0.06655 0.67138,-0.06655 0.92604,0 0.25466,0.06655 0.0463,0.121001 -0.46302,0.121001 -0.50932,0 -0.71768,-0.05445 -0.46302,-0.121001 z m 12.67563,-0.875949 c 0,-0.363802 0.0601,-0.51263 0.13345,-0.330729 0.0734,0.181901 0.0734,0.479558 0,0.661459 -0.0734,0.181901 -0.13345,0.03307 -0.13345,-0.33073 z m 84.360304,-0.17948 c 0,-0.147219 0.267891,-0.494485 0.595313,-0.771699 l 0.595312,-0.504029 -0.526346,0.661459 c -0.289491,0.363802 -0.557382,0.711067 -0.595312,0.771702 -0.03793,0.06063 -0.06897,-0.01021 -0.06897,-0.157433 z m 25.156305,-0.768609 c 0.0127,-0.308226 0.07539,-0.370919 0.15985,-0.159853 0.07643,0.190995 0.06703,0.4192 -0.02088,0.507119 -0.08792,0.08792 -0.150453,-0.06835 -0.138965,-0.347266 z M -145.18065,28.782888 c 0.34178,-0.363802 0.68094,-0.661458 0.7537,-0.661458 0.0728,0 -0.14734,0.297656 -0.48912,0.661458 -0.34177,0.363802 -0.68093,0.661459 -0.7537,0.661459 -0.0728,0 0.14735,-0.297657 0.48912,-0.661459 z m 66.082771,0.209746 c 0.329118,-0.06329 0.805368,-0.06088 1.058333,0.0053 0.252965,0.06622 -0.01632,0.118004 -0.598397,0.115067 -0.582084,-0.0029 -0.789054,-0.05712 -0.459936,-0.120407 z m 39.200403,-0.275892 c -0.298067,-0.393903 -0.295003,-0.413652 0.02053,-0.132291 0.203986,0.181901 0.694338,0.330729 1.089671,0.330729 0.39533,0 0.778838,-0.148828 0.852236,-0.330729 0.07972,-0.197575 0.141861,-0.144315 0.154339,0.132291 0.01595,0.353703 -0.190098,0.463021 -0.872757,0.463021 -0.541226,0 -1.031814,-0.182597 -1.24401,-0.463021 z M -165.58731,28.452159 c -0.32911,-0.419645 -0.31975,-0.429003 0.0999,-0.0999 0.44073,0.345644 0.58089,0.562917 0.36313,0.562917 -0.0549,0 -0.2633,-0.20836 -0.46302,-0.463021 z m 71.648156,0.282414 c 0.170061,-0.121492 0.363818,-0.636569 0.43057,-1.144622 0.116263,-0.884899 0.119948,-0.880102 0.08767,0.114152 -0.02199,0.67759 -0.171466,1.074936 -0.430569,1.144621 -0.270698,0.07281 -0.298572,0.03651 -0.08767,-0.114151 z M -83.9126,28.308456 c 0.09936,-0.260937 0.247304,-0.407781 0.328766,-0.326319 0.08146,0.08146 1.69e-4,0.294955 -0.180652,0.474433 -0.261308,0.25936 -0.291698,0.22897 -0.148114,-0.148114 z m 2.711506,-0.103182 c 0.190994,-0.07643 0.4192,-0.06703 0.507119,0.02088 0.08792,0.08792 -0.06835,0.150453 -0.347266,0.138965 -0.308226,-0.0127 -0.370919,-0.07539 -0.159853,-0.159851 z m -94.406636,-0.419047 c 0,-0.258779 -0.2829,-0.466254 -0.7276,-0.533623 l -0.72761,-0.110222 0.73591,-0.03964 c 0.70172,-0.0378 1.26451,0.561673 0.88428,0.941906 -0.0907,0.09074 -0.16498,-0.02555 -0.16498,-0.258418 z m 51.32916,-0.06167 c 0,-0.48696 -1.07991,-0.533038 -1.55026,-0.06615 -0.26714,0.265179 -0.29823,0.238958 -0.1569,-0.132292 0.12006,-0.315362 0.46257,-0.46302 1.07401,-0.46302 0.72135,0 0.89774,0.10397 0.89774,0.529166 0,0.291042 -0.0595,0.529167 -0.13229,0.529167 -0.0728,0 -0.1323,-0.178594 -0.1323,-0.396875 z m -6.87916,-0.450003 c 0,-0.116301 0.41672,-0.211455 0.92604,-0.211455 0.50932,0 0.92604,0.0465 0.92604,0.103343 0,0.05684 -0.41672,0.151995 -0.92604,0.211455 -0.50932,0.05946 -0.92604,0.01297 -0.92604,-0.103343 z m 23.01875,0.05313 c -0.6219,-0.199165 -0.60909,-0.213413 0.21405,-0.23821 0.52186,-0.01572 0.80946,0.0805 0.71199,0.23821 -0.0899,0.145521 -0.18626,0.252714 -0.21406,0.23821 -0.0278,-0.0145 -0.34818,-0.121701 -0.71198,-0.23821 z m -102.59219,-0.182385 c 0.25467,-0.06655 0.67138,-0.06655 0.92605,0 0.25466,0.06655 0.0463,0.121002 -0.46303,0.121002 -0.50932,0 -0.71768,-0.05445 -0.46302,-0.121002 z m 106.75937,-0.0043 c 0.32743,-0.06307 0.86321,-0.06307 1.19063,0 0.32742,0.06306 0.0595,0.114662 -0.59531,0.114662 -0.65485,0 -0.92274,-0.0516 -0.59532,-0.114662 z m 6.350003,0 c 0.327422,-0.06307 0.863203,-0.06307 1.190625,0 0.327422,0.06306 0.05953,0.114662 -0.595312,0.114662 -0.654844,0 -0.922735,-0.0516 -0.595313,-0.114662 z m 29.371834,-5.3e-4 c 0.329118,-0.06329 0.805368,-0.06088 1.058333,0.0053 0.252966,0.06622 -0.01632,0.118004 -0.598397,0.115067 -0.582084,-0.0029 -0.789054,-0.05712 -0.459936,-0.120406 z m 5.817748,5.3e-4 c 0.327422,-0.06307 0.863203,-0.06307 1.190625,0 0.327422,0.06306 0.05953,0.114662 -0.595313,0.114662 -0.654843,0 -0.922734,-0.0516 -0.595312,-0.114662 z m -91.184405,-1.583598 c -0.0169,-0.755396 0.0608,-1.429991 0.17261,-1.4991 0.11182,-0.06911 0.16505,0.370351 0.1183,0.976575 -0.13733,1.780479 -0.25796,1.997154 -0.29091,0.522525 z m 91.608725,-0.0016 c 0.957749,-0.108302 1.012719,-0.162407 0.905719,-0.891442 -0.06265,-0.426879 -0.0079,-0.776142 0.12161,-0.776142 0.129538,0 0.198216,0.386953 0.152615,0.859895 -0.07779,0.806771 -0.148297,0.861846 -1.141243,0.891443 l -1.058334,0.03155 z"
         id="path34" />
      <path
         style="fill:#000000;fill-opacity:1;stroke-width:0.264583"
         d="m 18.530281,89.582621 c 0.327422,-0.06307 0.863203,-0.06307 1.190625,0 0.327422,0.06306 0.05953,0.114662 -0.595313,0.114662 -0.654843,0 -0.922734,-0.0516 -0.595312,-0.114662 z M 118.10063,78.237923 c 0.0127,-0.308227 0.0754,-0.37092 0.15986,-0.159854 0.0764,0.190995 0.067,0.419201 -0.0209,0.507119 -0.0879,0.08792 -0.15047,-0.06835 -0.13899,-0.347265 z M -100.39039,75.87872 c 0.002,-0.727604 0.0534,-0.993857 0.11418,-0.591674 0.0608,0.402182 0.0592,0.997495 -0.004,1.322917 -0.0628,0.325421 -0.11256,-0.0036 -0.11057,-0.731243 z M 2.2589835,75.614137 c 0.00294,-0.582083 0.057121,-0.789054 0.1204066,-0.459936 0.063286,0.329118 0.060883,0.805368 -0.00534,1.058334 C 2.3078229,76.4655 2.2560413,76.19621 2.2589782,75.614137 Z M 20.928067,61.542773 c 0.191003,-0.07643 0.419206,-0.06703 0.507127,0.02088 0.08792,0.08792 -0.06837,0.150452 -0.347266,0.138964 -0.308239,-0.0127 -0.370919,-0.07539 -0.159861,-0.159851 z M -190.11804,44.790179 c 0,-0.363802 0.0601,-0.51263 0.13346,-0.330729 0.0734,0.181901 0.0734,0.479558 0,0.661459 -0.0734,0.181901 -0.13346,0.03307 -0.13346,-0.33073 z m -10.0352,-12.159127 0.0716,-5.17108 0.60988,-0.08646 c 0.33543,-0.04755 0.78415,0.05818 0.99715,0.234953 0.30738,0.255103 0.48177,0.239334 0.84533,-0.07645 0.74027,-0.642977 1.82471,-0.777613 2.84149,-0.352777 0.70448,0.294354 1.06106,0.689213 1.45743,1.613916 0.28862,0.673322 0.52476,1.561669 0.52476,1.974101 0,0.966931 -0.83914,2.908078 -1.52039,3.517038 -0.77929,0.696589 -2.27164,0.870082 -3.01366,0.35035 -0.33592,-0.235294 -0.70334,-0.427805 -0.81649,-0.427805 -0.11314,0 -0.20571,0.837169 -0.20571,1.860373 v 1.86037 l -0.93145,-0.06273 -0.93145,-0.06273 z m 4.70176,0.252878 c 0.39619,-0.396193 0.52815,-0.878226 0.52512,-1.918229 -0.005,-1.541688 -0.1284,-1.832118 -0.97075,-2.275496 -0.82594,-0.434742 -1.08456,-0.385559 -1.81535,0.345241 -0.50998,0.509979 -0.64944,0.923438 -0.64944,1.925503 0,0.726725 0.17732,1.52922 0.41188,1.864108 0.52417,0.748353 1.77948,0.777931 2.49854,0.05887 z m 7.78124,4.638169 c -0.43044,-0.180983 -0.926,-0.643765 -1.10125,-1.028406 -0.30522,-0.669883 -0.28582,-0.699347 0.46046,-0.699347 0.4285,0 1.18729,0.194654 1.6862,0.432565 1.2883,0.614349 2.22133,0.315632 2.71662,-0.869741 0.21774,-0.521131 0.32647,-1.128413 0.24163,-1.349515 -0.13391,-0.348962 -0.22289,-0.3399 -0.67437,0.06868 -0.66335,0.600321 -2.64987,0.62538 -3.53624,0.04461 -0.41612,-0.272653 -0.79741,-0.927978 -1.05886,-1.819878 -0.36688,-1.251532 -0.36742,-1.535369 -0.005,-2.780856 0.60798,-2.091361 2.262,-3.04339 4.01497,-2.310952 1.0102,0.422089 1.47796,0.489026 1.28979,0.184568 -0.0675,-0.109141 0.31248,-0.198438 0.84428,-0.198438 h 0.96693 l -0.13229,4.524298 c -0.14089,4.818274 -0.21535,5.092552 -1.56824,5.776722 -0.8677,0.438809 -3.12843,0.452824 -4.14428,0.02569 z m 3.53803,-5.021638 c 0.7245,-0.921059 0.60947,-2.977533 -0.20337,-3.635735 -0.80608,-0.652721 -1.49271,-0.600953 -2.26438,0.17072 -0.4681,0.468093 -0.64944,0.93834 -0.64944,1.68411 0,2.112124 1.97092,3.238146 3.11719,1.780905 z m 53.76823,4.660593 c 0,-0.640717 0.13086,-0.797568 0.77247,-0.925888 0.98456,-0.196913 1.18945,-0.856729 0.6983,-2.248789 -0.21393,-0.606346 -0.32014,-1.102447 -0.23602,-1.102447 0.0841,0 0.0103,-0.171879 -0.16403,-0.381953 -0.17435,-0.210071 -0.4738,-0.954212 -0.66546,-1.653646 -0.19165,-0.699431 -0.54255,-1.720868 -0.77978,-2.269863 -0.46584,-1.078015 -0.45261,-1.096084 0.96983,-1.324932 0.42768,-0.06881 0.72735,0.0042 0.727,0.17698 -2.7e-4,0.161721 0.32708,1.394986 0.7276,2.740588 0.68453,2.299803 1.11935,2.912697 1.28169,1.806604 0.17785,-1.211802 0.73141,-3.226295 0.96878,-3.525549 0.14428,-0.181901 0.17364,-0.330729 0.0652,-0.330729 -0.10839,0 -0.0489,-0.178594 0.13229,-0.396875 0.18116,-0.218281 0.62767,-0.396875 0.99226,-0.396875 0.62353,0 0.65298,0.0619 0.49613,1.0428 -0.0917,0.573539 -0.30382,1.377211 -0.47135,1.785937 -0.16753,0.408726 -0.33307,0.876795 -0.36787,1.040151 -0.0348,0.163357 -0.4458,1.439611 -0.91332,2.836116 -0.99453,2.970724 -1.63314,3.746318 -3.1588,3.836337 -1.02559,0.06052 -1.07496,0.028 -1.07496,-0.707967 z m -79.87783,-2.561375 c -0.88895,-0.488524 -1.34061,-2.012239 -1.34527,-4.53838 -0.005,-2.773809 0.0558,-2.915851 1.19422,-2.782951 l 0.91846,0.107225 v 2.75485 c 0,2.68175 0.0175,2.762848 0.66146,3.056231 0.48679,0.221798 0.83129,0.224002 1.30461,0.0083 0.76355,-0.3479 1.04261,-1.68738 0.90248,-4.331946 l -0.0904,-1.706501 0.92604,0.151199 0.92604,0.151198 v 3.567385 c 0,3.523359 -0.008,3.568454 -0.60987,3.653843 -0.33544,0.04755 -0.77337,-0.04923 -0.97318,-0.215059 -0.27563,-0.228753 -0.55628,-0.201728 -1.16293,0.11198 -0.94495,0.488654 -1.77815,0.492607 -2.65164,0.01259 z m 41.38965,-0.194395 c -0.48048,-0.419246 -0.70815,-0.915347 -0.7698,-1.677408 -0.13889,-1.716992 0.615,-2.359147 3.11453,-2.652919 1.30771,-0.153694 1.48303,-0.244361 1.48303,-0.766934 0,-0.325949 -0.14883,-0.711306 -0.33073,-0.856353 -0.419,-0.334108 -1.5708,-0.162648 -1.91823,0.285556 -0.14552,0.187733 -0.6958,0.348356 -1.22285,0.356947 -0.79683,0.01299 -0.93725,-0.06475 -0.83352,-0.461428 0.47315,-1.809295 4.26614,-2.298702 5.72037,-0.738097 0.50225,0.538985 0.58042,0.978045 0.66335,3.726172 l 0.094,3.115193 h -0.93186 c -0.51252,0 -0.97393,-0.126209 -1.02534,-0.280464 -0.0603,-0.180959 -0.37322,-0.134604 -0.88195,0.130662 -1.13059,0.589524 -2.35857,0.51924 -3.16101,-0.180927 z m 3.23972,-1.139481 c 0.4212,-0.295018 0.58804,-0.680249 0.58804,-1.357754 v -0.945878 l -1.06871,0.143343 c -1.75805,0.235808 -2.32162,1.074158 -1.40382,2.088312 0.53598,0.592254 1.11037,0.614193 1.88449,0.07198 z m 8.19441,1.247582 c -0.97979,-0.590598 -1.52095,-1.823067 -1.52095,-3.463878 0,-1.712436 0.5086,-2.944965 1.4771,-3.57955 0.86054,-0.563848 2.79035,-0.662922 3.38004,-0.173527 0.54058,0.448643 0.65072,0.13865 0.60585,-1.705229 l -0.039,-1.604187 0.85989,-0.05775 0.8599,-0.05775 v 5.432244 5.432248 h -0.60854 c -0.3347,0 -0.73774,-0.129193 -0.89564,-0.287099 -0.20641,-0.20641 -0.51504,-0.169228 -1.09811,0.132291 -1.01403,0.524375 -2.0777,0.500491 -3.02051,-0.06782 z m 3.33011,-1.48499 c 0.53787,-0.407615 0.86357,-2.123234 0.60139,-3.167846 -0.22485,-0.895884 -1.29387,-1.579546 -2.13842,-1.367578 -1.40681,0.353086 -1.90598,3.169401 -0.78191,4.411496 0.53599,0.592262 1.6242,0.650417 2.31894,0.123928 z m 8.51029,1.619927 c -0.85453,-0.38794 -1.46656,-1.001011 -1.55017,-1.552802 -0.0287,-0.189135 -0.12932,-0.467217 -0.2237,-0.617958 -0.30686,-0.490107 -0.0439,-3.144012 0.39512,-3.988136 0.75951,-1.46027 3.5045,-2.039414 5.00533,-1.056034 0.81999,0.537281 1.60139,2.054272 1.48386,2.88074 -0.0779,0.547788 -0.2362,0.590397 -2.46251,0.662806 -1.30859,0.04256 -2.47604,0.174167 -2.59433,0.292457 -0.37407,0.374073 0.10246,1.569183 0.81074,2.033259 0.6246,0.409258 0.74963,0.411917 1.49616,0.0318 0.44803,-0.228126 1.25962,-0.458272 1.80354,-0.511434 0.93938,-0.09182 0.9712,-0.06996 0.63505,0.4363 -0.9651,1.453523 -3.21962,2.106049 -4.79909,1.388999 z m 3.08508,-5.071684 c -0.13688,-0.804558 -0.77113,-1.376955 -1.4836,-1.338897 -0.80659,0.04309 -1.60678,0.752565 -1.66103,1.472737 -0.0386,0.51236 0.0762,0.546428 1.59653,0.473694 1.47142,-0.07039 1.62896,-0.132218 1.5481,-0.607534 z m 23.78904,4.960527 c -1.43935,-0.733943 -1.99584,-1.701776 -1.98522,-3.452669 0.0188,-3.103004 1.58902,-4.372856 4.92779,-3.985202 0.79299,0.09207 1.84783,1.147546 2.22237,2.223696 0.45091,1.295572 0.45618,1.842701 0.0296,3.067182 -0.43958,1.261639 -0.92692,1.821172 -1.96365,2.254533 -1.14882,0.480214 -2.14308,0.44712 -3.23084,-0.10754 z m 2.7331,-1.454798 c 0.92824,-0.831281 1.05906,-3.136188 0.23078,-4.066079 -0.80424,-0.902907 -1.7603,-0.816192 -2.53165,0.229621 -1.01536,1.376648 -0.64821,3.464653 0.72667,4.132598 0.77379,0.375926 0.83703,0.364027 1.5742,-0.29614 z m 7.6759,1.303899 c -0.66786,-0.574469 -0.72255,-0.787623 -0.8428,-3.284924 -0.0707,-1.468826 -0.0539,-2.968098 0.0373,-3.331713 0.14365,-0.572354 0.26371,-0.635108 0.89419,-0.467381 0.71737,0.190839 0.73024,0.231471 0.86056,2.716329 0.14121,2.692731 0.44028,3.394519 1.44659,3.394519 1.15374,0 1.46382,-0.747043 1.46382,-3.526562 V 27.32768 h 1.05834 1.05833 v 3.704166 3.704167 h -1.05833 c -0.78607,0 -1.05834,-0.107042 -1.05834,-0.416078 0,-0.344911 -0.11924,-0.322284 -0.69714,0.132291 -0.93377,0.734507 -2.26421,0.706758 -3.16255,-0.06596 z m 25.687714,0.247642 c -0.82418,-0.359196 -1.271157,-0.79987 -1.516288,-1.494907 -0.115972,-0.328826 0.0403,-0.38536 0.818825,-0.296222 0.529182,0.06059 1.197001,0.27323 1.484042,0.472533 0.684131,0.475017 1.580428,0.460983 1.988852,-0.03114 0.610423,-0.735513 -0.178895,-1.511972 -1.889559,-1.858772 -0.987827,-0.200261 -2.07885,-0.972672 -2.231181,-1.579613 -0.462322,-1.842029 1.823778,-3.401951 4.09095,-2.791465 0.596728,0.160681 1.312326,0.602297 1.6323,1.00734 l 0.569753,0.721225 -0.93863,0.08129 c -0.550151,0.04765 -1.21275,-0.09831 -1.600946,-0.352668 -0.86241,-0.565073 -1.808967,-0.296918 -1.695836,0.48042 0.0617,0.423939 0.492527,0.707295 1.768599,1.163206 2.196526,0.784773 2.414804,0.992926 2.409962,2.298166 -0.0049,1.321548 -0.137456,1.537282 -1.29337,2.104998 -1.068258,0.524663 -2.49814,0.554715 -3.597473,0.0756 z m 39.819892,-0.09674 c -1.226952,-0.612931 -1.448839,-1.65768 -0.349131,-1.643858 0.410303,0.0052 1.043663,0.17953 1.407465,0.387498 0.863335,0.493527 1.455369,0.491207 1.954233,-0.0076 0.576414,-0.576413 0.267536,-1.108435 -0.853151,-1.469498 -0.532834,-0.171667 -1.087853,-0.382437 -1.233374,-0.468376 -0.145521,-0.08594 -0.423855,-0.180367 -0.618519,-0.209836 -1.41065,-0.21355 -1.885892,-2.556539 -0.706699,-3.484094 0.965435,-0.759412 2.240383,-0.916546 3.585619,-0.441918 1.159177,0.40898 1.564423,0.766027 1.572006,1.385025 0.0056,0.459912 -1.072358,0.413147 -2.08154,-0.0903 -0.780005,-0.389117 -0.897051,-0.386252 -1.544214,0.03778 l -0.700238,0.458814 0.606832,0.491385 c 0.333759,0.270261 0.884274,0.491384 1.223367,0.491384 0.339093,0 0.690115,0.119062 0.780053,0.264583 0.08994,0.145521 0.386511,0.264583 0.659055,0.264583 0.640022,0 1.589903,1.336062 1.589903,2.23629 0,0.71486 -1.19997,2.104258 -1.602505,1.855478 -0.117157,-0.07241 -0.2878,-0.01064 -0.379203,0.13725 -0.265568,0.429697 -2.299703,0.310148 -3.309959,-0.194532 z M -177.19523,30.965701 v -3.770313 h 0.88397 c 0.71162,0 0.86037,0.09028 0.76289,0.463021 -0.14121,0.540009 0.27868,0.609417 0.78164,0.129207 0.19229,-0.1836 0.67705,-0.478703 1.07723,-0.655786 0.71656,-0.317087 0.7276,-0.307909 0.7276,0.605012 0,0.819976 -0.0924,0.945457 -0.8002,1.087025 -1.31507,0.263014 -1.75552,1.210691 -1.73292,3.728564 l 0.0196,2.182045 -0.8599,7.94e-4 -0.8599,7.93e-4 v -3.770312 z m 79.14244,0.06615 -0.0051,-3.704166 h 1.044864 c 0.903343,0 1.044863,0.07964 1.044863,0.588039 v 0.588036 l 0.39274,-0.560712 c 0.216005,-0.308394 0.751787,-0.68588 1.190624,-0.838859 0.784654,-0.273532 0.797886,-0.263356 0.797886,0.613616 0,0.784921 -0.111186,0.928455 -0.928074,1.198049 -1.25272,0.413433 -1.453184,0.903679 -1.453184,3.553812 v 2.266352 h -1.039778 -1.039775 l -0.0051,-3.704167 z m 24.332646,-1.666488 v -5.370655 l 0.907534,-0.06112 c 1.106572,-0.07453 1.160685,0.08819 1.252778,3.76715 l 0.06564,2.622011 1.260195,-1.532086 c 1.176692,-1.43057 1.338341,-1.534181 2.439587,-1.56368 l 1.179391,-0.03159 -1.333338,1.349695 -1.333336,1.349698 1.467797,2.420615 1.467797,2.420617 h -1.123913 c -1.106659,0 -1.137668,-0.02537 -2.0203,-1.653646 -0.493011,-0.909505 -0.936485,-1.702525 -0.985491,-1.762268 -0.278135,-0.339058 -1.150681,0.961771 -1.150681,1.71549 0,1.377725 -0.229139,1.700424 -1.207428,1.700424 h -0.88623 z m 10.824908,1.666488 V 27.32768 h 0.926042 0.926041 v 3.704166 3.704167 h -0.926041 -0.926042 z m 6.35,-1.680966 v -5.385136 l 0.992187,0.02732 0.992188,0.02732 0.07163,5.357813 0.07162,5.357812 h -1.06381 -1.063813 z m 6.373008,-6.9e-5 v -5.385205 l 0.980683,0.02739 0.980683,0.02739 0.07163,5.357813 0.07162,5.357812 h -1.052308 -1.052306 z m -12.674436,-4.602819 c 0.07059,-0.613455 0.208246,-0.727604 0.87747,-0.727604 0.669224,0 0.806884,0.114149 0.877469,0.727604 0.07773,0.67559 0.015,0.727605 -0.877469,0.727605 -0.89248,0 -0.955204,-0.05202 -0.87747,-0.727605 z"
         id="path32" />
      <path
         style="fill:#000000;fill-opacity:1;stroke-width:0.264583"
         d="m -206.36554,108.35661 c 3.09232,-0.0423 8.15247,-0.0423 11.24479,0 3.09232,0.0423 0.56224,0.077 -5.6224,0.077 -6.18463,0 -8.71471,-0.0346 -5.62239,-0.077 z m 45.90336,10e-4 11.30909,-0.0734 0.0708,-17.856559 0.0708,-17.856555 -0.003,17.925542 -0.003,17.925452 -11.37708,0.004 -11.37708,0.004 11.30909,-0.0734 z m 35.20933,-10e-4 c 3.17492,-0.0422 8.29461,-0.0422 11.37708,1.2e-4 3.08247,0.0423 0.48481,0.0769 -5.77259,0.0768 -6.25739,-6e-5 -8.77942,-0.0347 -5.60449,-0.0769 z m 79.489384,9e-5 c 2.946797,-0.0426 7.768828,-0.0426 10.715625,0 2.946796,0.0426 0.535781,0.0774 -5.357813,0.0774 -5.893593,0 -8.304609,-0.0348 -5.357812,-0.0774 z m 99.368949,-9e-5 c 3.174921,-0.0422 8.294608,-0.0422 11.377083,1.2e-4 3.082448,0.0423 0.484796,0.0769 -5.7726,0.0768 -6.257395,-6e-5 -8.77943,-0.0347 -5.604483,-0.0769 z m 47.096547,-7e-5 c 3.90292,-0.0413 10.21323,-0.0412 14.02291,7e-5 3.80969,0.0413 0.61638,0.0751 -7.09623,0.075 -7.7126,-4e-5 -10.829603,-0.0338 -6.92668,-0.0751 z m 27.13355,-8.2023 c -0.32909,-0.419644 -0.31975,-0.429003 0.0999,-0.0999 0.25467,0.19973 0.46302,0.40808 0.46302,0.46303 0,0.21776 -0.21727,0.0776 -0.56292,-0.36313 z M -146.10669,63.575596 c 0.26339,-0.291042 0.53842,-0.529167 0.61118,-0.529167 0.0728,0 -0.0832,0.238125 -0.3466,0.529167 -0.26339,0.291041 -0.53842,0.529166 -0.61118,0.529166 -0.0728,0 0.0832,-0.238125 0.3466,-0.529166 z m 12.00479,-0.198438 c -0.32911,-0.419645 -0.31975,-0.429003 0.0999,-0.0999 0.25466,0.199721 0.46302,0.40808 0.46302,0.463021 0,0.217763 -0.21728,0.07761 -0.56292,-0.363125 z"
         id="path30" />
      <path
         style="fill:#000000;fill-opacity:1;stroke-width:0.264583"
         d="m 150.57389,110.22611 c 0.19101,-0.0764 0.41921,-0.067 0.50713,0.0209 0.0879,0.0879 -0.0684,0.15045 -0.34726,0.13897 -0.30824,-0.0127 -0.37092,-0.0754 -0.15987,-0.15986 z m -240.754958,-7.16145 c -0.329107,-0.41965 -0.319749,-0.42901 0.0999,-0.0999 0.254661,0.19972 0.463021,0.40808 0.463021,0.46302 0,0.21776 -0.217273,0.0776 -0.562917,-0.36312 z m 38.988881,-0.59532 c 0,-0.50932 0.05445,-0.71768 0.121002,-0.46302 0.06655,0.25467 0.06655,0.67138 0,0.92605 -0.06655,0.25466 -0.121002,0.0463 -0.121002,-0.46303 z m -40.047214,-0.46302 c -0.329108,-0.41964 -0.319749,-0.429 0.0999,-0.0999 0.254661,0.19972 0.46302,0.40808 0.46302,0.46302 0,0.21776 -0.217273,0.0776 -0.562916,-0.36313 z M 17.207364,89.594117 c 0.181901,-0.0734 0.479558,-0.0734 0.661459,0 0.181901,0.0734 0.03307,0.133453 -0.33073,0.133453 -0.363802,0 -0.51263,-0.06006 -0.330729,-0.133453 z m 3.175,0 c 0.181901,-0.0734 0.479557,-0.0734 0.661458,0 0.181901,0.0734 0.03307,0.133453 -0.330729,0.133453 -0.363802,0 -0.51263,-0.06006 -0.330729,-0.133453 z M 118.14114,77.069345 c 0,-0.509323 0.0545,-0.717682 0.12099,-0.46302 0.0666,0.254661 0.0666,0.67138 0,0.926041 -0.0665,0.254662 -0.12099,0.0463 -0.12099,-0.463021 z m -0.01,-2.778125 c 0.005,-0.436562 0.0647,-0.583125 0.13179,-0.325694 0.0671,0.257432 0.0627,0.614619 -0.01,0.79375 -0.0725,0.179131 -0.12735,-0.03149 -0.12197,-0.468056 z M 2.2131762,74.269181 c 0.0127,-0.308227 0.07539,-0.37092 0.1598506,-0.159854 0.07643,0.190995 0.067032,0.419201 -0.020876,0.507119 -0.087918,0.08792 -0.1504527,-0.06835 -0.1389644,-0.347265 z M 161.57858,63.244867 l -0.50404,-0.595313 0.59532,0.504029 c 0.55943,0.473662 0.71575,0.686596 0.50403,0.686596 -0.0502,0 -0.31811,-0.267891 -0.59531,-0.595312 z M 161.47142,50.7757 c 0,-0.05494 0.20836,-0.2633 0.46302,-0.463021 0.41966,-0.329107 0.429,-0.319749 0.0999,0.0999 -0.34565,0.44073 -0.56293,0.580888 -0.56293,0.363125 z M -51.201989,48.626638 c 0.0054,-0.436563 0.06469,-0.583126 0.131773,-0.325694 0.06708,0.257431 0.06267,0.614619 -0.0098,0.79375 -0.07248,0.17913 -0.127363,-0.03149 -0.121971,-0.468056 z M -190.09843,46.377679 c 0,-0.509322 0.0545,-0.717682 0.121,-0.46302 0.0666,0.254661 0.0666,0.67138 0,0.926041 -0.0666,0.254662 -0.121,0.0463 -0.121,-0.463021 z m 74.65827,0.198438 -0.50403,-0.595313 0.59531,0.504029 c 0.55945,0.473662 0.71576,0.686596 0.50403,0.686596 -0.0502,0 -0.3181,-0.26789 -0.59531,-0.595312 z m 127.636978,-5.40626 c 0.190994,-0.07643 0.4192,-0.06703 0.507119,0.02087 0.08792,0.08792 -0.06835,0.150453 -0.347266,0.138965 -0.308226,-0.0127 -0.370919,-0.07539 -0.159853,-0.159851 z m 6.614583,0 c 0.191002,-0.07643 0.419205,-0.06703 0.507127,0.02087 0.08792,0.08792 -0.06837,0.150453 -0.347266,0.138965 -0.30824,-0.0127 -0.370919,-0.07539 -0.159861,-0.159851 z M 151.10306,40.905273 c 0.191,-0.07643 0.41921,-0.06703 0.50713,0.02088 0.0879,0.08792 -0.0684,0.150453 -0.34727,0.138964 -0.30824,-0.0127 -0.37092,-0.07539 -0.15986,-0.15985 z M 53.737669,5.4336451 c 3.102107,-0.042355 8.102732,-0.042302 11.112499,1.19e-4 3.009768,0.042423 0.471673,0.077076 -5.640202,0.077012 -6.111874,-6.62e-5 -8.574404,-0.034774 -5.472297,-0.077131 z"
         id="path28" />
      <path
         style="fill:#000000;fill-opacity:1;stroke-width:0.264583"
         d="m -75.557649,110.12162 c -3.797056,-0.49235 -8.340444,-2.30484 -11.546961,-4.60641 -2.057929,-1.47714 -5.162716,-4.63448 -6.628413,-6.740597 -4.615071,-6.631585 -6.740727,-14.829641 -6.381667,-24.612348 0.171201,-4.664416 0.699974,-7.880762 1.892718,-11.512711 2.67336,-8.14048 8.673845,-15.449634 15.556406,-18.949167 5.743945,-2.920587 13.419534,-3.624643 19.450544,-1.78413 4.304115,1.313505 8.700711,4.401224 10.850147,7.620029 l 1.04477,1.564558 0.165561,-1.207887 c 0.09106,-0.664337 0.165557,-2.500955 0.165557,-4.081372 v -2.873489 h 10.847917 10.847916 V 75.614137 108.29018 H -40.14107 -50.988987 l -0.0313,-3.24115 c -0.01723,-1.78263 -0.106516,-3.57031 -0.198438,-3.97262 -0.164002,-0.71777 -0.191053,-0.6991 -1.44299,0.9962 -4.561223,6.17652 -13.3928,9.28124 -22.895932,8.04901 z M 149.036,110.10726 c -13.39339,-1.3654 -25.11229,-10.698388 -29.11292,-23.185668 -2.20311,-6.876626 -2.19104,-16.000885 0.03,-22.673206 2.7754,-8.337756 8.95331,-15.446988 16.90864,-19.457587 10.88343,-5.486773 26.18201,-5.138478 36.3669,0.827944 8.96374,5.251056 14.65763,13.234435 16.4869,23.116228 0.60386,3.26205 0.6018,10.515197 -0.004,13.758333 -2.1544,11.535092 -9.99623,20.977996 -20.96411,25.244436 -6.05279,2.35449 -12.38829,3.11608 -19.71145,2.36952 z m 23.16311,-45.00664 c 1.7808,-0.914268 3.38264,-2.562437 4.26844,-4.391904 0.96033,-1.983406 1.02405,-5.292079 0.13976,-7.255801 -0.74674,-1.65818 -2.76014,-3.780607 -4.41503,-4.654041 -1.18036,-0.622994 -1.62255,-0.700995 -3.97399,-0.700995 -2.38281,0 -2.78481,0.07321 -4.04399,0.736462 -1.81769,0.957456 -3.40641,2.604963 -4.26466,4.422505 -0.57182,1.210908 -0.68718,1.832761 -0.68718,3.704167 0,1.879782 0.11502,2.494264 0.70062,3.743314 1.08961,2.324102 3.2309,4.183359 5.78167,5.020162 0.3638,0.119348 1.67349,0.182014 2.91042,0.139258 1.79911,-0.06219 2.516,-0.214834 3.58394,-0.763127 z M 10.211691,109.87598 c -13.918863,-1.50686 -24.430168,-9.31932 -28.654508,-21.29726 -2.4735,-7.013509 -2.725314,-15.999121 -0.652497,-23.283333 3.350411,-11.773876 12.2871594,-20.116677 24.6874361,-23.046679 9.1208829,-2.155131 21.3826529,-1.006866 30.6652409,2.871677 1.055026,0.440822 1.918229,0.895331 1.918229,1.01002 0,0.114689 -0.595312,4.285917 -1.322916,9.269397 -0.727604,4.983477 -1.322917,9.220512 -1.322917,9.415631 0,0.282504 -0.202089,0.266322 -0.992187,-0.07945 -1.980115,-0.86657 -6.343253,-2.159277 -8.929687,-2.645681 C 22.060457,61.423173 15.55655,61.414334 12.92498,62.073077 6.5864474,63.659731 2.8797171,67.883806 2.3101274,74.169435 1.368224,84.563713 9.7009371,90.914658 22.443495,89.514477 c 3.689032,-0.405357 7.889901,-1.355283 11.156208,-2.522704 1.40761,-0.5031 2.57773,-0.887627 2.600272,-0.854509 0.02249,0.03312 0.543613,4.215546 1.157949,9.294281 0.910087,7.523605 1.052513,9.278905 0.768906,9.476165 -0.832326,0.57886 -3.992668,1.9144 -6.433529,2.71877 -2.993681,0.98655 -7.048976,1.87617 -10.104437,2.21662 -2.583021,0.28782 -8.854945,0.30595 -11.377173,0.0329 z M -212.38481,75.614137 V 42.938096 h 11.1125 11.1125 l 0.0346,1.918229 c 0.019,1.055026 0.10832,2.786999 0.19844,3.848828 l 0.16385,1.930601 1.18842,-1.635535 c 4.3285,-5.956985 11.8446,-8.861404 20.57869,-7.952134 3.48713,0.363029 6.58429,1.301136 8.97815,2.719411 1.9624,1.162653 4.77572,3.921519 6.03428,5.917475 1.2609,1.999678 1.18432,1.925479 1.46663,1.421008 1.51261,-2.70288 5.0054,-5.904685 8.18603,-7.504041 5.2075,-2.618552 11.90057,-3.389727 18.19003,-2.095854 7.65554,1.574908 12.84967,6.690407 15.26853,15.037395 1.39635,4.818504 1.46861,6.291146 1.46861,29.927671 v 21.81903 h -11.36751 -11.36752 l -0.0774,-19.777606 c -0.077,-19.678078 -0.0804,-19.786388 -0.66915,-21.523028 -1.22072,-3.600519 -3.57115,-5.473419 -7.19429,-5.732655 -3.79586,-0.271593 -7.1831,1.568555 -8.54196,4.640495 -1.38095,3.12185 -1.34597,2.566942 -1.45904,23.144355 l -0.10577,19.248439 h -11.35869 -11.35869 l -0.004,-19.248439 c -0.004,-20.96362 -0.0192,-21.200496 -1.51028,-23.940087 -1.47047,-2.701748 -4.07957,-4.041963 -7.48164,-3.843094 -4.84039,0.282946 -7.69176,3.247509 -8.46336,8.799327 -0.1459,1.049795 -0.25967,9.731695 -0.26264,20.042187 l -0.005,18.190106 h -11.37708 -11.37708 z m 260.150886,-18.659006 0.06681,-51.3350473 11.377082,-1.32e-5 11.377083,-1.06e-5 0.132292,30.5708361 0.132291,30.570833 8.995833,-10.75247 c 4.947708,-5.913858 9.412552,-11.268467 9.921875,-11.899127 l 0.926042,-1.14666 13.178626,-0.0127 c 10.47695,-0.01008 13.1372,0.05511 12.97649,0.31804 -0.19346,0.316492 -23.312222,26.061101 -25.127369,27.98137 l -0.876961,0.927724 14.56452,17.063942 c 8.01049,9.385167 14.92197,17.510422 15.35882,18.056132 l 0.7943,0.99218 -14.11131,-0.0154 -14.111283,-0.0154 -3.844925,-4.81321 c -2.114684,-2.64731 -7.17484,-8.960544 -11.244793,-14.029444 l -7.399867,-9.216189 -0.06847,14.044835 -0.06845,14.044828 H 59.206977 47.699243 l 0.06683,-51.335044 z"
         id="path26" />
    </g>
  </g>
</svg>
