<?xml version="1.0" encoding="UTF-8" standalone="no"?>
<svg
   xmlns:dc="http://purl.org/dc/elements/1.1/"
   xmlns:cc="http://creativecommons.org/ns#"
   xmlns:rdf="http://www.w3.org/1999/02/22-rdf-syntax-ns#"
   xmlns:svg="http://www.w3.org/2000/svg"
   xmlns="http://www.w3.org/2000/svg"
   xmlns:sodipodi="http://sodipodi.sourceforge.net/DTD/sodipodi-0.dtd"
   xmlns:inkscape="http://www.inkscape.org/namespaces/inkscape"
   width="421.3454mm"
   height="131.21895mm"
   viewBox="0 0 421.3454 131.21895"
   version="1.1"
   id="svg8"
   sodipodi:docname="logo-light.svg"
   inkscape:version="1.0.2 (e86c870879, 2021-01-15)">
  <defs
     id="defs2" />
  <sodipodi:namedview
     id="base"
     pagecolor="#ffffff"
     bordercolor="#666666"
     borderopacity="1.0"
     inkscape:pageopacity="0.0"
     inkscape:pageshadow="2"
     inkscape:zoom="0.35"
     inkscape:cx="749.11266"
     inkscape:cy="52.486331"
     inkscape:document-units="mm"
     inkscape:current-layer="layer1"
     inkscape:document-rotation="0"
     showgrid="false"
     fit-margin-top="0"
     fit-margin-left="0"
     fit-margin-right="0"
     fit-margin-bottom="0"
     inkscape:window-width="1366"
     inkscape:window-height="712"
     inkscape:window-x="0"
     inkscape:window-y="31"
     inkscape:window-maximized="1"
     showguides="true" />
  <metadata
     id="metadata5">
    <rdf:RDF>
      <cc:Work
         rdf:about="">
        <dc:format>image/svg+xml</dc:format>
        <dc:type
           rdf:resource="http://purl.org/dc/dcmitype/StillImage" />
        <dc:title></dc:title>
      </cc:Work>
    </rdf:RDF>
  </metadata>
  <g
     inkscape:label="Layer 1"
     inkscape:groupmode="layer"
     id="layer1"
     transform="translate(92.369392,-59.343402)">
    <path
       style="fill:#000000;stroke-width:0.264583"
       d="m 79.874398,190.39288 c -7.98764,-0.85543 -14.804,-4.23556 -20.49214,-10.1618 -6.15943,-6.41723 -10.03806,-15.18869 -11.2782,-25.50539 -0.44807,-3.72752 -0.38045,-11.80699 0.12816,-15.31174 2.17173,-14.96512 10.41783,-26.97116 22.47961,-32.72958 10.21509,-4.87678 23.44218,-3.90012 31.652152,2.33713 2.123,1.61288 4.75223,4.39639 5.74002,6.07684 l 0.74228,1.26278 0.17042,-2.38125 c 0.0937,-1.30969 0.18302,-3.60164 0.19843,-5.09323 l 0.028,-2.71198 h 13.62604 13.62605 v 40.87812 40.87812 h -13.62603 -13.62604 l -0.001,-2.05052 c -8e-4,-1.12778 -0.0775,-3.37434 -0.17073,-4.99234 l -0.16953,-2.94185 -1.55294,2.06092 c -4.16309,5.52482 -10.382092,9.03689 -17.983312,10.15571 -2.54716,0.37492 -7.1064,0.48543 -9.49104,0.23006 z m 198.201262,-0.11859 c -19.07132,-1.9935 -34.45206,-15.52448 -38.12302,-33.5381 -1.54307,-7.57203 -1.11903,-16.60343 1.10686,-23.57404 4.58989,-14.37369 16.78443,-25.18969 32.09303,-28.4651 8.54385,-1.82803 19.03294,-1.31249 26.9875,1.32644 2.94889,0.97829 7.54375,3.26121 10.3413,5.138 9.50171,6.37439 15.61068,15.53389 17.89292,26.82788 0.52221,2.58429 0.60177,3.78249 0.60177,9.06341 0,5.27686 -0.0798,6.48012 -0.60037,9.05609 -1.16342,5.75656 -3.71475,11.71342 -7.02175,16.39442 -2.14542,3.0368 -6.56299,7.4405 -9.70449,9.67409 -3.04268,2.16329 -8.50014,4.9303 -11.86275,6.01459 -6.44377,2.07782 -14.42813,2.84361 -21.711,2.08232 z m 31.64737,-55.99625 c 1.94043,-0.74431 3.87176,-2.24026 5.09172,-3.94394 1.49675,-2.09018 1.99131,-3.72055 1.99131,-6.56466 0,-1.60671 -0.15438,-2.82495 -0.47464,-3.74536 -1.03933,-2.98709 -3.90268,-5.85043 -6.88977,-6.88976 -1.85225,-0.64448 -5.63849,-0.64448 -7.49073,0 -4.1407,1.44072 -7.08393,5.34197 -7.42463,9.84137 -0.40381,5.33248 2.9926,10.18942 8.13369,11.63143 1.90153,0.53336 5.2174,0.37886 7.06305,-0.32908 z m -402.092392,12.77474 v -40.87812 h 14.02292 14.02292 l 0.0296,2.3151 c 0.0163,1.27331 0.10558,3.43066 0.19843,4.79412 l 0.16883,2.47902 1.27732,-1.8726 c 5.04292,-7.39304 15.03866,-11.29934 25.89634,-10.12019 8.764632,0.95184 15.04901,4.74245 19.26051,11.61753 0.4743,0.77428 0.94541,1.31006 1.04691,1.19062 0.10151,-0.11943 0.72788,-0.99405 1.39194,-1.94361 2.44973,-3.50293 6.5612296,-6.71268 10.9924196,-8.58152 7.41171,-3.12586 17.6904904,-3.29946 25.1209904,-0.42427 8.31959,3.21923 13.9135,10.97394 15.80826,21.91466 0.79038,4.5638 0.93297,9.90815 0.93528,35.05353 l 0.002,25.33385 H 23.531868 9.2584076 l -0.099,-24.14323 c -0.0909,-22.16017 -0.13801,-24.29535 -0.57382,-25.99531 -1.43013,-5.57856 -4.36761,-8.28959 -9.26022003,-8.54639 -6.11717997,-0.32107 -9.83843957,2.4043 -11.69214957,8.56304 -0.43624,1.44934 -0.47952,3.44857 -0.55954,25.84637 l -0.0867,24.27552 h -14.264002 -14.264268 l -0.099,-24.14323 c -0.0909,-22.16017 -0.13801,-24.29535 -0.57382,-25.99531 -1.03107,-4.02193 -2.5899,-6.22232 -5.38098,-7.59566 -1.69118,-0.83214 -1.90618,-0.871 -4.81754,-0.87079 -2.78244,2.1e-4 -3.18536,0.0646 -4.63486,0.74071 -2.13921,0.99782 -3.8618,2.74646 -4.87854,4.9523 -1.74488,3.78557 -1.69485,2.97406 -1.79827,29.16563 l -0.0938,23.74635 h -14.27564 -14.27565 z M 151.04732,123.63715 V 59.343402 h 14.41889 14.41892 l 0.067,38.224773 0.067,38.224765 12.31807,-14.743 12.31807,-14.74299 16.61039,-0.0681 c 9.13569,-0.0375 16.57038,0.0294 16.52148,0.14857 -0.0489,0.11919 -7.41119,8.34054 -16.36072,18.26966 -8.94953,9.92912 -16.24994,18.11403 -16.22317,18.18868 0.0268,0.0746 8.53977,10.08969 18.91771,22.25566 10.37797,12.16597 18.96423,22.27959 19.08059,22.47474 0.17605,0.29523 -2.75558,0.35478 -17.46512,0.35478 h -17.67664 l -14.0203,-17.47581 -14.02029,-17.4758 -0.068,17.4758 -0.068,17.47581 H 165.46523 151.04732 Z M -61.296772,99.589665 c -0.70106,-0.31842 -1.22543,-0.79898 -1.50936,-1.38325 l -0.43509,-0.8953 1.29757,-0.0795 c 1.02452,-0.0628 1.41173,0.0346 1.84009,0.46302 0.71499,0.71499 2.2153,0.72184 2.92379,0.0134 0.37341,-0.37341 0.52916,-0.88194 0.52916,-1.72771 v -1.19855 l -0.81607,0.60323 c -1,0.7392 -2.69472,0.77138 -3.87596,0.0736 -2.69753,-1.59347 -2.62507,-6.937906 0.11703,-8.632618 1.13994,-0.704522 2.92544,-0.769935 3.88338,-0.142269 0.82761,0.542274 0.95621,0.548203 0.95621,0.0441 0,-0.293982 0.30868,-0.396875 1.19062,-0.396875 h 1.19063 v 4.987602 c 0,5.20572 -0.17146,6.30076 -1.16113,7.41577 -1.2302,1.385985 -4.08558,1.784385 -6.13087,0.85539 z m 3.68957,-5.83881 c 1.33751,-0.50852 1.59624,-4.29608 0.35295,-5.166919 -0.85402,-0.598178 -1.97124,-0.495956 -2.71567,0.248484 -0.54736,0.547354 -0.64944,0.902725 -0.64944,2.260985 0,1.35825 0.10208,1.71363 0.64944,2.26098 0.6965,0.69651 1.30499,0.79862 2.36272,0.39647 z m 67.3670096,5.31185 c 0,-1.05986 0.0246,-1.09013 0.8850304,-1.09013 0.91005,0 1.76126,-0.64981 1.76026,-1.34375 -2.6e-4,-0.20683 -0.69858,-2.34058 -1.55173,-4.74167 -0.85316,-2.4011 -1.6369304,-4.64009 -1.7417204,-4.975544 -0.18428,-0.589955 -0.14488,-0.607277 1.2037104,-0.529167 l 1.39423,0.08075 0.96198,3.370041 c 0.5291,1.85351 1.02397,3.43201 1.09972,3.50776 0.0757,0.0757 0.40365,-0.84546 0.72867,-2.04712 0.32503,-1.20167 0.76912,-2.809926 0.98689,-3.57391 l 0.39593,-1.389063 h 1.28349 1.2835 l -1.9978,5.987083 c -2.39288,7.17107 -2.63599,7.54146 -5.06533,7.717185 l -1.6268304,0.11767 z m -87.0479196,-5.98493 v -6.746872 h 1.32292 c 1.14652,0 1.32291,0.07056 1.32291,0.529167 0,0.626949 0.33599,0.683863 0.79218,0.134191 0.18029,-0.217238 0.79156,-0.519856 1.35838,-0.672483 2.23982,-0.603123 4.35713,1.23843 4.64407,4.039237 0.42787,4.17626 -2.95794,7.31277 -5.93473,5.49779 l -0.8599,-0.52429 v 2.24507 2.24507 h -1.32291 -1.32292 z m 5.8104,0.93163 c 1.00685,-0.53885 1.37417,-2.99581 0.69198,-4.628533 -0.65498,-1.567593 -3.00518,-1.550607 -3.60463,0.02606 -0.56485,1.48567 -0.20268,4.09125 0.64759,4.65899 0.41757,0.27882 1.69819,0.24687 2.26506,-0.0565 z m -17.95573,2.05589 c -1.49327,-0.8023 -1.7086,-1.4807 -1.83035,-5.76652 l -0.11272,-3.967872 h 1.35566 1.35566 l 0.004,3.241142 c 0.005,3.87685 0.23308,4.52744 1.63069,4.64469 1.56101,0.13095 1.805,-0.47804 1.805,-4.50512 v -3.380712 h 1.32292 1.32292 v 4.894792 4.89479 h -1.32292 c -1.18188,0 -1.32292,-0.0613 -1.32292,-0.57528 v -0.57529 l -0.64498,0.60593 c -0.77597,0.72898 -2.64033,0.9851 -3.56285,0.48945 z m 51.9161,-0.0675 c -1.47437,-0.64125 -2.077,-2.55763 -1.28555,-4.08812 0.50912,-0.98453 1.85874,-1.59242 3.973957,-1.78994 1.529422,-0.14282 1.725779,-0.22472 1.722192,-0.718256 -0.0061,-0.835528 -0.330044,-1.192726 -1.248334,-1.376384 -0.670517,-0.134104 -0.961448,-0.0336 -1.520225,0.525182 -0.51199,0.511988 -0.96211,0.691023 -1.73733,0.691023 -1.15174,0 -1.23967,-0.181536 -0.64496,-1.331576 0.57533,-1.112555 1.78442,-1.644987 3.735582,-1.644987 2.059765,0 3.268562,0.627653 3.719489,1.931295 0.179115,0.517832 0.322257,2.430293 0.330729,4.418703 l 0.01493,3.50573 h -1.162317 c -0.790319,0 -1.211176,-0.12732 -1.314974,-0.39781 -0.130742,-0.34071 -0.277247,-0.32186 -1.020496,0.1313 -1.004377,0.61236 -2.359643,0.66708 -3.562693,0.14384 z m 3.885483,-1.99399 c 0.32758,-0.32759 0.529166,-0.88195 0.529166,-1.45521 0,-0.91401 -0.01471,-0.92604 -1.131752,-0.92604 -1.430767,0 -2.307827,0.5889 -2.307827,1.54958 0,0.39921 0.14287,0.86871 0.3175,1.04333 0.50308,0.50308 2.000397,0.38085 2.592913,-0.21166 z m 10.054167,1.80738 c -2.610207,-1.75048 -2.837696,-6.719332 -0.395573,-8.640305 1.379503,-1.085117 2.787003,-1.217732 4.695053,-0.44237 0.41968,0.170545 0.46302,-0.025 0.46302,-2.089111 v -2.277266 h 1.32292 1.32291 v 6.879167 6.879165 h -1.32291 c -0.99954,0 -1.32292,-0.097 -1.32292,-0.39687 0,-0.51299 -0.2391,-0.50196 -0.83638,0.0386 -0.26465,0.2395 -1.04793,0.48823 -1.74063,0.55274 -1.00858,0.0939 -1.4439,-0.006 -2.18549,-0.50373 z m 3.863,-1.74529 c 0.59684,-0.39853 0.8995,-1.39688 0.8995,-2.96714 0,-1.36396 -0.1016,-1.718527 -0.64943,-2.266355 -0.82251,-0.82251 -1.7613,-0.826281 -2.70925,-0.01087 -0.68512,0.589315 -0.74236,0.784945 -0.74236,2.536925 0,1.67585 0.0732,1.95765 0.62462,2.40416 0.62405,0.50532 2.02705,0.67045 2.57692,0.3033 z m 10.6905796,1.72384 c -1.5439396,-0.78627 -2.3827496,-2.34131 -2.3827496,-4.41732 0,-1.71368 0.78642,-3.525877 1.8731396,-4.31643 1.95175,-1.419831 5.21862,-0.938917 6.4566,0.95047 0.4584,0.699617 0.94497,3.00641 0.74439,3.52912 -0.10172,0.26509 -0.90889,0.35156 -3.2816,0.35156 -3.11163,0 -3.14669,0.007 -3.14669,0.61157 0,0.33636 0.24276,0.87214 0.53947,1.19062 0.72656,0.77987 2.48711,0.80953 2.96151,0.0499 0.25528,-0.40875 0.61702,-0.52916 1.58975,-0.52916 0.6926,0 1.25927,0.0752 1.25927,0.1672 0,0.59858 -1.25836,1.99908 -2.21018,2.45986 -1.4676,0.71045 -2.94607,0.69454 -4.40291,-0.0474 z m 4.11082,-6.21771 c -0.26092,-1.064223 -0.80645,-1.494872 -1.89367,-1.494872 -1.04681,0 -1.95406,0.799807 -1.95406,1.722642 0,0.44629 0.21574,0.49986 2.01306,0.49986 h 2.01305 z m 29.4791904,6.20376 c -1.71856,-0.9088 -2.43718,-2.40678 -2.32152,-4.83928 0.0745,-1.566533 0.21122,-2.036618 0.82746,-2.844547 0.96708,-1.267897 2.1117,-1.832891 3.74673,-1.849411 2.44656,-0.02471 4.03086,1.184674 4.66683,3.562478 0.66604,2.49027 -0.31316,4.92893 -2.40306,5.98471 -1.51712,0.76643 -3.04967,0.7617 -4.51644,-0.0139 z m 3.85303,-2.14087 c 0.89352,-1.36369 0.81268,-3.97182 -0.15304,-4.93754 -0.63946,-0.639456 -1.85934,-0.66343 -2.61483,-0.05139 -1.14219,0.92533 -1.21892,3.91047 -0.1314,5.11217 0.69388,0.76673 2.36261,0.6958 2.89927,-0.12324 z m 9.76268,2.38911 c -1.38945,-0.62959 -1.69888,-1.71565 -1.69888,-5.96282 v -3.730322 h 1.32292 1.32291 v 3.530872 c 0,3.08462 0.0611,3.58621 0.48386,3.96875 0.50557,0.45754 1.54126,0.5721 2.07928,0.23001 0.62689,-0.39862 0.87645,-1.73806 0.87645,-4.704148 v -3.025484 h 1.32291 1.32292 v 4.894792 4.89479 h -1.32292 c -1.18188,0 -1.32291,-0.0613 -1.32291,-0.57528 v -0.57529 l -0.64499,0.60593 c -0.79617,0.74796 -2.60248,0.96434 -3.74155,0.4482 z m 31.45773,-0.15316 c -1.0074,-0.45737 -1.93578,-1.60028 -1.93578,-2.38309 0,-0.15275 0.49237,-0.27772 1.09414,-0.27772 0.82722,0 1.24369,0.16136 1.70716,0.66145 0.41759,0.45059 0.89118,0.66017 1.48555,0.65741 1.16417,-0.005 1.59883,-0.32148 1.49099,-1.0842 -0.0752,-0.53177 -0.42307,-0.74324 -2.20193,-1.33858 -2.62388,-0.87813 -3.43384,-1.67715 -3.23124,-3.187595 0.23912,-1.782749 1.53436,-2.67312 3.88867,-2.67312 2.05576,0 3.39686,0.749509 3.8219,2.135984 0.16898,0.551201 0.10096,0.595313 -0.91807,0.595313 -0.69995,0 -1.34546,-0.192627 -1.7733,-0.529167 -1.09643,-0.862446 -2.45345,-0.631362 -2.45345,0.41779 0,0.534647 0.22152,0.689505 1.52135,1.063575 2.00128,0.57592 3.42342,1.31004 3.76147,1.94169 0.15039,0.281 0.27343,0.92632 0.27343,1.43404 0,2.48738 -3.59402,3.8996 -6.53089,2.56622 z m 50.006252,0 c -1.00739,-0.45737 -1.93577,-1.60028 -1.93577,-2.38309 0,-0.15275 0.49236,-0.27772 1.09414,-0.27772 0.82722,0 1.24368,0.16136 1.70716,0.66145 1.07052,1.15512 3.22378,0.73305 2.97229,-0.5826 -0.0635,-0.33206 -0.72804,-0.68925 -2.20062,-1.18277 -2.63046,-0.88156 -3.431,-1.6764 -3.22621,-3.203226 0.18628,-1.388817 1.02614,-2.217571 2.5864,-2.552185 2.14237,-0.459459 4.15754,0.185965 4.86758,1.559 0.54816,1.060066 0.54374,1.066993 -0.68141,1.066993 -0.6821,0 -1.33166,-0.1958 -1.75547,-0.529167 -1.09642,-0.862446 -2.45345,-0.631362 -2.45345,0.41779 0,0.534647 0.22152,0.689505 1.52136,1.063575 2.00128,0.57592 3.42342,1.31004 3.76147,1.94169 0.15039,0.281 0.27343,0.92632 0.27343,1.43404 0,2.48738 -3.59403,3.8996 -6.5309,2.56622 z m -168.358702,-4.64519 v -4.894792 h 1.32292 c 1.31077,0 1.32292,0.0078 1.32292,0.843251 v 0.843251 l 0.74752,-0.716169 c 0.41113,-0.393896 1.12551,-0.824579 1.5875,-0.957074 l 0.83998,-0.240904 v 1.304449 c 0,1.267505 -0.0221,1.304446 -0.779,1.304446 -0.44124,0 -1.0997,0.275858 -1.51867,0.636239 -0.7178,0.617423 -0.74254,0.726933 -0.83706,3.704163 l -0.0974,3.06793 h -1.29436 -1.29436 z m 99.21876,0 v -4.894792 h 1.32291 c 1.30717,0 1.32292,0.0099 1.32292,0.832385 v 0.832387 l 0.64882,-0.700096 c 0.35686,-0.38505 0.68507,-0.700092 0.72935,-0.700092 0.0443,0 0.4667,-0.110752 0.93868,-0.246113 l 0.85815,-0.246116 v 1.304449 c 0,1.208347 -0.0478,1.304446 -0.64901,1.304446 -0.97797,0 -1.9036,0.510972 -2.23223,1.232252 -0.16157,0.3546 -0.29376,1.88928 -0.29376,3.41041 v 2.76567 h -1.32292 -1.32291 z M 80.932728,89.2413 v -6.879167 h 1.32292 1.32291 v 4.12749 4.127482 l 1.73032,-2.143107 1.73032,-2.143115 h 1.46946 1.46945 l -1.73368,1.872544 -1.73369,1.872538 1.65805,2.69152 c 0.91192,1.48034 1.74749,2.84035 1.85682,3.02225 0.14938,0.24856 -0.16207,0.33073 -1.25352,0.33073 h -1.45229 l -1.09192,-1.97806 c -0.60055,-1.08793 -1.2117,-2.05209 -1.35812,-2.14258 -0.14641,-0.0905 -0.49683,0.0442 -0.7787,0.29927 -0.40436,0.36594 -0.5125,0.81803 -0.5125,2.14259 v 1.67878 h -1.32291 -1.32292 z m 13.49375,1.984375 v -4.894792 h 1.19063 1.19062 v 4.894792 4.89479 h -1.19062 -1.19063 z M 102.36398,89.2413 v -6.879167 h 1.32292 1.32292 v 6.879167 6.879165 h -1.32292 -1.32292 z m 7.9375,0 v -6.879167 h 1.32292 1.32292 v 6.879167 6.879165 h -1.32292 -1.32292 z M 94.426478,83.552778 v -1.190625 h 1.19063 1.19062 v 1.190625 1.190625 h -1.19062 -1.19063 z"
       id="path24" />
  </g>
</svg>
