<?xml version="1.0" encoding="iso-8859-1"?>
<!-- Generator: Adobe Illustrator 21.0.0, SVG Export Plug-In . SVG Version: 6.00 Build 0)  -->
<svg version="1.1" id="Capa_1" xmlns="http://www.w3.org/2000/svg" xmlns:xlink="http://www.w3.org/1999/xlink" x="0px" y="0px"
	 viewBox="0 0 512.001 512.001" style="enable-background:new 0 0 512.001 512.001;" xml:space="preserve">
<path style="fill:#CEC1E7;" d="M141.827,356.132l-7.636,9.647L52.088,472.134l-2.071,2.689l4.181,35.921
	c0.092,0.789,0.814,1.351,1.602,1.244l35.841-4.844l2.421-3.142l76.591-99.216l4.575-9.31L141.827,356.132z"/>
<g>
	<polygon style="fill:#4F4F74;" points="119.675,28.176 73.375,62.24 75.475,65.205 125.454,129.557 125.454,129.577 
		125.455,129.577 126.031,137.406 187.178,130.838 187.178,115.03 187.178,115.019 	"/>
	<polygon style="fill:#4F4F74;" points="394.718,24.929 324.82,114.851 324.82,131.217 386.495,131.217 386.832,129.018 
		436.369,65.235 436.526,65.205 440.313,60.658 	"/>
</g>
<polygon style="fill:#32314B;" points="391.125,29.552 375.659,49.448 421.175,84.799 436.369,65.235 436.526,65.205 
	436.647,65.059 "/>
<g>
	<path style="fill:#FECF54;" d="M457.049,35.832c5.564,4.317,6.573,12.322,2.256,17.886l-6.316,8.129
		c-4.317,5.564-12.332,6.563-17.896,2.246L392.42,30.949c-5.564-4.317-6.563-12.332-2.246-17.886l6.316-8.129
		c4.317-5.564,12.322-6.573,17.886-2.256L457.049,35.832z"/>
	<path style="fill:#FECF54;" d="M121.827,13.063c4.317,5.553,3.317,13.569-2.246,17.886L76.907,64.093
		c-5.563,4.317-13.569,3.317-17.896-2.246l-6.305-8.129c-4.327-5.564-3.318-13.569,2.246-17.886L97.626,2.678
		c5.564-4.317,13.569-3.307,17.886,2.256L121.827,13.063z"/>
</g>
<g>
	
		<rect x="108.759" y="84.751" transform="matrix(0.7898 -0.6134 0.6134 0.7898 -31.2943 105.0284)" style="fill:#32314B;" width="57.646" height="26.839"/>
	<polygon style="fill:#32314B;" points="120.983,29.86 75.475,65.205 90.744,84.863 136.258,49.511 	"/>
</g>
<path style="fill:#CEC1E7;" d="M459.913,472.134l-81.711-105.841l-3.498-3.906l-37.708,36.224l4.631,6.534l76.313,98.845
	l2.431,3.153l35.831,4.844c0.788,0.106,1.509-0.454,1.602-1.244l4.181-35.921L459.913,472.134z"/>
<path style="fill:#BDACE5;" d="M378.202,366.294l81.711,105.841l-0.01,0.01l-32.145,1.566l-66.463-86.461
	C367.466,380.708,373.122,373.691,378.202,366.294z"/>
<path style="fill:#EDE6F5;" d="M418.321,503.702l9.437-29.991l32.145-1.566l0.01-0.01l2.071,2.689l-4.181,35.92
	c-0.092,0.79-0.814,1.351-1.602,1.244l-35.831-4.844l-2.431-3.153L418.321,503.702z"/>
<polygon style="fill:#32314B;" points="388.879,126.384 405.339,105.188 359.821,69.824 343.345,91.019 "/>
<path style="fill:#A85C3B;" d="M262.522,72.057c17.051,19.689,38.151,33.546,62.373,42.87c18.906,7.274,39.717,11.786,62.012,14.166
	c2.988,0.319,5.996,0.598,9.036,0.845c7.284,0.587,12.909,6.635,12.909,13.94v123.644c0,36.091-11.117,70.327-30.651,98.773
	c-5.079,7.397-10.736,14.414-16.907,20.956c-6.068,6.439-12.642,12.425-19.668,17.896c-13.301,10.375-28.25,18.916-44.539,25.19
	l-30.816,11.869c-6.367,2.452-13.435,2.452-19.802,0l-30.816-11.869c-16.474-6.347-31.588-15.011-45.003-25.551
	c-7.016-5.502-13.569-11.508-19.617-17.968c-6.151-6.573-11.786-13.61-16.845-21.038c-19.318-28.353-30.3-62.383-30.3-98.258
	V144.176c0-7.356,5.708-13.486,13.054-13.94c2.864-0.175,5.708-0.402,8.51-0.659c22.553-2.112,43.138-6.954,61.724-14.548
	c23.933-9.788,44.549-24.15,61.796-43.189C252.621,67.822,258.978,67.967,262.522,72.057z"/>
<path style="fill:#A04830;" d="M314.919,418.921l-30.816-11.869c-16.474-6.347-31.588-15.011-45.003-25.551
	c-7.016-5.502-13.569-11.508-19.617-17.968c-6.151-6.573-11.786-13.61-16.845-21.038c-19.318-28.353-30.301-62.383-30.301-98.258
	V120.892c0-0.178,0.019-0.352,0.026-0.53c-14.548,4.578-30.187,7.649-46.911,9.215c-2.802,0.258-5.646,0.484-8.51,0.659
	c-7.346,0.453-13.054,6.583-13.054,13.94v123.345c0,35.874,10.983,69.904,30.3,98.258c5.059,7.428,10.694,14.465,16.845,21.038
	c6.048,6.46,12.6,12.466,19.617,17.968c13.414,10.54,28.528,19.204,45.003,25.551l30.816,11.869c6.367,2.452,13.435,2.452,19.802,0
	l30.816-11.869c7.597-2.926,14.889-6.365,21.872-10.234C317.593,419.806,316.239,419.429,314.919,418.921z"/>
<path style="fill:#BDACE5;" d="M170.652,404.785l-76.591,99.216l-0.381-0.299l-9.437-29.991l66.793-86.894
	C157.083,393.277,163.636,399.284,170.652,404.785z"/>
<g>
	<path style="fill:#EDE6F5;" d="M93.68,503.702l0.381,0.299l-2.421,3.142l-35.841,4.844c-0.788,0.106-1.509-0.454-1.602-1.244
		l-4.181-35.921l2.071-2.689l0.01,0.01l32.145,1.566L93.68,503.702z"/>
	<path style="fill:#EDE6F5;" d="M379.327,155.201c1.558,0.188,2.738,1.5,2.738,3.069v109.251c0,29.971-8.963,58.87-25.932,83.586
		c-16.958,24.706-40.706,43.457-68.678,54.234l-30.805,11.869c-0.093,0.031-0.185,0.041-0.278,0.041s-0.185-0.01-0.278-0.041
		l-30.805-11.869c-27.972-10.777-51.72-29.528-68.678-54.234c-16.969-24.716-25.932-53.616-25.932-83.586V158.745
		c0-1.578,1.192-2.894,2.76-3.072c47.902-5.43,88.109-22.384,119.938-50.553c1.189-1.052,2.961-1.044,4.142,0.019
		C287.978,132.546,328.121,149.032,379.327,155.201z"/>
</g>
<path style="fill:#E0D3F2;" d="M209.3,383.334c-16.969-24.716-25.932-53.616-25.932-83.586v-79.213
	c0-17.845,12.424-33.267,29.85-37.113c36.145-7.976,67.213-23.388,92.847-46.075c0.353-0.312,0.76-0.52,1.186-0.645
	c-18.829-8.132-35.362-18.631-49.736-31.563c-1.18-1.061-2.953-1.07-4.142-0.019c-31.828,28.169-72.036,45.124-119.938,50.553
	c-1.568,0.178-2.76,1.494-2.76,3.072v108.776c0,29.971,8.963,58.87,25.932,83.586c16.958,24.706,40.706,43.457,68.678,54.234
	l4.196,1.617C222.005,399.863,215.229,391.972,209.3,383.334z"/>
<path style="fill:#FECF54;" d="M297.109,235.5c11.56,0,16.361,14.785,7.016,21.574l-11.158,8.108
	c-4.183,3.039-5.934,8.417-4.337,13.332l4.265,13.115c3.565,10.993-9.005,20.132-18.36,13.332l-11.158-8.098
	c-4.173-3.039-9.839-3.039-14.012,0l-11.158,8.098c-9.355,6.8-21.924-2.339-18.36-13.332l4.265-13.115
	c1.597-4.914-0.155-10.292-4.337-13.332l-11.158-8.108c-9.345-6.79-4.544-21.574,7.016-21.574h13.785
	c5.172,0,9.746-3.328,11.343-8.242l4.265-13.115c3.575-10.993,19.112-10.993,22.687,0l4.265,13.115
	c1.597,4.914,6.171,8.242,11.343,8.242L297.109,235.5L297.109,235.5z"/>
<path style="fill:#F7C852;" d="M244.288,300.019l4.265-13.115c1.597-4.914-0.155-10.292-4.337-13.332l-11.158-8.108
	c-9.345-6.79-4.544-21.574,7.016-21.574h13.785c5.172,0,9.746-3.328,11.343-8.242l4.265-13.115c0.155-0.474,0.338-0.92,0.535-1.353
	l-2.288-7.036c-3.575-10.993-19.112-10.993-22.687,0l-4.265,13.115c-1.597,4.914-6.171,8.242-11.343,8.242h-13.785
	c-11.56,0-16.361,14.785-7.016,21.574l11.158,8.108c4.183,3.039,5.934,8.417,4.337,13.332l-4.265,13.115
	c-3.565,10.993,9.005,20.132,18.36,13.332l5.894-4.278C244.16,300.462,244.216,300.242,244.288,300.019z"/>
<g>
</g>
<g>
</g>
<g>
</g>
<g>
</g>
<g>
</g>
<g>
</g>
<g>
</g>
<g>
</g>
<g>
</g>
<g>
</g>
<g>
</g>
<g>
</g>
<g>
</g>
<g>
</g>
<g>
</g>
</svg>
