<?xml version="1.0" encoding="iso-8859-1"?>
<!-- Generator: Adobe Illustrator 21.0.0, SVG Export Plug-In . SVG Version: 6.00 Build 0)  -->
<svg version="1.1" id="Capa_1" xmlns="http://www.w3.org/2000/svg" xmlns:xlink="http://www.w3.org/1999/xlink" x="0px" y="0px"
	 viewBox="0 0 512 512" style="enable-background:new 0 0 512 512;" xml:space="preserve">
<path style="fill:#CEC1E7;" d="M111.924,268.835L46.646,245.16c-1.122-0.407-2.361,0.172-2.77,1.294l-1.144,3.147
	c-6.535,18.021-7.225,36.752-3.057,54.094l122.424,91.052l3.672-0.268h0.01l0.731,0.268l1.883-5.177
	C186.139,340.631,160.862,286.578,111.924,268.835z"/>
<path style="fill:#BEB2DB;" d="M79.377,290.318H47.452h-9.987c0.417,4.524,1.158,8.994,2.211,13.375l116.148,86.384h12.387
	l0.185-0.509c2.046-5.643,3.513-11.354,4.444-17.069C166.924,326.144,127.331,290.318,79.377,290.318z"/>
<path style="fill:#EDE6F5;" d="M71.601,303.694c50.883,0,92.359,40.334,94.171,90.785c0.051,1.153,0.072,2.305,0.072,3.468v5.506
	H96.572C43.236,403.453,0,360.216,0,306.881v-0.87c0-1.28,1.038-2.319,2.319-2.319h37.356h31.925V303.694z"/>
<path style="fill:#DED6EA;" d="M165.508,390.077h-46.292c-49.894,0-90.947-37.839-96.037-86.384H2.319
	c-1.28,0-2.319,1.038-2.319,2.319v0.87c0,53.333,43.236,96.571,96.572,96.571h69.271v-5.506c0-1.163-0.021-2.316-0.072-3.468
	C165.719,393.002,165.628,391.536,165.508,390.077z"/>
<path style="fill:#9965CA;" d="M475.484,402.362c19.92,0,36.121,15.953,36.508,35.79c0.399,20.479-16.747,37.241-37.23,37.241
	H373.735c-0.614,0-1.174-0.351-1.442-0.904l-8.863-18.279c-0.553-1.14-2.147-1.219-2.809-0.138l-11.369,18.555
	c-0.291,0.475-0.809,0.766-1.367,0.766H208.824c-0.638,0-1.217-0.379-1.471-0.964l-3.221-7.424c-0.53-1.222-2.232-1.302-2.875-0.135
	l-4.236,7.693c-0.282,0.512-0.82,0.83-1.404,0.83h-39.962c-20.483,0-37.629-16.762-37.23-37.241
	c0.387-19.837,16.589-35.79,36.508-35.79h24.165h271.273L475.484,402.362L475.484,402.362z"/>
<g>
	<path style="fill:#8959C1;" d="M441.184,461.974h-31.861h-25.851h-17.249l6.068,12.514c0.268,0.553,0.828,0.904,1.442,0.904
		h101.028c11.44,0,21.836-5.232,28.719-13.417H441.184z"/>
	<path style="fill:#8959C1;" d="M244.413,461.974h-13.207h-7.785h-32.177c-20.483,0-37.629-16.762-37.23-37.241
		c0.166-8.485,3.231-16.253,8.237-22.372h-7.316c-19.919,0-36.121,15.953-36.508,35.79c-0.399,20.479,16.747,37.241,37.23,37.241
		h39.962c0.585,0,1.122-0.318,1.404-0.83l4.236-7.693c0.642-1.166,2.344-1.087,2.875,0.135l3.221,7.424
		c0.254,0.586,0.832,0.964,1.471,0.964h139.06c0.558,0,1.076-0.29,1.367-0.766l7.753-12.652L244.413,461.974L244.413,461.974z"/>
</g>
<path style="fill:#CF8AFA;" d="M455.22,415.762c2.47,6.865-2.604,14.1-9.901,14.1H184.152c-7.297,0-12.371-7.235-9.901-14.1
	l47.053-130.177c0.403-1.115,1.36-1.939,2.523-2.172l37.689-7.54c2.089-0.422,2.275-3.345,0.247-4.024l-28.382-9.46
	c-1.807-0.602-2.763-2.575-2.116-4.367l36.426-100.814l15.139-47.106c1.513-4.734,5.094-8.655,9.87-10.806l137.52-62.091
	c5.897-2.666,11.558,4.127,7.884,9.448L361.78,157.208L455.22,415.762z"/>
<path style="fill:#C283FF;" d="M208.525,415.762l47.053-130.176c0.403-1.116,1.36-1.939,2.523-2.172l37.689-7.54
	c2.089-0.422,2.275-3.345,0.247-4.024l-28.382-9.46c-1.807-0.602-2.763-2.575-2.116-4.367l36.426-100.814l15.139-47.106
	c1.513-4.734,5.094-8.655,9.87-10.806L435.63,50.239l2.474-3.584c3.674-5.321-1.986-12.114-7.884-9.448l-137.52,62.09
	c-4.775,2.151-8.357,6.072-9.87,10.806l-15.139,47.106l-36.426,100.814c-0.647,1.792,0.309,3.765,2.116,4.367l28.382,9.46
	c2.027,0.679,1.842,3.602-0.247,4.024l-37.689,7.54c-1.163,0.233-2.119,1.056-2.523,2.172l-47.053,130.176
	c-2.47,6.865,2.604,14.1,9.901,14.1h34.273C211.128,429.862,206.055,422.626,208.525,415.762z"/>
<path style="fill:#EE8E3E;" d="M434.605,358.735l11.311,31.298h-73.33c-0.031,0.103-62.595,0-62.595,0H183.556l11.311-31.298
	h115.125h62.595H434.605z"/>
<polygon style="fill:#EA8032;" points="194.866,358.735 183.556,390.032 217.824,390.032 229.137,358.735 "/>
<path style="fill:#FECF54;" d="M358.116,342.617h-33.654c-7.986,0-14.47,6.474-14.47,14.47v33.654c0,7.987,6.484,14.47,14.47,14.47
	h33.654c7.997,0,14.47-6.484,14.47-14.47v-33.654C372.586,349.091,366.113,342.617,358.116,342.617z M350.798,383.414h-19.019
	v-19.009h19.019V383.414z"/>
<g>
	<path style="fill:#EDE6F5;" d="M353.596,276.535c-2.908,0-5.692-1.651-7.002-4.461c-1.801-3.865-0.128-8.457,3.736-10.257
		l17.936-8.358c2.745-1.278,5.985-0.835,8.284,1.136l7.204,6.175c3.237,2.775,3.611,7.647,0.837,10.884
		c-2.775,3.237-7.648,3.61-10.884,0.837l-3.428-2.938l-13.428,6.257C355.796,276.303,354.687,276.535,353.596,276.535z"/>
	<path style="fill:#EDE6F5;" d="M372.546,309.345c-3.706,0-6.976-2.676-7.605-6.451l-0.245-1.469l-12.678-3.9
		c-4.075-1.254-6.361-5.572-5.108-9.648c1.254-4.074,5.573-6.362,9.648-5.108l17.238,5.301c2.794,0.859,4.864,3.224,5.345,6.109
		l1.029,6.175c0.701,4.204-2.14,8.182-6.345,8.883C373.395,309.31,372.967,309.345,372.546,309.345z"/>
	<path style="fill:#EDE6F5;" d="M321.53,276.535c-1.092,0-2.2-0.233-3.255-0.725l-13.428-6.257l-3.428,2.938
		c-3.237,2.775-8.109,2.4-10.884-0.837c-2.775-3.237-2.4-8.109,0.837-10.884l7.204-6.175c2.299-1.971,5.539-2.414,8.284-1.136
		l17.936,8.358c3.864,1.801,5.537,6.392,3.736,10.257C327.224,274.885,324.439,276.535,321.53,276.535z"/>
	<path style="fill:#EDE6F5;" d="M302.58,309.345c-0.422,0-0.848-0.034-1.278-0.106c-4.205-0.701-7.046-4.678-6.345-8.883
		l1.029-6.175c0.481-2.885,2.55-5.25,5.345-6.109l17.238-5.301c4.077-1.255,8.394,1.033,9.648,5.108
		c1.254,4.075-1.033,8.394-5.108,9.648l-12.678,3.9l-0.245,1.469C309.556,306.669,306.285,309.345,302.58,309.345z"/>
	<path style="fill:#EDE6F5;" d="M337.563,241.418c-4.263,0-7.719-3.456-7.719-7.719v-76.964c0-4.263,3.456-7.719,7.719-7.719
		c4.263,0,7.719,3.456,7.719,7.719v76.964C345.282,237.962,341.826,241.418,337.563,241.418z"/>
</g>
<circle style="fill:#F8D46E;" cx="337.563" cy="247.077" r="13.379"/>
<circle style="fill:#EE8E3E;" cx="337.563" cy="280.011" r="19.555"/>
<path style="fill:#F7C852;" d="M337.419,247.078c0-4.98,2.726-9.315,6.762-11.618c-1.953-1.115-4.208-1.761-6.618-1.761
	c-7.39,0-13.379,5.99-13.379,13.379s5.99,13.379,13.379,13.379c2.409,0,4.664-0.645,6.618-1.761
	C340.145,256.393,337.419,252.057,337.419,247.078z"/>
<path style="fill:#EA8032;" d="M331.388,280.012c0-8.442,5.366-15.618,12.865-18.355c-2.09-0.763-4.336-1.2-6.69-1.2
	c-10.796,0-19.555,8.758-19.555,19.555c0,10.796,8.758,19.555,19.555,19.555c2.354,0,4.599-0.437,6.69-1.2
	C336.754,295.63,331.388,288.454,331.388,280.012z"/>
<g>
</g>
<g>
</g>
<g>
</g>
<g>
</g>
<g>
</g>
<g>
</g>
<g>
</g>
<g>
</g>
<g>
</g>
<g>
</g>
<g>
</g>
<g>
</g>
<g>
</g>
<g>
</g>
<g>
</g>
</svg>
